<?xml version="1.0" encoding="UTF-8" standalone="no"?>
<!DOCTYPE svg PUBLIC "-//W3C//DTD SVG 1.1//EN" "http://www.w3.org/Graphics/SVG/1.1/DTD/svg11.dtd">
<svg width="100%" height="100%" viewBox="0 0 137 136" version="1.1" xmlns="http://www.w3.org/2000/svg" xmlns:xlink="http://www.w3.org/1999/xlink" xml:space="preserve" style="fill-rule:evenodd;clip-rule:evenodd;stroke-linejoin:round;stroke-miterlimit:1.41421;">
    <g>
        <circle cx="68.417" cy="68.417" r="63.333" style="fill:rgb(247,152,29);"/>
        <g transform="matrix(3.27869,0,0,3.27869,-235.737,-261.977)">
            <circle cx="92.805" cy="100.769" r="15.25" style="fill:rgb(247,206,40);"/>
            <g>
                <path d="M101.057,92.47L86.936,100.298L86.213,100.974L93.178,107.605L93.676,107.041L101.057,92.47Z" style="fill:rgb(247,217,139);fill-rule:nonzero;"/>
                <path d="M101.1,92.388L94.938,95.814L97.887,98.763L101.1,92.388Z" style="fill:rgb(98,100,99);fill-rule:nonzero;"/>
                <g>
                    <path d="M93.804,106.011L91.703,106.132L84.356,113.472C84.957,113.87 85.591,114.216 86.248,114.529L93.178,107.605L93.804,106.011Z" style="fill:rgb(232,72,73);fill-rule:nonzero;"/>
                    <path d="M81.875,111.41L89.433,103.859L89.526,101.732L87.481,101.908L80.122,109.262C80.638,110.031 81.229,110.748 81.875,111.41Z" style="fill:rgb(232,72,73);fill-rule:nonzero;"/>
                    <path d="M87.481,101.908L87.769,99.974L86.373,100.798L79.297,107.868C79.549,108.347 79.821,108.813 80.122,109.261L87.481,101.908Z" style="fill:rgb(240,102,104);fill-rule:nonzero;"/>
                    <path d="M84.357,113.472L91.704,106.132L91.678,103.884L89.434,103.859L81.876,111.41C82.627,112.179 83.458,112.873 84.357,113.472Z" style="fill:rgb(240,102,104);fill-rule:nonzero;"/>
                </g>
            </g>
        </g>
        <g transform="matrix(0.395668,0,0,0.395668,69.7301,68.5359)">
            <g>
                <path d="M56.764,103.121L23.518,103.121L23.518,41.039C23.518,38.789 25.341,36.967 27.589,36.967L52.693,36.967C54.941,36.967 56.764,38.789 56.764,41.039L56.764,103.121Z" style="fill:rgb(109,104,104);fill-rule:nonzero;"/>
                <path d="M23.518,41.039C23.518,38.789 25.341,36.967 27.589,36.967L52.693,36.967C54.941,36.967 56.764,38.789 56.764,41.039L23.518,41.039Z" style="fill:rgb(95,94,94);fill-rule:nonzero;"/>
                <path d="M29.378,101.664C29.105,101.664 28.884,101.444 28.884,101.17L28.884,98.115C28.884,97.844 29.105,97.621 29.378,97.621L36.436,97.621C36.709,97.621 36.932,97.844 36.932,98.115L36.932,101.17C36.932,101.444 36.709,101.664 36.436,101.664L29.378,101.664Z" style="fill:rgb(225,224,224);fill-rule:nonzero;"/>
                <path d="M43.846,101.664C43.573,101.664 43.351,101.444 43.351,101.17L43.351,98.115C43.351,97.844 43.573,97.621 43.846,97.621L50.906,97.621C51.177,97.621 51.398,97.844 51.398,98.115L51.398,101.17C51.398,101.444 51.176,101.664 50.906,101.664L43.846,101.664Z" style="fill:rgb(225,224,224);fill-rule:nonzero;"/>
                <g>
                    <path d="M43.846,93.523C43.573,93.523 43.351,93.302 43.351,93.029L43.351,89.974C43.351,89.701 43.573,89.478 43.846,89.478L45.645,89.478C45.917,89.478 46.141,89.701 46.141,89.974L46.141,93.029C46.141,93.302 45.917,93.523 45.645,93.523L43.846,93.523Z" style="fill:rgb(225,224,224);fill-rule:nonzero;"/>
                    <path d="M49.104,93.523C48.832,93.523 48.609,93.302 48.609,93.029L48.609,89.974C48.609,89.701 48.832,89.478 49.104,89.478L50.906,89.478C51.177,89.478 51.398,89.701 51.398,89.974L51.398,93.029C51.398,93.302 51.176,93.523 50.906,93.523L49.104,93.523Z" style="fill:rgb(225,224,224);fill-rule:nonzero;"/>
                    <path d="M29.372,93.523C29.099,93.523 28.877,93.302 28.877,93.029L28.877,89.974C28.877,89.701 29.099,89.478 29.372,89.478L31.171,89.478C31.444,89.478 31.666,89.701 31.666,89.974L31.666,93.029C31.666,93.302 31.444,93.523 31.171,93.523L29.372,93.523Z" style="fill:rgb(225,224,224);fill-rule:nonzero;"/>
                    <path d="M34.629,93.523C34.358,93.523 34.134,93.302 34.134,93.029L34.134,89.974C34.134,89.701 34.358,89.478 34.629,89.478L36.428,89.478C36.702,89.478 36.924,89.701 36.924,89.974L36.924,93.029C36.924,93.302 36.702,93.523 36.428,93.523L34.629,93.523Z" style="fill:rgb(225,224,224);fill-rule:nonzero;"/>
                </g>
                <g>
                    <path d="M43.846,83.005C43.573,83.005 43.351,82.784 43.351,82.511L43.351,79.456C43.351,79.185 43.573,78.962 43.846,78.962L45.645,78.962C45.917,78.962 46.141,79.185 46.141,79.456L46.141,82.511C46.141,82.784 45.917,83.005 45.645,83.005L43.846,83.005Z" style="fill:rgb(225,224,224);fill-rule:nonzero;"/>
                    <path d="M49.104,83.005C48.832,83.005 48.609,82.784 48.609,82.511L48.609,79.456C48.609,79.185 48.832,78.962 49.104,78.962L50.906,78.962C51.177,78.962 51.398,79.185 51.398,79.456L51.398,82.511C51.398,82.784 51.176,83.005 50.906,83.005L49.104,83.005Z" style="fill:rgb(225,224,224);fill-rule:nonzero;"/>
                    <path d="M29.372,83.005C29.099,83.005 28.877,82.784 28.877,82.511L28.877,79.456C28.877,79.185 29.099,78.962 29.372,78.962L31.171,78.962C31.444,78.962 31.666,79.185 31.666,79.456L31.666,82.511C31.666,82.784 31.444,83.005 31.171,83.005L29.372,83.005Z" style="fill:rgb(225,224,224);fill-rule:nonzero;"/>
                    <path d="M34.629,83.005C34.358,83.005 34.134,82.784 34.134,82.511L34.134,79.456C34.134,79.185 34.358,78.962 34.629,78.962L36.428,78.962C36.702,78.962 36.924,79.185 36.924,79.456L36.924,82.511C36.924,82.784 36.702,83.005 36.428,83.005L34.629,83.005Z" style="fill:rgb(225,224,224);fill-rule:nonzero;"/>
                </g>
                <g>
                    <path d="M43.846,72.49C43.573,72.49 43.351,72.267 43.351,71.996L43.351,68.94C43.351,68.669 43.573,68.445 43.846,68.445L45.645,68.445C45.917,68.445 46.141,68.669 46.141,68.94L46.141,71.996C46.141,72.267 45.917,72.49 45.645,72.49L43.846,72.49Z" style="fill:rgb(225,224,224);fill-rule:nonzero;"/>
                    <path d="M49.104,72.49C48.832,72.49 48.609,72.267 48.609,71.996L48.609,68.94C48.609,68.669 48.832,68.445 49.104,68.445L50.906,68.445C51.177,68.445 51.398,68.669 51.398,68.94L51.398,71.996C51.398,72.267 51.176,72.49 50.906,72.49L49.104,72.49Z" style="fill:rgb(225,224,224);fill-rule:nonzero;"/>
                    <path d="M29.372,72.49C29.099,72.49 28.877,72.267 28.877,71.996L28.877,68.94C28.877,68.669 29.099,68.445 29.372,68.445L31.171,68.445C31.444,68.445 31.666,68.669 31.666,68.94L31.666,71.996C31.666,72.267 31.444,72.49 31.171,72.49L29.372,72.49Z" style="fill:rgb(225,224,224);fill-rule:nonzero;"/>
                    <path d="M34.629,72.49C34.358,72.49 34.134,72.267 34.134,71.996L34.134,68.94C34.134,68.669 34.358,68.445 34.629,68.445L36.428,68.445C36.702,68.445 36.924,68.669 36.924,68.94L36.924,71.996C36.924,72.267 36.702,72.49 36.428,72.49L34.629,72.49Z" style="fill:rgb(225,224,224);fill-rule:nonzero;"/>
                </g>
                <g>
                    <path d="M43.846,61.972C43.573,61.972 43.351,61.75 43.351,61.48L43.351,58.422C43.351,58.151 43.573,57.93 43.846,57.93L45.645,57.93C45.917,57.93 46.141,58.152 46.141,58.422L46.141,61.48C46.141,61.751 45.917,61.972 45.645,61.972L43.846,61.972Z" style="fill:rgb(225,224,224);fill-rule:nonzero;"/>
                    <path d="M49.104,61.972C48.832,61.972 48.609,61.75 48.609,61.48L48.609,58.422C48.609,58.151 48.832,57.93 49.104,57.93L50.906,57.93C51.177,57.93 51.398,58.152 51.398,58.422L51.398,61.48C51.398,61.751 51.176,61.972 50.906,61.972L49.104,61.972Z" style="fill:rgb(225,224,224);fill-rule:nonzero;"/>
                    <path d="M29.372,61.972C29.099,61.972 28.877,61.75 28.877,61.48L28.877,58.422C28.877,58.151 29.099,57.93 29.372,57.93L31.171,57.93C31.444,57.93 31.666,58.152 31.666,58.422L31.666,61.48C31.666,61.751 31.444,61.972 31.171,61.972L29.372,61.972Z" style="fill:rgb(225,224,224);fill-rule:nonzero;"/>
                    <path d="M34.629,61.972C34.358,61.972 34.134,61.75 34.134,61.48L34.134,58.422C34.134,58.151 34.358,57.93 34.629,57.93L36.428,57.93C36.702,57.93 36.924,58.152 36.924,58.422L36.924,61.48C36.924,61.751 36.702,61.972 36.428,61.972L34.629,61.972Z" style="fill:rgb(225,224,224);fill-rule:nonzero;"/>
                </g>
                <g>
                    <path d="M43.846,51.457C43.573,51.457 43.351,51.236 43.351,50.963L43.351,47.908C43.351,47.635 43.573,47.412 43.846,47.412L45.645,47.412C45.917,47.412 46.141,47.635 46.141,47.908L46.141,50.963C46.141,51.236 45.917,51.457 45.645,51.457L43.846,51.457Z" style="fill:rgb(225,224,224);fill-rule:nonzero;"/>
                    <path d="M49.104,51.457C48.832,51.457 48.609,51.236 48.609,50.963L48.609,47.908C48.609,47.635 48.832,47.412 49.104,47.412L50.906,47.412C51.177,47.412 51.398,47.635 51.398,47.908L51.398,50.963C51.398,51.236 51.176,51.457 50.906,51.457L49.104,51.457Z" style="fill:rgb(225,224,224);fill-rule:nonzero;"/>
                    <path d="M29.372,51.457C29.099,51.457 28.877,51.236 28.877,50.963L28.877,47.908C28.877,47.635 29.099,47.412 29.372,47.412L31.171,47.412C31.444,47.412 31.666,47.635 31.666,47.908L31.666,50.963C31.666,51.236 31.444,51.457 31.171,51.457L29.372,51.457Z" style="fill:rgb(225,224,224);fill-rule:nonzero;"/>
                    <path d="M34.629,51.457C34.358,51.457 34.134,51.236 34.134,50.963L34.134,47.908C34.134,47.635 34.358,47.412 34.629,47.412L36.428,47.412C36.702,47.412 36.924,47.635 36.924,47.908L36.924,50.963C36.924,51.236 36.702,51.457 36.428,51.457L34.629,51.457Z" style="fill:rgb(225,224,224);fill-rule:nonzero;"/>
                </g>
                <g>
                    <path d="M38.539,98C38.539,97.783 38.715,97.607 38.931,97.607L41.345,97.607C41.561,97.607 41.737,97.783 41.737,98L41.737,103.121L38.54,103.121L38.54,98L38.539,98Z" style="fill:rgb(77,76,76);fill-rule:nonzero;"/>
                    <circle cx="39.039" cy="100.38" r="0.198" style="fill:rgb(205,204,203);"/>
                </g>
            </g>
            <g>
                <path d="M111.976,103.121L78.731,103.121L78.731,41.039C78.731,38.789 80.554,36.967 82.8,36.967L107.905,36.967C110.153,36.967 111.975,38.789 111.975,41.039L111.975,103.121L111.976,103.121Z" style="fill:rgb(109,104,104);fill-rule:nonzero;"/>
                <path d="M78.731,41.039C78.731,38.789 80.554,36.967 82.8,36.967L107.905,36.967C110.153,36.967 111.975,38.789 111.975,41.039L78.731,41.039Z" style="fill:rgb(95,94,94);fill-rule:nonzero;"/>
                <path d="M84.589,101.664C84.318,101.664 84.097,101.444 84.097,101.17L84.097,98.115C84.097,97.844 84.318,97.621 84.589,97.621L91.647,97.621C91.921,97.621 92.144,97.844 92.144,98.115L92.144,101.17C92.144,101.444 91.921,101.664 91.647,101.664L84.589,101.664Z" style="fill:rgb(225,224,224);fill-rule:nonzero;"/>
                <path d="M99.058,101.664C98.785,101.664 98.563,101.444 98.563,101.17L98.563,98.115C98.563,97.844 98.785,97.621 99.058,97.621L106.117,97.621C106.39,97.621 106.61,97.844 106.61,98.115L106.61,101.17C106.61,101.444 106.39,101.664 106.117,101.664L99.058,101.664Z" style="fill:rgb(225,224,224);fill-rule:nonzero;"/>
                <g>
                    <path d="M99.058,93.523C98.785,93.523 98.563,93.302 98.563,93.029L98.563,89.974C98.563,89.701 98.785,89.478 99.058,89.478L100.858,89.478C101.13,89.478 101.354,89.701 101.354,89.974L101.354,93.029C101.354,93.302 101.13,93.523 100.858,93.523L99.058,93.523Z" style="fill:rgb(225,224,224);fill-rule:nonzero;"/>
                    <path d="M104.317,93.523C104.045,93.523 103.82,93.302 103.82,93.029L103.82,89.974C103.82,89.701 104.045,89.478 104.317,89.478L106.117,89.478C106.39,89.478 106.61,89.701 106.61,89.974L106.61,93.029C106.61,93.302 106.39,93.523 106.117,93.523L104.317,93.523Z" style="fill:rgb(225,224,224);fill-rule:nonzero;"/>
                    <path d="M84.583,93.523C84.311,93.523 84.089,93.302 84.089,93.029L84.089,89.974C84.089,89.701 84.311,89.478 84.583,89.478L86.385,89.478C86.656,89.478 86.88,89.701 86.88,89.974L86.88,93.029C86.88,93.302 86.656,93.523 86.385,93.523L84.583,93.523Z" style="fill:rgb(225,224,224);fill-rule:nonzero;"/>
                    <path d="M89.841,93.523C89.57,93.523 89.349,93.302 89.349,93.029L89.349,89.974C89.349,89.701 89.57,89.478 89.841,89.478L91.641,89.478C91.914,89.478 92.137,89.701 92.137,89.974L92.137,93.029C92.137,93.302 91.914,93.523 91.641,93.523L89.841,93.523Z" style="fill:rgb(225,224,224);fill-rule:nonzero;"/>
                </g>
                <g>
                    <path d="M99.058,83.005C98.785,83.005 98.563,82.784 98.563,82.511L98.563,79.456C98.563,79.185 98.785,78.962 99.058,78.962L100.858,78.962C101.13,78.962 101.354,79.185 101.354,79.456L101.354,82.511C101.354,82.784 101.13,83.005 100.858,83.005L99.058,83.005Z" style="fill:rgb(225,224,224);fill-rule:nonzero;"/>
                    <path d="M104.317,83.005C104.045,83.005 103.82,82.784 103.82,82.511L103.82,79.456C103.82,79.185 104.045,78.962 104.317,78.962L106.117,78.962C106.39,78.962 106.61,79.185 106.61,79.456L106.61,82.511C106.61,82.784 106.39,83.005 106.117,83.005L104.317,83.005Z" style="fill:rgb(225,224,224);fill-rule:nonzero;"/>
                    <path d="M84.583,83.005C84.311,83.005 84.089,82.784 84.089,82.511L84.089,79.456C84.089,79.185 84.311,78.962 84.583,78.962L86.385,78.962C86.656,78.962 86.88,79.185 86.88,79.456L86.88,82.511C86.88,82.784 86.656,83.005 86.385,83.005L84.583,83.005Z" style="fill:rgb(225,224,224);fill-rule:nonzero;"/>
                    <path d="M89.841,83.005C89.57,83.005 89.349,82.784 89.349,82.511L89.349,79.456C89.349,79.185 89.57,78.962 89.841,78.962L91.641,78.962C91.914,78.962 92.137,79.185 92.137,79.456L92.137,82.511C92.137,82.784 91.914,83.005 91.641,83.005L89.841,83.005Z" style="fill:rgb(225,224,224);fill-rule:nonzero;"/>
                </g>
                <g>
                    <path d="M99.058,72.49C98.785,72.49 98.563,72.267 98.563,71.996L98.563,68.94C98.563,68.669 98.785,68.445 99.058,68.445L100.858,68.445C101.13,68.445 101.354,68.669 101.354,68.94L101.354,71.996C101.354,72.267 101.13,72.49 100.858,72.49L99.058,72.49Z" style="fill:rgb(225,224,224);fill-rule:nonzero;"/>
                    <path d="M104.317,72.49C104.045,72.49 103.82,72.267 103.82,71.996L103.82,68.94C103.82,68.669 104.045,68.445 104.317,68.445L106.117,68.445C106.39,68.445 106.61,68.669 106.61,68.94L106.61,71.996C106.61,72.267 106.39,72.49 106.117,72.49L104.317,72.49Z" style="fill:rgb(225,224,224);fill-rule:nonzero;"/>
                    <path d="M84.583,72.49C84.311,72.49 84.089,72.267 84.089,71.996L84.089,68.94C84.089,68.669 84.311,68.445 84.583,68.445L86.385,68.445C86.656,68.445 86.88,68.669 86.88,68.94L86.88,71.996C86.88,72.267 86.656,72.49 86.385,72.49L84.583,72.49Z" style="fill:rgb(225,224,224);fill-rule:nonzero;"/>
                    <path d="M89.841,72.49C89.57,72.49 89.349,72.267 89.349,71.996L89.349,68.94C89.349,68.669 89.57,68.445 89.841,68.445L91.641,68.445C91.914,68.445 92.137,68.669 92.137,68.94L92.137,71.996C92.137,72.267 91.914,72.49 91.641,72.49L89.841,72.49Z" style="fill:rgb(225,224,224);fill-rule:nonzero;"/>
                </g>
                <g>
                    <path d="M99.058,61.972C98.785,61.972 98.563,61.75 98.563,61.48L98.563,58.422C98.563,58.151 98.785,57.93 99.058,57.93L100.858,57.93C101.13,57.93 101.354,58.152 101.354,58.422L101.354,61.48C101.354,61.751 101.13,61.972 100.858,61.972L99.058,61.972Z" style="fill:rgb(225,224,224);fill-rule:nonzero;"/>
                    <path d="M104.317,61.972C104.045,61.972 103.82,61.75 103.82,61.48L103.82,58.422C103.82,58.151 104.045,57.93 104.317,57.93L106.117,57.93C106.39,57.93 106.61,58.152 106.61,58.422L106.61,61.48C106.61,61.751 106.39,61.972 106.117,61.972L104.317,61.972Z" style="fill:rgb(225,224,224);fill-rule:nonzero;"/>
                    <path d="M84.583,61.972C84.311,61.972 84.089,61.75 84.089,61.48L84.089,58.422C84.089,58.151 84.311,57.93 84.583,57.93L86.385,57.93C86.656,57.93 86.88,58.152 86.88,58.422L86.88,61.48C86.88,61.751 86.656,61.972 86.385,61.972L84.583,61.972Z" style="fill:rgb(225,224,224);fill-rule:nonzero;"/>
                    <path d="M89.841,61.972C89.57,61.972 89.349,61.75 89.349,61.48L89.349,58.422C89.349,58.151 89.57,57.93 89.841,57.93L91.641,57.93C91.914,57.93 92.137,58.152 92.137,58.422L92.137,61.48C92.137,61.751 91.914,61.972 91.641,61.972L89.841,61.972Z" style="fill:rgb(225,224,224);fill-rule:nonzero;"/>
                </g>
                <g>
                    <path d="M99.058,51.457C98.785,51.457 98.563,51.236 98.563,50.963L98.563,47.908C98.563,47.635 98.785,47.412 99.058,47.412L100.858,47.412C101.13,47.412 101.354,47.635 101.354,47.908L101.354,50.963C101.354,51.236 101.13,51.457 100.858,51.457L99.058,51.457Z" style="fill:rgb(225,224,224);fill-rule:nonzero;"/>
                    <path d="M104.317,51.457C104.045,51.457 103.82,51.236 103.82,50.963L103.82,47.908C103.82,47.635 104.045,47.412 104.317,47.412L106.117,47.412C106.39,47.412 106.61,47.635 106.61,47.908L106.61,50.963C106.61,51.236 106.39,51.457 106.117,51.457L104.317,51.457Z" style="fill:rgb(225,224,224);fill-rule:nonzero;"/>
                    <path d="M84.583,51.457C84.311,51.457 84.089,51.236 84.089,50.963L84.089,47.908C84.089,47.635 84.311,47.412 84.583,47.412L86.385,47.412C86.656,47.412 86.88,47.635 86.88,47.908L86.88,50.963C86.88,51.236 86.656,51.457 86.385,51.457L84.583,51.457Z" style="fill:rgb(225,224,224);fill-rule:nonzero;"/>
                    <path d="M89.841,51.457C89.57,51.457 89.349,51.236 89.349,50.963L89.349,47.908C89.349,47.635 89.57,47.412 89.841,47.412L91.641,47.412C91.914,47.412 92.137,47.635 92.137,47.908L92.137,50.963C92.137,51.236 91.914,51.457 91.641,51.457L89.841,51.457Z" style="fill:rgb(225,224,224);fill-rule:nonzero;"/>
                </g>
                <g>
                    <path d="M93.75,98C93.75,97.783 93.926,97.607 94.144,97.607L96.556,97.607C96.772,97.607 96.949,97.783 96.949,98L96.949,103.121L93.75,103.121L93.75,98Z" style="fill:rgb(77,76,76);fill-rule:nonzero;"/>
                    <circle cx="94.251" cy="100.38" r="0.199" style="fill:rgb(205,204,203);"/>
                </g>
            </g>
            <g>
                <path d="M90.665,112.957L45.998,112.957L45.998,29.548C45.998,26.527 48.447,24.079 51.468,24.079L85.196,24.079C88.217,24.079 90.666,26.526 90.666,29.548L90.666,112.957L90.665,112.957Z" style="fill:rgb(134,135,135);fill-rule:nonzero;"/>
                <path d="M45.998,29.548C45.998,26.527 48.447,24.079 51.468,24.079L85.196,24.079C88.217,24.079 90.666,26.526 90.666,29.548L45.998,29.548Z" style="fill:rgb(120,120,120);fill-rule:nonzero;"/>
                <path d="M53.872,111.001C53.505,111.001 53.207,110.704 53.207,110.337L53.207,106.233C53.207,105.866 53.505,105.567 53.872,105.567L63.353,105.567C63.72,105.567 64.019,105.866 64.019,106.233L64.019,110.337C64.019,110.704 63.72,111.001 63.353,111.001L53.872,111.001Z" style="fill:rgb(225,224,224);fill-rule:nonzero;"/>
                <path d="M73.308,111.001C72.941,111.001 72.643,110.704 72.643,110.337L72.643,106.233C72.643,105.866 72.941,105.567 73.308,105.567L82.79,105.567C83.157,105.567 83.455,105.866 83.455,106.233L83.455,110.337C83.455,110.704 83.157,111.001 82.79,111.001L73.308,111.001Z" style="fill:rgb(225,224,224);fill-rule:nonzero;"/>
                <g>
                    <path d="M73.308,100.063C72.941,100.063 72.643,99.765 72.643,99.398L72.643,95.294C72.643,94.927 72.941,94.628 73.308,94.628L75.726,94.628C76.093,94.628 76.391,94.927 76.391,95.294L76.391,99.398C76.391,99.765 76.093,100.063 75.726,100.063L73.308,100.063Z" style="fill:rgb(225,224,224);fill-rule:nonzero;"/>
                    <path d="M80.374,100.063C80.007,100.063 79.708,99.765 79.708,99.398L79.708,95.294C79.708,94.927 80.007,94.628 80.374,94.628L82.791,94.628C83.158,94.628 83.456,94.927 83.456,95.294L83.456,99.398C83.456,99.765 83.158,100.063 82.791,100.063L80.374,100.063Z" style="fill:rgb(225,224,224);fill-rule:nonzero;"/>
                    <path d="M53.862,100.063C53.495,100.063 53.197,99.765 53.197,99.398L53.197,95.294C53.197,94.927 53.495,94.628 53.862,94.628L56.279,94.628C56.646,94.628 56.945,94.927 56.945,95.294L56.945,99.398C56.945,99.765 56.646,100.063 56.279,100.063L53.862,100.063Z" style="fill:rgb(225,224,224);fill-rule:nonzero;"/>
                    <path d="M60.927,100.063C60.56,100.063 60.261,99.765 60.261,99.398L60.261,95.294C60.261,94.927 60.56,94.628 60.927,94.628L63.343,94.628C63.71,94.628 64.009,94.927 64.009,95.294L64.009,99.398C64.009,99.765 63.71,100.063 63.343,100.063L60.927,100.063Z" style="fill:rgb(225,224,224);fill-rule:nonzero;"/>
                </g>
                <g>
                    <path d="M73.308,85.933C72.941,85.933 72.643,85.636 72.643,85.269L72.643,81.165C72.643,80.798 72.941,80.499 73.308,80.499L75.726,80.499C76.093,80.499 76.391,80.798 76.391,81.165L76.391,85.269C76.391,85.636 76.093,85.933 75.726,85.933L73.308,85.933Z" style="fill:rgb(225,224,224);fill-rule:nonzero;"/>
                    <path d="M80.374,85.933C80.007,85.933 79.708,85.636 79.708,85.269L79.708,81.165C79.708,80.798 80.007,80.499 80.374,80.499L82.791,80.499C83.158,80.499 83.456,80.798 83.456,81.165L83.456,85.269C83.456,85.636 83.158,85.933 82.791,85.933L80.374,85.933Z" style="fill:rgb(225,224,224);fill-rule:nonzero;"/>
                    <path d="M53.862,85.933C53.495,85.933 53.197,85.636 53.197,85.269L53.197,81.165C53.197,80.798 53.495,80.499 53.862,80.499L56.279,80.499C56.646,80.499 56.945,80.798 56.945,81.165L56.945,85.269C56.945,85.636 56.646,85.933 56.279,85.933L53.862,85.933Z" style="fill:rgb(225,224,224);fill-rule:nonzero;"/>
                    <path d="M60.927,85.933C60.56,85.933 60.261,85.636 60.261,85.269L60.261,81.165C60.261,80.798 60.56,80.499 60.927,80.499L63.343,80.499C63.71,80.499 64.009,80.798 64.009,81.165L64.009,85.269C64.009,85.636 63.71,85.933 63.343,85.933L60.927,85.933Z" style="fill:rgb(225,224,224);fill-rule:nonzero;"/>
                </g>
                <g>
                    <path d="M73.308,71.804C72.941,71.804 72.643,71.506 72.643,71.139L72.643,67.036C72.643,66.668 72.941,66.37 73.308,66.37L75.726,66.37C76.093,66.37 76.391,66.668 76.391,67.036L76.391,71.139C76.391,71.506 76.093,71.804 75.726,71.804L73.308,71.804Z" style="fill:rgb(225,224,224);fill-rule:nonzero;"/>
                    <path d="M80.374,71.804C80.007,71.804 79.708,71.506 79.708,71.139L79.708,67.036C79.708,66.668 80.007,66.37 80.374,66.37L82.791,66.37C83.158,66.37 83.456,66.668 83.456,67.036L83.456,71.139C83.456,71.506 83.158,71.804 82.791,71.804L80.374,71.804Z" style="fill:rgb(225,224,224);fill-rule:nonzero;"/>
                    <path d="M53.862,71.804C53.495,71.804 53.197,71.506 53.197,71.139L53.197,67.036C53.197,66.668 53.495,66.37 53.862,66.37L56.279,66.37C56.646,66.37 56.945,66.668 56.945,67.036L56.945,71.139C56.945,71.506 56.646,71.804 56.279,71.804L53.862,71.804Z" style="fill:rgb(225,224,224);fill-rule:nonzero;"/>
                    <path d="M60.927,71.804C60.56,71.804 60.261,71.506 60.261,71.139L60.261,67.036C60.261,66.668 60.56,66.37 60.927,66.37L63.343,66.37C63.71,66.37 64.009,66.668 64.009,67.036L64.009,71.139C64.009,71.506 63.71,71.804 63.343,71.804L60.927,71.804Z" style="fill:rgb(225,224,224);fill-rule:nonzero;"/>
                </g>
                <g>
                    <path d="M73.308,57.675C72.941,57.675 72.643,57.376 72.643,57.009L72.643,52.905C72.643,52.538 72.941,52.241 73.308,52.241L75.726,52.241C76.093,52.241 76.391,52.538 76.391,52.905L76.391,57.009C76.391,57.376 76.093,57.675 75.726,57.675L73.308,57.675Z" style="fill:rgb(225,224,224);fill-rule:nonzero;"/>
                    <path d="M80.374,57.675C80.007,57.675 79.708,57.376 79.708,57.009L79.708,52.905C79.708,52.538 80.007,52.241 80.374,52.241L82.791,52.241C83.158,52.241 83.456,52.538 83.456,52.905L83.456,57.009C83.456,57.376 83.158,57.675 82.791,57.675L80.374,57.675Z" style="fill:rgb(225,224,224);fill-rule:nonzero;"/>
                    <path d="M53.862,57.675C53.495,57.675 53.197,57.376 53.197,57.009L53.197,52.905C53.197,52.538 53.495,52.241 53.862,52.241L56.279,52.241C56.646,52.241 56.945,52.538 56.945,52.905L56.945,57.009C56.945,57.376 56.646,57.675 56.279,57.675L53.862,57.675Z" style="fill:rgb(225,224,224);fill-rule:nonzero;"/>
                    <path d="M60.927,57.675C60.56,57.675 60.261,57.376 60.261,57.009L60.261,52.905C60.261,52.538 60.56,52.241 60.927,52.241L63.343,52.241C63.71,52.241 64.009,52.538 64.009,52.905L64.009,57.009C64.009,57.376 63.71,57.675 63.343,57.675L60.927,57.675Z" style="fill:rgb(225,224,224);fill-rule:nonzero;"/>
                </g>
                <g>
                    <path d="M73.308,43.545C72.941,43.545 72.643,43.247 72.643,42.88L72.643,38.776C72.643,38.409 72.941,38.111 73.308,38.111L75.726,38.111C76.093,38.111 76.391,38.409 76.391,38.776L76.391,42.88C76.391,43.247 76.093,43.545 75.726,43.545L73.308,43.545Z" style="fill:rgb(225,224,224);fill-rule:nonzero;"/>
                    <path d="M80.374,43.545C80.007,43.545 79.708,43.247 79.708,42.88L79.708,38.776C79.708,38.409 80.007,38.111 80.374,38.111L82.791,38.111C83.158,38.111 83.456,38.409 83.456,38.776L83.456,42.88C83.456,43.247 83.158,43.545 82.791,43.545L80.374,43.545Z" style="fill:rgb(225,224,224);fill-rule:nonzero;"/>
                    <path d="M53.862,43.545C53.495,43.545 53.197,43.247 53.197,42.88L53.197,38.776C53.197,38.409 53.495,38.111 53.862,38.111L56.279,38.111C56.646,38.111 56.945,38.409 56.945,38.776L56.945,42.88C56.945,43.247 56.646,43.545 56.279,43.545L53.862,43.545Z" style="fill:rgb(225,224,224);fill-rule:nonzero;"/>
                    <path d="M60.927,43.545C60.56,43.545 60.261,43.247 60.261,42.88L60.261,38.776C60.261,38.409 60.56,38.111 60.927,38.111L63.343,38.111C63.71,38.111 64.009,38.409 64.009,38.776L64.009,42.88C64.009,43.247 63.71,43.545 63.343,43.545L60.927,43.545Z" style="fill:rgb(225,224,224);fill-rule:nonzero;"/>
                </g>
                <g>
                    <path d="M66.178,106.076C66.178,105.787 66.413,105.551 66.704,105.551L69.946,105.551C70.237,105.551 70.472,105.787 70.472,106.076L70.472,112.957L66.177,112.957L66.177,106.076L66.178,106.076Z" style="fill:rgb(77,76,76);fill-rule:nonzero;"/>
                    <circle cx="66.85" cy="109.273" r="0.266" style="fill:rgb(205,204,203);"/>
                </g>
            </g>
        </g>
    </g>
</svg>
