<?xml version="1.0" encoding="UTF-8" standalone="no"?>
<!DOCTYPE svg PUBLIC "-//W3C//DTD SVG 1.1//EN" "http://www.w3.org/Graphics/SVG/1.1/DTD/svg11.dtd">
<svg width="100%" height="100%" viewBox="0 0 137 136" version="1.1" xmlns="http://www.w3.org/2000/svg" xmlns:xlink="http://www.w3.org/1999/xlink" xml:space="preserve" style="fill-rule:evenodd;clip-rule:evenodd;stroke-linejoin:round;stroke-miterlimit:1.41421;">
    <circle cx="68.417" cy="68.417" r="63.333" style="fill:rgb(172,195,55);"/>
    <g>
        <g transform="matrix(0.257123,0,0,0.257123,2.90147,3.40688)">
            <path d="M412.6,399L92.4,399C90.8,399 89.5,397.7 89.5,396.1L89.5,108.9C89.5,107.3 90.8,106 92.4,106L412.7,106C414.3,106 415.6,107.3 415.6,108.9L415.6,396.2C415.5,397.7 414.2,399 412.6,399Z" style="fill:rgb(50,74,94);fill-rule:nonzero;"/>
        </g>
        <g transform="matrix(0.257123,0,0,0.257123,2.90147,3.40688)">
            <rect x="111.4" y="184" width="282.1" height="193.1" style="fill:white;"/>
        </g>
        <g transform="matrix(0.257123,0,0,0.257123,2.90147,3.40688)">
            <path d="M380,156.7C373.5,156.7 368.2,151.4 368.2,144.9C368.2,138.4 373.5,133.1 380,133.1C386.5,133.1 391.8,138.4 391.8,144.9C391.8,151.5 386.5,156.7 380,156.7Z" style="fill:rgb(132,219,255);fill-rule:nonzero;"/>
        </g>
        <g transform="matrix(0.257123,0,0,0.257123,2.90147,3.40688)">
            <path d="M341.5,156.7C335,156.7 329.7,151.4 329.7,144.9C329.7,138.4 335,133.1 341.5,133.1C348,133.1 353.3,138.4 353.3,144.9C353.2,151.5 348,156.7 341.5,156.7Z" style="fill:rgb(132,219,255);fill-rule:nonzero;"/>
        </g>
        <g transform="matrix(0.257123,0,0,0.257123,2.90147,3.40688)">
            <path d="M302.9,156.7C296.4,156.7 291.1,151.4 291.1,144.9C291.1,138.4 296.4,133.1 302.9,133.1C309.4,133.1 314.7,138.4 314.7,144.9C314.7,151.5 309.4,156.7 302.9,156.7Z" style="fill:rgb(132,219,255);fill-rule:nonzero;"/>
        </g>
        <g transform="matrix(0.257123,0,0,0.257123,2.90147,3.40688)">
            <path d="M222.2,156.7L123.2,156.7C116.7,156.7 111.4,151.4 111.4,144.9C111.4,138.4 116.7,133.1 123.2,133.1L222.2,133.1C228.7,133.1 234,138.4 234,144.9C233.9,151.5 228.7,156.7 222.2,156.7Z" style="fill:white;fill-rule:nonzero;"/>
        </g>
        <g transform="matrix(0.257123,0,0,0.257123,2.90147,3.40688)">
            <rect x="154.2" y="240.9" width="196.6" height="9.5" style="fill:rgb(230,233,238);"/>
        </g>
        <g transform="matrix(0.257123,0,0,0.257123,2.90147,3.40688)">
            <rect x="154.2" y="275.8" width="196.6" height="9.5" style="fill:rgb(230,233,238);"/>
        </g>
        <g transform="matrix(0.257123,0,0,0.257123,2.90147,3.40688)">
            <rect x="154.2" y="310.6" width="99.7" height="9.5" style="fill:rgb(230,233,238);"/>
        </g>
        <g transform="matrix(0.0574257,0,0,0.0574257,83.1834,88.3622)">
            <circle cx="252.5" cy="252.5" r="252.5" style="fill:rgb(142,152,167);"/>
        </g>
        <g transform="matrix(0.0574257,0,0,0.0574257,83.1834,88.3622)">
            <path d="M259.5,272.6L259.5,230.9L245.5,230.9L245.5,272.6L126,272.6L126,327.2L140.1,327.2L140.1,286.1L245.5,286.1L245.5,327.8L259.5,327.8L259.5,286.1L364.9,286.1L364.9,327.2L379,327.2L379,286.1L379,272.6L259.5,272.6Z" style="fill:rgb(76,219,196);fill-rule:nonzero;"/>
        </g>
        <g transform="matrix(0.0574257,0,0,0.0574257,83.1834,88.3622)">
            <path d="M349.3,164.1L342.1,164.1C342.1,163.9 342.1,163.7 342.1,163.4C342.1,139 322.3,119.2 298,119.2C288.9,119.2 280.4,122 273.4,126.7C265.9,99.8 241.3,80 212,80C176.8,80 148.2,108.5 148.2,143.8C148.2,151 149.4,157.9 151.6,164.3C135.3,166.5 122.6,181.9 122.6,200.8C122.6,221.1 137.3,237.5 155.5,237.5L349.2,237.5C367.4,237.5 382.1,221 382.1,200.8C382.2,180.6 367.5,164.1 349.3,164.1Z" style="fill:white;fill-rule:nonzero;"/>
        </g>
        <g transform="matrix(0.0574257,0,0,0.0574257,83.1834,88.3622)">
            <path d="M409.4,321.9L367.4,321.9C366.2,321.9 365,321.3 364.4,320.3L360.5,314.3C359.8,313.3 358.7,312.7 357.5,312.7L334.5,312.7C332.5,312.7 330.9,314.3 330.9,316.3L330.9,375.4C330.9,377.4 332.5,379 334.5,379L409.4,379C411.4,379 413,377.4 413,375.4L413,325.5C413,323.5 411.4,321.9 409.4,321.9Z" style="fill:rgb(50,74,94);fill-rule:nonzero;"/>
        </g>
        <g transform="matrix(0.0574257,0,0,0.0574257,83.1834,88.3622)">
            <path d="M290,321.9L248,321.9C246.8,321.9 245.6,321.3 245,320.3L241.1,314.3C240.4,313.3 239.3,312.7 238.1,312.7L215.1,312.7C213.1,312.7 211.5,314.3 211.5,316.3L211.5,375.4C211.5,377.4 213.1,379 215.1,379L290,379C292,379 293.6,377.4 293.6,375.4L293.6,325.5C293.6,323.5 292,321.9 290,321.9Z" style="fill:rgb(255,208,91);fill-rule:nonzero;"/>
        </g>
        <g transform="matrix(0.0574257,0,0,0.0574257,83.1834,88.3622)">
            <path d="M170.5,321.9L128.5,321.9C127.3,321.9 126.1,321.3 125.5,320.3L121.6,314.3C120.9,313.3 119.8,312.7 118.6,312.7L95.6,312.7C93.6,312.7 92,314.3 92,316.3L92,375.4C92,377.4 93.6,379 95.6,379L170.5,379C172.5,379 174.1,377.4 174.1,375.4L174.1,325.5C174.1,323.5 172.5,321.9 170.5,321.9Z" style="fill:rgb(255,112,88);fill-rule:nonzero;"/>
        </g>
    </g>
</svg>
