<?xml version="1.0" encoding="UTF-8" standalone="no"?>
<!DOCTYPE svg PUBLIC "-//W3C//DTD SVG 1.1//EN" "http://www.w3.org/Graphics/SVG/1.1/DTD/svg11.dtd">
<svg width="100%" height="100%" viewBox="0 0 137 136" version="1.1" xmlns="http://www.w3.org/2000/svg" xmlns:xlink="http://www.w3.org/1999/xlink" xml:space="preserve" style="fill-rule:evenodd;clip-rule:evenodd;stroke-linejoin:round;stroke-miterlimit:1.41421;">
    <circle cx="68.417" cy="68.417" r="63.333" style="fill:rgb(247,152,29);"/>
    <g>
        <g transform="matrix(0.258783,0,0,0.258783,2.5363,2.59428)">
            <path d="M400.3,221.1C400.8,217.6 401.4,214.2 401.4,210.6C401.4,172 370.1,140.7 331.5,140.7C317.6,140.7 304.6,144.9 293.7,151.9C276.3,115.5 239.5,90.2 196.5,90.2C136.9,90.2 88.5,138.5 88.5,198.2C88.5,207.2 89.9,215.9 92,224.3C68.3,233.3 51.1,257.4 51.1,286.1C51.1,322.4 78.4,351.9 112,351.9L393,351.9C426.7,351.9 453.9,322.5 453.9,286.1C453.9,252.5 430.4,225.1 400.3,221.1Z" style="fill:white;fill-rule:nonzero;"/>
        </g>
        <g transform="matrix(1.39443,0,0,1.27333,33.8942,72.3053)">
            <text x="0px" y="0px" style="font-family:'Arial-BoldMT', 'Arial', sans-serif;font-weight:700;font-size:15.631px;fill:rgb(255,208,91);">TCode</text>
        </g>
        <g transform="matrix(0.225233,0,0,0.225233,82.3247,87.5118)">
            <g transform="matrix(0.254962,0,0,0.254962,3.81243,3.77557)">
                <circle cx="252.5" cy="252.5" r="252.5" style="fill:rgb(16,123,168);"/>
            </g>
            <g transform="matrix(0.254962,0,0,0.254962,3.81243,3.77557)">
                <path d="M259.5,272.6L259.5,230.9L245.5,230.9L245.5,272.6L126,272.6L126,327.2L140.1,327.2L140.1,286.1L245.5,286.1L245.5,327.8L259.5,327.8L259.5,286.1L364.9,286.1L364.9,327.2L379,327.2L379,286.1L379,272.6L259.5,272.6Z" style="fill:rgb(76,219,196);fill-rule:nonzero;"/>
            </g>
            <g transform="matrix(0.254962,0,0,0.254962,3.81243,3.77557)">
                <path d="M349.3,164.1L342.1,164.1C342.1,163.9 342.1,163.7 342.1,163.4C342.1,139 322.3,119.2 298,119.2C288.9,119.2 280.4,122 273.4,126.7C265.9,99.8 241.3,80 212,80C176.8,80 148.2,108.5 148.2,143.8C148.2,151 149.4,157.9 151.6,164.3C135.3,166.5 122.6,181.9 122.6,200.8C122.6,221.1 137.3,237.5 155.5,237.5L349.2,237.5C367.4,237.5 382.1,221 382.1,200.8C382.2,180.6 367.5,164.1 349.3,164.1Z" style="fill:white;fill-rule:nonzero;"/>
            </g>
            <g transform="matrix(0.254962,0,0,0.254962,3.81243,3.77557)">
                <path d="M409.4,321.9L367.4,321.9C366.2,321.9 365,321.3 364.4,320.3L360.5,314.3C359.8,313.3 358.7,312.7 357.5,312.7L334.5,312.7C332.5,312.7 330.9,314.3 330.9,316.3L330.9,375.4C330.9,377.4 332.5,379 334.5,379L409.4,379C411.4,379 413,377.4 413,375.4L413,325.5C413,323.5 411.4,321.9 409.4,321.9Z" style="fill:rgb(237,242,242);fill-rule:nonzero;"/>
            </g>
            <g transform="matrix(0.254962,0,0,0.254962,3.81243,3.77557)">
                <path d="M290,321.9L248,321.9C246.8,321.9 245.6,321.3 245,320.3L241.1,314.3C240.4,313.3 239.3,312.7 238.1,312.7L215.1,312.7C213.1,312.7 211.5,314.3 211.5,316.3L211.5,375.4C211.5,377.4 213.1,379 215.1,379L290,379C292,379 293.6,377.4 293.6,375.4L293.6,325.5C293.6,323.5 292,321.9 290,321.9Z" style="fill:rgb(255,208,91);fill-rule:nonzero;"/>
            </g>
            <g transform="matrix(0.254962,0,0,0.254962,3.81243,3.77557)">
                <path d="M170.5,321.9L128.5,321.9C127.3,321.9 126.1,321.3 125.5,320.3L121.6,314.3C120.9,313.3 119.8,312.7 118.6,312.7L95.6,312.7C93.6,312.7 92,314.3 92,316.3L92,375.4C92,377.4 93.6,379 95.6,379L170.5,379C172.5,379 174.1,377.4 174.1,375.4L174.1,325.5C174.1,323.5 172.5,321.9 170.5,321.9Z" style="fill:rgb(255,112,88);fill-rule:nonzero;"/>
            </g>
        </g>
    </g>
</svg>
