<?xml version="1.0" encoding="UTF-8" standalone="no"?>
<!DOCTYPE svg PUBLIC "-//W3C//DTD SVG 1.1//EN" "http://www.w3.org/Graphics/SVG/1.1/DTD/svg11.dtd">
<svg width="100%" height="100%" viewBox="0 0 137 136" version="1.1" xmlns="http://www.w3.org/2000/svg" xmlns:xlink="http://www.w3.org/1999/xlink" xml:space="preserve" style="fill-rule:evenodd;clip-rule:evenodd;stroke-linejoin:round;stroke-miterlimit:1.41421;">
    <g>
        <circle cx="68.417" cy="68.417" r="63.333" style="fill:rgb(218,31,38);"/>
        <g transform="matrix(0.565611,0,0,0.565611,-133.979,-40.3873)">
            <circle cx="358" cy="192.4" r="88.4" style="fill:rgb(88,106,255);"/>
            <circle cx="358" cy="192.4" r="74.4" style="fill:white;"/>
            <rect x="355.2" y="128" width="5.2" height="10.8" style="fill:rgb(230,233,238);"/>
            <rect x="355.2" y="246" width="5.2" height="10.8" style="fill:rgb(230,233,238);"/>
            <rect x="411.6" y="190" width="10.8" height="5.2" style="fill:rgb(230,233,238);"/>
            <rect x="293.2" y="190" width="10.8" height="5.2" style="fill:rgb(230,233,238);"/>
            <g transform="matrix(0.7071,0.7071,-0.7071,0.7071,223.705,-238.546)">
                <rect x="397.203" y="145.363" width="5.2" height="10.8" style="fill:rgb(230,233,238);"/>
            </g>
            <g transform="matrix(0.7071,0.7071,-0.7071,0.7071,258.24,-154.899)">
                <rect x="313.499" y="228.874" width="5.2" height="10.8" style="fill:rgb(230,233,238);"/>
            </g>
            <g transform="matrix(-0.7071,0.7071,-0.7071,-0.7071,847.347,117.412)">
                <rect x="396.757" y="228.797" width="5.2" height="10.8" style="fill:rgb(230,233,238);"/>
            </g>
            <g transform="matrix(-0.7071,0.7071,-0.7071,-0.7071,645.935,33.7976)">
                <rect x="313.368" y="145.276" width="5.2" height="10.8" style="fill:rgb(230,233,238);"/>
            </g>
            <path d="M358,194.9C356.6,194.9 355.5,193.8 355.5,192.4L355.5,153.6C355.5,152.2 356.6,151.1 358,151.1C359.4,151.1 360.5,152.2 360.5,153.6L360.5,192.4C360.5,193.8 359.4,194.9 358,194.9Z" style="fill:rgb(50,74,94);fill-rule:nonzero;"/>
            <path d="M377.2,214.1C376.6,214.1 375.9,213.9 375.4,213.4L356.2,194.2C355.2,193.2 355.2,191.6 356.2,190.7C357.2,189.7 358.8,189.7 359.7,190.7L378.9,209.9C379.9,210.9 379.9,212.5 378.9,213.4C378.5,213.9 377.8,214.1 377.2,214.1Z" style="fill:rgb(50,74,94);fill-rule:nonzero;"/>
            <circle cx="358" cy="192.4" r="8.4" style="fill:rgb(255,112,88);"/>
        </g>
        <g transform="matrix(0.417423,0,0,0.417423,68.4735,66.1078)">
            <g transform="matrix(0.257123,0,0,0.257123,2.90147,3.40688)">
                <path d="M412.6,399L92.4,399C90.8,399 89.5,397.7 89.5,396.1L89.5,108.9C89.5,107.3 90.8,106 92.4,106L412.7,106C414.3,106 415.6,107.3 415.6,108.9L415.6,396.2C415.5,397.7 414.2,399 412.6,399Z" style="fill:rgb(50,74,94);fill-rule:nonzero;"/>
            </g>
            <g transform="matrix(0.257123,0,0,0.257123,2.90147,3.40688)">
                <rect x="111.4" y="184" width="282.1" height="193.1" style="fill:white;"/>
            </g>
            <g transform="matrix(0.257123,0,0,0.257123,2.90147,3.40688)">
                <path d="M380,156.7C373.5,156.7 368.2,151.4 368.2,144.9C368.2,138.4 373.5,133.1 380,133.1C386.5,133.1 391.8,138.4 391.8,144.9C391.8,151.5 386.5,156.7 380,156.7Z" style="fill:rgb(132,219,255);fill-rule:nonzero;"/>
            </g>
            <g transform="matrix(0.257123,0,0,0.257123,2.90147,3.40688)">
                <path d="M341.5,156.7C335,156.7 329.7,151.4 329.7,144.9C329.7,138.4 335,133.1 341.5,133.1C348,133.1 353.3,138.4 353.3,144.9C353.2,151.5 348,156.7 341.5,156.7Z" style="fill:rgb(132,219,255);fill-rule:nonzero;"/>
            </g>
            <g transform="matrix(0.257123,0,0,0.257123,2.90147,3.40688)">
                <path d="M302.9,156.7C296.4,156.7 291.1,151.4 291.1,144.9C291.1,138.4 296.4,133.1 302.9,133.1C309.4,133.1 314.7,138.4 314.7,144.9C314.7,151.5 309.4,156.7 302.9,156.7Z" style="fill:rgb(132,219,255);fill-rule:nonzero;"/>
            </g>
            <g transform="matrix(0.257123,0,0,0.257123,2.90147,3.40688)">
                <path d="M222.2,156.7L123.2,156.7C116.7,156.7 111.4,151.4 111.4,144.9C111.4,138.4 116.7,133.1 123.2,133.1L222.2,133.1C228.7,133.1 234,138.4 234,144.9C233.9,151.5 228.7,156.7 222.2,156.7Z" style="fill:white;fill-rule:nonzero;"/>
            </g>
            <g transform="matrix(0.257123,0,0,0.257123,2.90147,3.40688)">
                <rect x="154.2" y="240.9" width="196.6" height="9.5" style="fill:rgb(230,233,238);"/>
            </g>
            <g transform="matrix(0.257123,0,0,0.257123,2.90147,3.40688)">
                <rect x="154.2" y="275.8" width="196.6" height="9.5" style="fill:rgb(230,233,238);"/>
            </g>
            <g transform="matrix(0.257123,0,0,0.257123,2.90147,3.40688)">
                <rect x="154.2" y="310.6" width="99.7" height="9.5" style="fill:rgb(230,233,238);"/>
            </g>
        </g>
    </g>
</svg>
