<?xml version="1.0" encoding="UTF-8" standalone="no"?>
<!DOCTYPE svg PUBLIC "-//W3C//DTD SVG 1.1//EN" "http://www.w3.org/Graphics/SVG/1.1/DTD/svg11.dtd">
<svg width="100%" height="100%" viewBox="0 0 137 136" version="1.1" xmlns="http://www.w3.org/2000/svg" xmlns:xlink="http://www.w3.org/1999/xlink" xml:space="preserve" style="fill-rule:evenodd;clip-rule:evenodd;stroke-linejoin:round;stroke-miterlimit:1.41421;">
    <g>
        <circle cx="68.417" cy="68.417" r="63.333" style="fill:rgb(143,131,118);"/>
        <g>
            <g transform="matrix(0.257123,0,0,0.257123,2.90147,3.40688)">
                <path d="M412.6,399L92.4,399C90.8,399 89.5,397.7 89.5,396.1L89.5,108.9C89.5,107.3 90.8,106 92.4,106L412.7,106C414.3,106 415.6,107.3 415.6,108.9L415.6,396.2C415.5,397.7 414.2,399 412.6,399Z" style="fill:rgb(50,74,94);fill-rule:nonzero;"/>
            </g>
            <g transform="matrix(0.257123,0,0,0.257123,2.90147,3.40688)">
                <rect x="111.4" y="184" width="282.1" height="193.1" style="fill:white;"/>
            </g>
            <g transform="matrix(0.257123,0,0,0.257123,2.90147,3.40688)">
                <path d="M380,156.7C373.5,156.7 368.2,151.4 368.2,144.9C368.2,138.4 373.5,133.1 380,133.1C386.5,133.1 391.8,138.4 391.8,144.9C391.8,151.5 386.5,156.7 380,156.7Z" style="fill:rgb(132,219,255);fill-rule:nonzero;"/>
            </g>
            <g transform="matrix(0.257123,0,0,0.257123,2.90147,3.40688)">
                <path d="M341.5,156.7C335,156.7 329.7,151.4 329.7,144.9C329.7,138.4 335,133.1 341.5,133.1C348,133.1 353.3,138.4 353.3,144.9C353.2,151.5 348,156.7 341.5,156.7Z" style="fill:rgb(132,219,255);fill-rule:nonzero;"/>
            </g>
            <g transform="matrix(0.257123,0,0,0.257123,2.90147,3.40688)">
                <path d="M302.9,156.7C296.4,156.7 291.1,151.4 291.1,144.9C291.1,138.4 296.4,133.1 302.9,133.1C309.4,133.1 314.7,138.4 314.7,144.9C314.7,151.5 309.4,156.7 302.9,156.7Z" style="fill:rgb(132,219,255);fill-rule:nonzero;"/>
            </g>
            <g transform="matrix(0.257123,0,0,0.257123,2.90147,3.40688)">
                <path d="M222.2,156.7L123.2,156.7C116.7,156.7 111.4,151.4 111.4,144.9C111.4,138.4 116.7,133.1 123.2,133.1L222.2,133.1C228.7,133.1 234,138.4 234,144.9C233.9,151.5 228.7,156.7 222.2,156.7Z" style="fill:white;fill-rule:nonzero;"/>
            </g>
            <g transform="matrix(0.257123,0,0,0.257123,2.90147,3.40688)">
                <rect x="154.2" y="240.9" width="196.6" height="9.5" style="fill:rgb(230,233,238);"/>
            </g>
            <g transform="matrix(0.257123,0,0,0.257123,2.90147,3.40688)">
                <rect x="154.2" y="275.8" width="196.6" height="9.5" style="fill:rgb(230,233,238);"/>
            </g>
            <g transform="matrix(0.257123,0,0,0.257123,2.90147,3.40688)">
                <rect x="154.2" y="310.6" width="99.7" height="9.5" style="fill:rgb(230,233,238);"/>
            </g>
        </g>
        <g>
            <circle cx="92.805" cy="100.77" r="15.25" style="fill:rgb(218,31,38);"/>
            <g>
                <g>
                    <path d="M101.26,98.127C101.26,93.326 97.446,88.96 92.741,88.96C88.036,88.96 84.222,93.325 84.222,98.127L86.427,98.127C86.427,94.567 89.252,91.211 92.74,91.211C96.227,91.211 99.053,94.567 99.053,98.127L101.26,98.127Z" style="fill:rgb(244,224,40);fill-rule:nonzero;"/>
                    <path d="M101.266,108.873C101.266,109.878 100.433,110.694 99.404,110.694L86.064,110.694C85.039,110.694 84.204,109.878 84.204,108.873L84.204,98.095C84.204,97.089 101.267,97.089 101.267,98.095L101.267,108.873L101.266,108.873Z" style="fill:rgb(244,224,40);fill-rule:nonzero;"/>
                    <path d="M94.707,102.461C94.707,101.411 93.854,100.56 92.806,100.56C91.756,100.56 90.904,101.411 90.904,102.461C90.904,103.263 91.4,103.946 92.1,104.226L92.1,105.98C92.1,106.352 92.402,106.654 92.774,106.654C93.146,106.654 93.448,106.352 93.448,105.98L93.448,104.25C94.18,103.986 94.707,103.286 94.707,102.461Z" style="fill:rgb(218,196,37);fill-rule:nonzero;"/>
                    <path d="M90.832,102.461C90.832,101.411 91.685,100.56 92.734,100.56C92.734,100.56 91.409,101.443 91.409,102.494C91.409,103.564 92.409,104.199 92.409,104.199L92.409,106C92.409,106.372 92.765,106.654 92.765,106.654C92.394,106.654 92.092,106.352 92.092,105.98L92.092,104.25C91.358,103.986 90.832,103.286 90.832,102.461Z" style="fill:rgb(208,184,43);fill-rule:nonzero;"/>
                </g>
                <path d="M98.161,110.694L95.785,110.694L95.785,97.384L98.161,97.502L98.161,110.694Z" style="fill:rgb(248,227,73);fill-rule:nonzero;"/>
                <path d="M95.785,89.597L95.785,92.12C96.765,92.742 97.586,93.643 98.161,94.695L98.161,91.14C97.457,90.497 96.654,89.971 95.785,89.597Z" style="fill:rgb(248,227,73);fill-rule:nonzero;"/>
            </g>
        </g>
    </g>
</svg>
