<?xml version="1.0" encoding="UTF-8" standalone="no"?>
<!DOCTYPE svg PUBLIC "-//W3C//DTD SVG 1.1//EN" "http://www.w3.org/Graphics/SVG/1.1/DTD/svg11.dtd">
<svg width="100%" height="100%" viewBox="0 0 137 136" version="1.1" xmlns="http://www.w3.org/2000/svg" xmlns:xlink="http://www.w3.org/1999/xlink" xml:space="preserve" style="fill-rule:evenodd;clip-rule:evenodd;stroke-linejoin:round;stroke-miterlimit:1.41421;">
    <g>
        <circle cx="68.417" cy="68.417" r="63.333" style="fill:rgb(247,152,29);"/>
        <g>
            <g transform="matrix(0.257123,0,0,0.257123,2.90147,3.40688)">
                <path d="M412.6,399L92.4,399C90.8,399 89.5,397.7 89.5,396.1L89.5,108.9C89.5,107.3 90.8,106 92.4,106L412.7,106C414.3,106 415.6,107.3 415.6,108.9L415.6,396.2C415.5,397.7 414.2,399 412.6,399Z" style="fill:rgb(50,74,94);fill-rule:nonzero;"/>
            </g>
            <g transform="matrix(0.257123,0,0,0.257123,2.90147,3.40688)">
                <rect x="111.4" y="184" width="282.1" height="193.1" style="fill:white;"/>
            </g>
            <g transform="matrix(0.257123,0,0,0.257123,2.90147,3.40688)">
                <path d="M380,156.7C373.5,156.7 368.2,151.4 368.2,144.9C368.2,138.4 373.5,133.1 380,133.1C386.5,133.1 391.8,138.4 391.8,144.9C391.8,151.5 386.5,156.7 380,156.7Z" style="fill:rgb(132,219,255);fill-rule:nonzero;"/>
            </g>
            <g transform="matrix(0.257123,0,0,0.257123,2.90147,3.40688)">
                <path d="M341.5,156.7C335,156.7 329.7,151.4 329.7,144.9C329.7,138.4 335,133.1 341.5,133.1C348,133.1 353.3,138.4 353.3,144.9C353.2,151.5 348,156.7 341.5,156.7Z" style="fill:rgb(132,219,255);fill-rule:nonzero;"/>
            </g>
            <g transform="matrix(0.257123,0,0,0.257123,2.90147,3.40688)">
                <path d="M302.9,156.7C296.4,156.7 291.1,151.4 291.1,144.9C291.1,138.4 296.4,133.1 302.9,133.1C309.4,133.1 314.7,138.4 314.7,144.9C314.7,151.5 309.4,156.7 302.9,156.7Z" style="fill:rgb(132,219,255);fill-rule:nonzero;"/>
            </g>
            <g transform="matrix(0.257123,0,0,0.257123,2.90147,3.40688)">
                <path d="M222.2,156.7L123.2,156.7C116.7,156.7 111.4,151.4 111.4,144.9C111.4,138.4 116.7,133.1 123.2,133.1L222.2,133.1C228.7,133.1 234,138.4 234,144.9C233.9,151.5 228.7,156.7 222.2,156.7Z" style="fill:white;fill-rule:nonzero;"/>
            </g>
            <g transform="matrix(0.257123,0,0,0.257123,2.90147,3.40688)">
                <rect x="154.2" y="240.9" width="196.6" height="9.5" style="fill:rgb(230,233,238);"/>
            </g>
            <g transform="matrix(0.257123,0,0,0.257123,2.90147,3.40688)">
                <rect x="154.2" y="275.8" width="196.6" height="9.5" style="fill:rgb(230,233,238);"/>
            </g>
            <g transform="matrix(0.257123,0,0,0.257123,2.90147,3.40688)">
                <rect x="154.2" y="310.6" width="99.7" height="9.5" style="fill:rgb(230,233,238);"/>
            </g>
        </g>
        <g>
            <circle cx="92.805" cy="100.769" r="15.25" style="fill:rgb(247,206,40);"/>
            <g>
                <path d="M101.057,92.47L86.936,100.298L86.213,100.974L93.178,107.605L93.676,107.041L101.057,92.47Z" style="fill:rgb(247,217,139);fill-rule:nonzero;"/>
                <path d="M101.1,92.388L94.938,95.814L97.887,98.763L101.1,92.388Z" style="fill:rgb(98,100,99);fill-rule:nonzero;"/>
                <g>
                    <path d="M93.804,106.011L91.703,106.132L84.356,113.472C84.957,113.87 85.591,114.216 86.248,114.529L93.178,107.605L93.804,106.011Z" style="fill:rgb(232,72,73);fill-rule:nonzero;"/>
                    <path d="M81.875,111.41L89.433,103.859L89.526,101.732L87.481,101.908L80.122,109.262C80.638,110.031 81.229,110.748 81.875,111.41Z" style="fill:rgb(232,72,73);fill-rule:nonzero;"/>
                    <path d="M87.481,101.908L87.769,99.974L86.373,100.798L79.297,107.868C79.549,108.347 79.821,108.813 80.122,109.261L87.481,101.908Z" style="fill:rgb(240,102,104);fill-rule:nonzero;"/>
                    <path d="M84.357,113.472L91.704,106.132L91.678,103.884L89.434,103.859L81.876,111.41C82.627,112.179 83.458,112.873 84.357,113.472Z" style="fill:rgb(240,102,104);fill-rule:nonzero;"/>
                </g>
            </g>
        </g>
    </g>
</svg>
