<?xml version="1.0" encoding="UTF-8" standalone="no"?>
<!DOCTYPE svg PUBLIC "-//W3C//DTD SVG 1.1//EN" "http://www.w3.org/Graphics/SVG/1.1/DTD/svg11.dtd">
<svg width="100%" height="100%" viewBox="0 0 137 136" version="1.1" xmlns="http://www.w3.org/2000/svg" xmlns:xlink="http://www.w3.org/1999/xlink" xml:space="preserve" style="fill-rule:evenodd;clip-rule:evenodd;stroke-linejoin:round;stroke-miterlimit:1.41421;">
    <g>
        <circle cx="68.417" cy="68.417" r="63.333" style="fill:rgb(172,195,55);"/>
        <g>
            <g transform="matrix(0.832682,0,0,0.790979,6.03588,3.82052)">
                <g transform="matrix(0.257123,0,0,0.257123,2.90147,3.40688)">
                    <path d="M412.6,399L92.4,399C90.8,399 89.5,397.7 89.5,396.1L89.5,108.9C89.5,107.3 90.8,106 92.4,106L412.7,106C414.3,106 415.6,107.3 415.6,108.9L415.6,396.2C415.5,397.7 414.2,399 412.6,399Z" style="fill:rgb(50,74,94);fill-rule:nonzero;"/>
                </g>
                <g transform="matrix(0.257123,0,0,0.257123,2.90147,3.40688)">
                    <rect x="111.4" y="184" width="282.1" height="193.1" style="fill:white;"/>
                </g>
                <g transform="matrix(0.257123,0,0,0.257123,2.90147,3.40688)">
                    <path d="M380,156.7C373.5,156.7 368.2,151.4 368.2,144.9C368.2,138.4 373.5,133.1 380,133.1C386.5,133.1 391.8,138.4 391.8,144.9C391.8,151.5 386.5,156.7 380,156.7Z" style="fill:rgb(132,219,255);fill-rule:nonzero;"/>
                </g>
                <g transform="matrix(0.257123,0,0,0.257123,2.90147,3.40688)">
                    <path d="M341.5,156.7C335,156.7 329.7,151.4 329.7,144.9C329.7,138.4 335,133.1 341.5,133.1C348,133.1 353.3,138.4 353.3,144.9C353.2,151.5 348,156.7 341.5,156.7Z" style="fill:rgb(132,219,255);fill-rule:nonzero;"/>
                </g>
                <g transform="matrix(0.257123,0,0,0.257123,2.90147,3.40688)">
                    <path d="M302.9,156.7C296.4,156.7 291.1,151.4 291.1,144.9C291.1,138.4 296.4,133.1 302.9,133.1C309.4,133.1 314.7,138.4 314.7,144.9C314.7,151.5 309.4,156.7 302.9,156.7Z" style="fill:rgb(132,219,255);fill-rule:nonzero;"/>
                </g>
                <g transform="matrix(0.257123,0,0,0.257123,2.90147,3.40688)">
                    <path d="M222.2,156.7L123.2,156.7C116.7,156.7 111.4,151.4 111.4,144.9C111.4,138.4 116.7,133.1 123.2,133.1L222.2,133.1C228.7,133.1 234,138.4 234,144.9C233.9,151.5 228.7,156.7 222.2,156.7Z" style="fill:white;fill-rule:nonzero;"/>
                </g>
                <g transform="matrix(0.257123,0,0,0.257123,2.90147,3.40688)">
                    <rect x="154.2" y="240.9" width="196.6" height="9.5" style="fill:rgb(230,233,238);"/>
                </g>
                <g transform="matrix(0.257123,0,0,0.257123,2.90147,3.40688)">
                    <rect x="154.2" y="275.8" width="196.6" height="9.5" style="fill:rgb(230,233,238);"/>
                </g>
                <g transform="matrix(0.257123,0,0,0.257123,2.90147,3.40688)">
                    <rect x="154.2" y="310.6" width="99.7" height="9.5" style="fill:rgb(230,233,238);"/>
                </g>
            </g>
            <g transform="matrix(0.832682,0,0,0.790979,16.2173,24.2305)">
                <g transform="matrix(0.257123,0,0,0.257123,2.90147,3.40688)">
                    <path d="M412.6,399L92.4,399C90.8,399 89.5,397.7 89.5,396.1L89.5,108.9C89.5,107.3 90.8,106 92.4,106L412.7,106C414.3,106 415.6,107.3 415.6,108.9L415.6,396.2C415.5,397.7 414.2,399 412.6,399Z" style="fill:rgb(50,74,94);fill-rule:nonzero;"/>
                </g>
                <g transform="matrix(0.257123,0,0,0.257123,2.90147,3.40688)">
                    <rect x="111.4" y="184" width="282.1" height="193.1" style="fill:white;"/>
                </g>
                <g transform="matrix(0.257123,0,0,0.257123,2.90147,3.40688)">
                    <path d="M380,156.7C373.5,156.7 368.2,151.4 368.2,144.9C368.2,138.4 373.5,133.1 380,133.1C386.5,133.1 391.8,138.4 391.8,144.9C391.8,151.5 386.5,156.7 380,156.7Z" style="fill:rgb(132,219,255);fill-rule:nonzero;"/>
                </g>
                <g transform="matrix(0.257123,0,0,0.257123,2.90147,3.40688)">
                    <path d="M341.5,156.7C335,156.7 329.7,151.4 329.7,144.9C329.7,138.4 335,133.1 341.5,133.1C348,133.1 353.3,138.4 353.3,144.9C353.2,151.5 348,156.7 341.5,156.7Z" style="fill:rgb(132,219,255);fill-rule:nonzero;"/>
                </g>
                <g transform="matrix(0.257123,0,0,0.257123,2.90147,3.40688)">
                    <path d="M302.9,156.7C296.4,156.7 291.1,151.4 291.1,144.9C291.1,138.4 296.4,133.1 302.9,133.1C309.4,133.1 314.7,138.4 314.7,144.9C314.7,151.5 309.4,156.7 302.9,156.7Z" style="fill:rgb(132,219,255);fill-rule:nonzero;"/>
                </g>
                <g transform="matrix(0.257123,0,0,0.257123,2.90147,3.40688)">
                    <path d="M222.2,156.7L123.2,156.7C116.7,156.7 111.4,151.4 111.4,144.9C111.4,138.4 116.7,133.1 123.2,133.1L222.2,133.1C228.7,133.1 234,138.4 234,144.9C233.9,151.5 228.7,156.7 222.2,156.7Z" style="fill:white;fill-rule:nonzero;"/>
                </g>
                <g transform="matrix(0.257123,0,0,0.257123,2.90147,3.40688)">
                    <rect x="154.2" y="240.9" width="196.6" height="9.5" style="fill:rgb(230,233,238);"/>
                </g>
                <g transform="matrix(0.257123,0,0,0.257123,2.90147,3.40688)">
                    <rect x="154.2" y="275.8" width="196.6" height="9.5" style="fill:rgb(230,233,238);"/>
                </g>
                <g transform="matrix(0.257123,0,0,0.257123,2.90147,3.40688)">
                    <rect x="154.2" y="310.6" width="99.7" height="9.5" style="fill:rgb(230,233,238);"/>
                </g>
            </g>
        </g>
        <g>
            <circle cx="92.805" cy="100.77" r="15.25" style="fill:rgb(73,160,174);"/>
            <path d="M82.94,103.166C85.717,105.943 88.493,108.719 91.27,111.497C92.107,112.334 93.5,112.311 94.331,111.48C97.108,108.704 99.888,105.926 102.662,103.149C104.635,101.176 101.562,98.128 99.587,100.104C96.811,102.881 94.032,105.659 91.254,108.436C92.273,108.431 93.295,108.425 94.317,108.419C91.54,105.643 88.762,102.865 85.985,100.087C84.013,98.117 80.964,101.188 82.94,103.166Z" style="fill:white;fill-rule:nonzero;"/>
            <g>
                <path d="M92.794,109.512L92.794,92.318" style="fill:white;fill-rule:nonzero;"/>
                <path d="M94.958,109.527C94.958,102.955 94.958,98.906 94.958,92.334C94.958,89.539 90.629,89.514 90.629,92.302C90.629,98.876 90.629,102.923 90.629,109.496C90.629,112.292 94.958,112.316 94.958,109.527Z" style="fill:white;fill-rule:nonzero;"/>
            </g>
        </g>
    </g>
</svg>
