<?xml version="1.0" encoding="UTF-8" standalone="no"?>
<!DOCTYPE svg PUBLIC "-//W3C//DTD SVG 1.1//EN" "http://www.w3.org/Graphics/SVG/1.1/DTD/svg11.dtd">
<svg width="100%" height="100%" viewBox="0 0 137 137" version="1.1" xmlns="http://www.w3.org/2000/svg" xmlns:xlink="http://www.w3.org/1999/xlink" xml:space="preserve" style="fill-rule:evenodd;clip-rule:evenodd;stroke-linejoin:round;stroke-miterlimit:1.41421;">
    <g>
        <path d="M5.124,68.458C5.124,33.476 33.479,5.124 68.456,5.124C103.435,5.124 131.79,33.476 131.79,68.458C131.79,103.433 103.435,131.79 68.456,131.79C33.479,131.79 5.124,103.433 5.124,68.458Z" style="fill:rgb(110,194,203);fill-rule:nonzero;"/>
        <path d="M105.659,65.897C104.259,65.897 102.919,66.161 101.663,66.629C100.268,56.918 92.649,49.494 83.454,49.494C80.462,49.494 77.638,50.289 75.138,51.685C71.154,44.693 64.101,40.042 56.06,40.042C45.73,40.042 37.044,47.726 34.388,58.185C26.79,59.783 21.046,67.136 21.046,75.98C21.046,85.992 28.401,94.107 37.474,94.107C38.486,94.107 39.47,93.994 40.433,93.8C40.804,93.863 41.183,93.905 41.572,93.905L104.177,93.905C104.993,93.905 105.779,93.76 106.515,93.497C113.035,93.009 118.189,87.038 118.189,79.72C118.188,72.087 112.579,65.897 105.659,65.897Z" style="fill:white;fill-rule:nonzero;"/>
        <g>
            <path d="M69.698,33.427L69.698,66.679" style="fill:rgb(74,188,150);fill-rule:nonzero;"/>
            <path d="M87.677,63.928C84.185,63.928 80.693,63.928 77.2,63.928C77.2,53.779 77.2,43.63 77.2,33.481C77.2,23.794 62.196,23.709 62.196,33.373C62.196,43.558 62.196,53.744 62.196,63.929C58.864,63.929 55.532,63.929 52.2,63.929C52.127,63.93 52.055,63.937 51.983,63.948C51.209,64.016 50.706,64.481 50.482,65.069C50.192,65.651 50.199,66.361 50.707,66.977C50.77,67.066 50.844,67.148 50.925,67.224C56.815,73.113 62.704,79.003 68.595,84.892C69.32,85.617 70.527,85.598 71.246,84.878C77.163,78.96 83.079,73.042 88.996,67.124C90.141,65.978 89.299,63.928 87.677,63.928Z" style="fill:rgb(110,194,203);fill-rule:nonzero;"/>
        </g>
    </g>
</svg>
