<?xml version="1.0" encoding="UTF-8" standalone="no"?>
<!DOCTYPE svg PUBLIC "-//W3C//DTD SVG 1.1//EN" "http://www.w3.org/Graphics/SVG/1.1/DTD/svg11.dtd">
<svg width="100%" height="100%" viewBox="0 0 137 137" version="1.1" xmlns="http://www.w3.org/2000/svg" xmlns:xlink="http://www.w3.org/1999/xlink" xml:space="preserve" style="fill-rule:evenodd;clip-rule:evenodd;stroke-linejoin:round;stroke-miterlimit:1.41421;">
    <g>
        <circle cx="68.417" cy="68.417" r="63.333" style="fill:rgb(31,168,91);"/>
        <g>
            <path d="M69.742,17.267C55.373,17.267 43.724,28.915 43.724,43.284C43.724,57.653 55.372,69.303 69.742,69.303C84.112,69.303 95.76,57.653 95.76,43.284C95.76,28.916 84.111,17.267 69.742,17.267ZM69.742,34.16C66.846,34.16 64.5,31.812 64.5,28.916C64.5,26.02 66.846,23.674 69.742,23.674C72.638,23.674 74.984,26.02 74.984,28.916C74.984,31.812 72.639,34.16 69.742,34.16Z" style="fill:rgb(215,181,40);fill-rule:nonzero;"/>
            <g>
                <path d="M60.486,51.712L60.486,114.676C60.486,114.885 60.556,115.084 60.683,115.226L65.542,120.678C65.651,120.806 65.8,120.872 65.95,120.872C65.97,120.872 65.989,120.872 66.005,120.868C66.177,120.852 66.331,120.747 66.435,120.579L73.519,109.177C73.662,108.95 73.685,108.642 73.576,108.385L70.406,100.862L70.406,97.716L72.775,95.708C72.923,95.578 73.019,95.378 73.035,95.155L73.619,86.344L79.242,81.834C79.412,81.698 79.515,81.463 79.515,81.213L79.515,51.893L60.486,51.712Z" style="fill:rgb(215,181,40);fill-rule:nonzero;"/>
                <path d="M69.742,17.267L69.536,23.694C69.606,23.692 69.672,23.673 69.742,23.673C72.638,23.673 74.984,26.019 74.984,28.915C74.984,31.811 72.638,34.159 69.742,34.159C69.557,34.159 69.383,34.123 69.203,34.105L66.435,120.579L73.519,109.177C73.662,108.95 73.685,108.642 73.576,108.385L70.406,100.862L70.406,97.716L72.775,95.708C72.923,95.578 73.019,95.378 73.035,95.155L73.619,86.344L79.242,81.834C79.412,81.698 79.515,81.463 79.515,81.213L79.515,67.397C89.04,63.532 95.76,54.195 95.76,43.284C95.76,28.916 84.111,17.267 69.742,17.267Z" style="fill:rgb(232,198,56);fill-rule:nonzero;"/>
                <g>
                    <circle cx="69.742" cy="28.917" r="5.243" style="fill:none;"/>
                    <path d="M64.715,119.751L65.543,120.678C65.652,120.806 65.801,120.872 65.951,120.872C65.971,120.872 65.99,120.872 66.006,120.868C66.115,120.858 66.213,120.8 66.301,120.723L66.301,69.069C65.768,68.998 65.238,68.915 64.715,68.812L64.715,119.751Z" style="fill:rgb(179,147,47);fill-rule:nonzero;"/>
                    <path d="M73.859,86.153L75.447,84.881L75.447,68.667C74.923,68.784 74.394,68.89 73.859,68.975L73.859,86.153Z" style="fill:rgb(179,147,47);fill-rule:nonzero;"/>
                </g>
            </g>
        </g>
    </g>
</svg>
