<?xml version="1.0" encoding="UTF-8" standalone="no"?>
<!DOCTYPE svg PUBLIC "-//W3C//DTD SVG 1.1//EN" "http://www.w3.org/Graphics/SVG/1.1/DTD/svg11.dtd">
<svg width="100%" height="100%" viewBox="0 0 137 137" version="1.1" xmlns="http://www.w3.org/2000/svg" xmlns:xlink="http://www.w3.org/1999/xlink" xml:space="preserve" style="fill-rule:evenodd;clip-rule:evenodd;stroke-linejoin:round;stroke-miterlimit:1.41421;">
    <g>
        <circle cx="68.416" cy="68.417" r="63.333" style="fill:rgb(74,188,150);"/>
        <g>
            <path d="M110.415,50.466L69.011,29.771L28.157,50.466C28.157,51.022 28.157,54.442 28.157,54.997L69.561,77.121L110.415,54.997C110.415,54.44 110.415,51.022 110.415,50.466Z" style="fill:rgb(183,202,196);fill-rule:nonzero;"/>
            <path d="M110.415,52.799L69.011,32.104L28.157,52.799C28.157,53.355 28.157,56.775 28.157,57.33L69.561,79.454L110.415,57.33C110.415,56.773 110.415,53.355 110.415,52.799Z" style="fill:rgb(225,225,225);fill-rule:nonzero;"/>
            <g>
                <path d="M48.017,27.597C46.533,27.597 45.331,28.799 45.331,30.282L45.331,84.112C45.331,85.594 46.532,86.797 48.017,86.797L88.288,86.797C89.774,86.797 90.976,85.594 90.976,84.112L90.976,37.899L80.452,27.597L48.017,27.597Z" style="fill:white;fill-rule:nonzero;"/>
                <path d="M90.976,37.899L84.775,37.899C82.357,37.899 80.4,35.941 80.4,33.525L80.453,27.595L90.976,37.899Z" style="fill:rgb(219,219,218);fill-rule:nonzero;"/>
                <path d="M85.136,43.605C85.136,44.354 84.529,44.96 83.779,44.96L52.124,44.96C51.376,44.96 50.769,44.354 50.769,43.605C50.769,42.856 51.376,42.249 52.124,42.249L83.778,42.249C84.528,42.249 85.136,42.856 85.136,43.605Z" style="fill:rgb(183,202,196);fill-rule:nonzero;"/>
                <path d="M85.136,49.444C85.136,50.193 84.529,50.799 83.779,50.799L52.124,50.799C51.376,50.799 50.769,50.193 50.769,49.444C50.769,48.694 51.376,48.088 52.124,48.088L83.778,48.088C84.528,48.088 85.136,48.694 85.136,49.444Z" style="fill:rgb(183,202,196);fill-rule:nonzero;"/>
                <path d="M85.136,55.499C85.136,56.248 84.529,56.854 83.779,56.854L52.124,56.854C51.376,56.854 50.769,56.248 50.769,55.499C50.769,54.75 51.376,54.143 52.124,54.143L83.778,54.143C84.528,54.143 85.136,54.75 85.136,55.499Z" style="fill:rgb(183,202,196);fill-rule:nonzero;"/>
                <path d="M69.31,61.499C69.31,62.248 68.703,62.854 67.953,62.854L52.124,62.854C51.376,62.854 50.769,62.248 50.769,61.499C50.769,60.75 51.376,60.143 52.124,60.143L67.952,60.143C68.702,60.143 69.31,60.75 69.31,61.499Z" style="fill:rgb(183,202,196);fill-rule:nonzero;"/>
            </g>
            <path d="M28.163,56.982L28.157,96.057C28.157,98.091 29.809,99.741 31.843,99.741L106.732,99.741C108.767,99.741 110.416,98.091 110.416,96.057L110.348,56.909L69.562,79.311L28.163,56.982" style="fill:rgb(237,237,237);fill-rule:nonzero;"/>
        </g>
    </g>
</svg>
