<?xml version="1.0" encoding="UTF-8" standalone="no"?>
<!DOCTYPE svg PUBLIC "-//W3C//DTD SVG 1.1//EN" "http://www.w3.org/Graphics/SVG/1.1/DTD/svg11.dtd">
<svg width="100%" height="100%" viewBox="0 0 137 136" version="1.1" xmlns="http://www.w3.org/2000/svg" xmlns:xlink="http://www.w3.org/1999/xlink" xml:space="preserve" style="fill-rule:evenodd;clip-rule:evenodd;stroke-linejoin:round;stroke-miterlimit:1.41421;">
    <circle cx="68.301" cy="67.849" r="63.333" style="fill:rgb(44,157,216);"/>
    <g>
        <g transform="matrix(0.258783,0,0,0.258783,2.5363,2.59428)">
            <path d="M400.3,221.1C400.8,217.6 401.4,214.2 401.4,210.6C401.4,172 370.1,140.7 331.5,140.7C317.6,140.7 304.6,144.9 293.7,151.9C276.3,115.5 239.5,90.2 196.5,90.2C136.9,90.2 88.5,138.5 88.5,198.2C88.5,207.2 89.9,215.9 92,224.3C68.3,233.3 51.1,257.4 51.1,286.1C51.1,322.4 78.4,351.9 112,351.9L393,351.9C426.7,351.9 453.9,322.5 453.9,286.1C453.9,252.5 430.4,225.1 400.3,221.1Z" style="fill:white;fill-rule:nonzero;"/>
        </g>
        <g transform="matrix(1.39443,0,0,1.27333,33.8942,72.3053)">
            <text x="0px" y="0px" style="font-family:'Arial-BoldMT', 'Arial', sans-serif;font-weight:700;font-size:15.631px;fill:rgb(255,208,91);">TCode</text>
        </g>
    </g>
</svg>
