<?xml version="1.0" encoding="UTF-8" standalone="no"?>
<!DOCTYPE svg PUBLIC "-//W3C//DTD SVG 1.1//EN" "http://www.w3.org/Graphics/SVG/1.1/DTD/svg11.dtd">
<svg width="100%" height="100%" viewBox="0 0 137 136" version="1.1" xmlns="http://www.w3.org/2000/svg" xmlns:xlink="http://www.w3.org/1999/xlink" xml:space="preserve" style="fill-rule:evenodd;clip-rule:evenodd;stroke-linejoin:round;stroke-miterlimit:1.41421;">
    <g>
        <circle cx="68.417" cy="68.417" r="63.333" style="fill:rgb(218,31,38);"/>
        <g transform="matrix(0.565611,0,0,0.565611,-133.979,-40.3873)">
            <circle cx="358" cy="192.4" r="88.4" style="fill:rgb(88,106,255);"/>
            <circle cx="358" cy="192.4" r="74.4" style="fill:white;"/>
            <rect x="355.2" y="128" width="5.2" height="10.8" style="fill:rgb(230,233,238);"/>
            <rect x="355.2" y="246" width="5.2" height="10.8" style="fill:rgb(230,233,238);"/>
            <rect x="411.6" y="190" width="10.8" height="5.2" style="fill:rgb(230,233,238);"/>
            <rect x="293.2" y="190" width="10.8" height="5.2" style="fill:rgb(230,233,238);"/>
            <g transform="matrix(0.7071,0.7071,-0.7071,0.7071,223.705,-238.546)">
                <rect x="397.203" y="145.363" width="5.2" height="10.8" style="fill:rgb(230,233,238);"/>
            </g>
            <g transform="matrix(0.7071,0.7071,-0.7071,0.7071,258.24,-154.899)">
                <rect x="313.499" y="228.874" width="5.2" height="10.8" style="fill:rgb(230,233,238);"/>
            </g>
            <g transform="matrix(-0.7071,0.7071,-0.7071,-0.7071,847.347,117.412)">
                <rect x="396.757" y="228.797" width="5.2" height="10.8" style="fill:rgb(230,233,238);"/>
            </g>
            <g transform="matrix(-0.7071,0.7071,-0.7071,-0.7071,645.935,33.7976)">
                <rect x="313.368" y="145.276" width="5.2" height="10.8" style="fill:rgb(230,233,238);"/>
            </g>
            <path d="M358,194.9C356.6,194.9 355.5,193.8 355.5,192.4L355.5,153.6C355.5,152.2 356.6,151.1 358,151.1C359.4,151.1 360.5,152.2 360.5,153.6L360.5,192.4C360.5,193.8 359.4,194.9 358,194.9Z" style="fill:rgb(50,74,94);fill-rule:nonzero;"/>
            <path d="M377.2,214.1C376.6,214.1 375.9,213.9 375.4,213.4L356.2,194.2C355.2,193.2 355.2,191.6 356.2,190.7C357.2,189.7 358.8,189.7 359.7,190.7L378.9,209.9C379.9,210.9 379.9,212.5 378.9,213.4C378.5,213.9 377.8,214.1 377.2,214.1Z" style="fill:rgb(50,74,94);fill-rule:nonzero;"/>
            <circle cx="358" cy="192.4" r="8.4" style="fill:rgb(255,112,88);"/>
        </g>
        <g>
            <g transform="matrix(0.0993049,0,0,0.0993049,74.5217,71.3737)">
                <path d="M400.3,221.1C400.8,217.6 401.4,214.2 401.4,210.6C401.4,172 370.1,140.7 331.5,140.7C317.6,140.7 304.6,144.9 293.7,151.9C276.3,115.5 239.5,90.2 196.5,90.2C136.9,90.2 88.5,138.5 88.5,198.2C88.5,207.2 89.9,215.9 92,224.3C68.3,233.3 51.1,257.4 51.1,286.1C51.1,322.4 78.4,351.9 112,351.9L393,351.9C426.7,351.9 453.9,322.5 453.9,286.1C453.9,252.5 430.4,225.1 400.3,221.1Z" style="fill:rgb(183,222,238);fill-rule:nonzero;"/>
            </g>
            <g transform="matrix(0.535096,0,0,0.488625,86.5549,98.1245)">
                <text x="0px" y="0px" style="font-family:'Arial-BoldMT', 'Arial', sans-serif;font-weight:700;font-size:15.631px;fill:white;">TCode</text>
            </g>
        </g>
    </g>
</svg>
