<?xml version="1.0" encoding="UTF-8" standalone="no"?>
<!DOCTYPE svg PUBLIC "-//W3C//DTD SVG 1.1//EN" "http://www.w3.org/Graphics/SVG/1.1/DTD/svg11.dtd">
<svg width="100%" height="100%" viewBox="0 0 137 136" version="1.1" xmlns="http://www.w3.org/2000/svg" xmlns:xlink="http://www.w3.org/1999/xlink" xml:space="preserve" style="fill-rule:evenodd;clip-rule:evenodd;stroke-linejoin:round;stroke-miterlimit:1.41421;">
    <g>
        <g>
            <circle cx="92.805" cy="100.769" r="15.25" style="fill:rgb(73,160,174);"/>
            <path d="M101.12,97.839L101.058,97.839C100.921,97.419 100.749,97.013 100.551,96.622L100.593,96.577C101.331,95.841 101.285,94.491 100.34,93.548L99.772,92.972C98.821,92.027 97.531,91.923 96.739,92.72L96.698,92.761C96.307,92.564 95.891,92.396 95.474,92.255L95.474,92.196C95.474,91.155 94.485,90.231 93.153,90.231L92.34,90.231C91.002,90.231 90.013,91.065 90.013,92.196L90.013,92.255C89.596,92.396 89.186,92.564 88.796,92.761L88.756,92.72C88.126,92.099 86.672,92.027 85.722,92.972L85.153,93.548C84.208,94.491 84.217,95.898 84.894,96.577L84.942,96.622C84.744,97.013 84.573,97.419 84.436,97.839L84.373,97.839C83.492,97.839 82.408,98.825 82.408,100.161L82.408,100.977C82.408,102.311 83.417,103.295 84.373,103.295L84.436,103.295C84.573,103.719 84.744,104.125 84.942,104.516L84.894,104.557C84.272,105.182 84.207,106.647 85.153,107.59L85.722,108.166C86.672,109.111 88.078,109.096 88.756,108.418L88.796,108.377C89.186,108.576 89.596,108.742 90.013,108.879L90.013,108.938C90.013,109.819 91.002,110.907 92.34,110.907L93.153,110.907C94.485,110.907 95.474,109.903 95.474,108.938L95.474,108.883C95.891,108.742 96.307,108.576 96.698,108.377L96.739,108.418C97.476,109.156 98.821,109.111 99.772,108.166L100.34,107.59C101.285,106.647 101.393,105.358 100.593,104.557L100.551,104.516C100.749,104.125 100.921,103.719 101.058,103.295L101.12,103.295C102.165,103.295 103.085,102.311 103.085,100.977L103.085,100.161C103.085,98.826 102.247,97.839 101.12,97.839ZM92.747,106.259C89.607,106.259 87.058,103.714 87.058,100.57C87.058,97.426 89.608,94.877 92.747,94.877C95.888,94.877 98.436,97.426 98.436,100.57C98.436,103.714 95.888,106.259 92.747,106.259Z" style="fill:rgb(158,216,216);fill-rule:nonzero;"/>
        </g>
    </g>
</svg>
