<?xml version="1.0" encoding="UTF-8" standalone="no"?>
<!DOCTYPE svg PUBLIC "-//W3C//DTD SVG 1.1//EN" "http://www.w3.org/Graphics/SVG/1.1/DTD/svg11.dtd">
<svg width="100%" height="100%" viewBox="0 0 137 137" version="1.1" xmlns="http://www.w3.org/2000/svg" xmlns:xlink="http://www.w3.org/1999/xlink" xml:space="preserve" style="fill-rule:evenodd;clip-rule:evenodd;stroke-linejoin:round;stroke-miterlimit:1.41421;">
    <g>
        <circle cx="68.417" cy="68.417" r="63.333" style="fill:rgb(162,212,222);"/>
        <g>
            <g>
                <path d="M61.414,63.762L40.628,63.762L40.628,24.952C40.628,23.545 41.769,22.405 43.174,22.405L58.867,22.405C60.272,22.405 61.413,23.545 61.413,24.952L61.413,63.762L61.414,63.762Z" style="fill:rgb(152,200,208);fill-rule:nonzero;"/>
                <path d="M40.628,24.952C40.628,23.545 41.769,22.405 43.174,22.405L58.867,22.405C60.272,22.405 61.413,23.545 61.413,24.952L40.628,24.952Z" style="fill:rgb(139,190,195);fill-rule:nonzero;"/>
                <path d="M44.293,62.852C44.122,62.852 43.983,62.715 43.983,62.543L43.983,60.633C43.983,60.463 44.122,60.323 44.293,60.323L48.704,60.323C48.876,60.323 49.015,60.463 49.015,60.633L49.015,62.543C49.015,62.715 48.876,62.852 48.704,62.852L44.293,62.852Z" style="fill:rgb(225,224,224);fill-rule:nonzero;"/>
                <path d="M53.337,62.852C53.167,62.852 53.028,62.715 53.028,62.543L53.028,60.633C53.028,60.463 53.167,60.323 53.337,60.323L57.75,60.323C57.919,60.323 58.058,60.463 58.058,60.633L58.058,62.543C58.058,62.715 57.919,62.852 57.75,62.852L53.337,62.852Z" style="fill:rgb(225,224,224);fill-rule:nonzero;"/>
                <g>
                    <path d="M53.337,57.763C53.167,57.763 53.028,57.625 53.028,57.453L53.028,55.543C53.028,55.373 53.167,55.234 53.337,55.234L54.462,55.234C54.632,55.234 54.772,55.373 54.772,55.543L54.772,57.453C54.772,57.625 54.632,57.763 54.462,57.763L53.337,57.763Z" style="fill:rgb(225,224,224);fill-rule:nonzero;"/>
                    <path d="M56.625,57.763C56.454,57.763 56.316,57.625 56.316,57.453L56.316,55.543C56.316,55.373 56.454,55.234 56.625,55.234L57.751,55.234C57.92,55.234 58.059,55.373 58.059,55.543L58.059,57.453C58.059,57.625 57.92,57.763 57.751,57.763L56.625,57.763Z" style="fill:rgb(225,224,224);fill-rule:nonzero;"/>
                    <path d="M44.289,57.763C44.118,57.763 43.978,57.625 43.978,57.453L43.978,55.543C43.978,55.373 44.118,55.234 44.289,55.234L45.413,55.234C45.584,55.234 45.723,55.373 45.723,55.543L45.723,57.453C45.723,57.625 45.584,57.763 45.413,57.763L44.289,57.763Z" style="fill:rgb(225,224,224);fill-rule:nonzero;"/>
                    <path d="M47.576,57.763C47.407,57.763 47.266,57.625 47.266,57.453L47.266,55.543C47.266,55.373 47.407,55.234 47.576,55.234L48.701,55.234C48.872,55.234 49.012,55.373 49.012,55.543L49.012,57.453C49.012,57.625 48.872,57.763 48.701,57.763L47.576,57.763Z" style="fill:rgb(225,224,224);fill-rule:nonzero;"/>
                </g>
                <g>
                    <path d="M53.337,51.188C53.167,51.188 53.028,51.049 53.028,50.879L53.028,48.969C53.028,48.799 53.167,48.659 53.337,48.659L54.462,48.659C54.632,48.659 54.772,48.799 54.772,48.969L54.772,50.879C54.772,51.049 54.632,51.188 54.462,51.188L53.337,51.188Z" style="fill:rgb(225,224,224);fill-rule:nonzero;"/>
                    <path d="M56.625,51.188C56.454,51.188 56.316,51.049 56.316,50.879L56.316,48.969C56.316,48.799 56.454,48.659 56.625,48.659L57.751,48.659C57.92,48.659 58.059,48.799 58.059,48.969L58.059,50.879C58.059,51.049 57.92,51.188 57.751,51.188L56.625,51.188Z" style="fill:rgb(225,224,224);fill-rule:nonzero;"/>
                    <path d="M44.289,51.188C44.118,51.188 43.978,51.049 43.978,50.879L43.978,48.969C43.978,48.799 44.118,48.659 44.289,48.659L45.413,48.659C45.584,48.659 45.723,48.799 45.723,48.969L45.723,50.879C45.723,51.049 45.584,51.188 45.413,51.188L44.289,51.188Z" style="fill:rgb(225,224,224);fill-rule:nonzero;"/>
                    <path d="M47.576,51.188C47.407,51.188 47.266,51.049 47.266,50.879L47.266,48.969C47.266,48.799 47.407,48.659 47.576,48.659L48.701,48.659C48.872,48.659 49.012,48.799 49.012,48.969L49.012,50.879C49.012,51.049 48.872,51.188 48.701,51.188L47.576,51.188Z" style="fill:rgb(225,224,224);fill-rule:nonzero;"/>
                </g>
                <g>
                    <path d="M53.337,44.614C53.167,44.614 53.028,44.473 53.028,44.304L53.028,42.395C53.028,42.225 53.167,42.084 53.337,42.084L54.462,42.084C54.632,42.084 54.772,42.225 54.772,42.395L54.772,44.304C54.772,44.473 54.632,44.614 54.462,44.614L53.337,44.614Z" style="fill:rgb(225,224,224);fill-rule:nonzero;"/>
                    <path d="M56.625,44.614C56.454,44.614 56.316,44.473 56.316,44.304L56.316,42.395C56.316,42.225 56.454,42.084 56.625,42.084L57.751,42.084C57.92,42.084 58.059,42.225 58.059,42.395L58.059,44.304C58.059,44.473 57.92,44.614 57.751,44.614L56.625,44.614Z" style="fill:rgb(225,224,224);fill-rule:nonzero;"/>
                    <path d="M44.289,44.614C44.118,44.614 43.978,44.473 43.978,44.304L43.978,42.395C43.978,42.225 44.118,42.084 44.289,42.084L45.413,42.084C45.584,42.084 45.723,42.225 45.723,42.395L45.723,44.304C45.723,44.473 45.584,44.614 45.413,44.614L44.289,44.614Z" style="fill:rgb(225,224,224);fill-rule:nonzero;"/>
                    <path d="M47.576,44.614C47.407,44.614 47.266,44.473 47.266,44.304L47.266,42.395C47.266,42.225 47.407,42.084 47.576,42.084L48.701,42.084C48.872,42.084 49.012,42.225 49.012,42.395L49.012,44.304C49.012,44.473 48.872,44.614 48.701,44.614L47.576,44.614Z" style="fill:rgb(225,224,224);fill-rule:nonzero;"/>
                </g>
                <g>
                    <path d="M53.337,38.04C53.167,38.04 53.028,37.9 53.028,37.731L53.028,35.821C53.028,35.651 53.167,35.512 53.337,35.512L54.462,35.512C54.632,35.512 54.772,35.651 54.772,35.821L54.772,37.731C54.772,37.9 54.632,38.04 54.462,38.04L53.337,38.04Z" style="fill:rgb(225,224,224);fill-rule:nonzero;"/>
                    <path d="M56.625,38.04C56.454,38.04 56.316,37.9 56.316,37.731L56.316,35.821C56.316,35.651 56.454,35.512 56.625,35.512L57.751,35.512C57.92,35.512 58.059,35.651 58.059,35.821L58.059,37.731C58.059,37.9 57.92,38.04 57.751,38.04L56.625,38.04Z" style="fill:rgb(225,224,224);fill-rule:nonzero;"/>
                    <path d="M44.289,38.04C44.118,38.04 43.978,37.9 43.978,37.731L43.978,35.821C43.978,35.651 44.118,35.512 44.289,35.512L45.413,35.512C45.584,35.512 45.723,35.651 45.723,35.821L45.723,37.731C45.723,37.9 45.584,38.04 45.413,38.04L44.289,38.04Z" style="fill:rgb(225,224,224);fill-rule:nonzero;"/>
                    <path d="M47.576,38.04C47.407,38.04 47.266,37.9 47.266,37.731L47.266,35.821C47.266,35.651 47.407,35.512 47.576,35.512L48.701,35.512C48.872,35.512 49.012,35.651 49.012,35.821L49.012,37.731C49.012,37.9 48.872,38.04 48.701,38.04L47.576,38.04Z" style="fill:rgb(225,224,224);fill-rule:nonzero;"/>
                </g>
                <g>
                    <path d="M53.337,31.464C53.167,31.464 53.028,31.326 53.028,31.155L53.028,29.246C53.028,29.074 53.167,28.934 53.337,28.934L54.462,28.934C54.632,28.934 54.772,29.074 54.772,29.246L54.772,31.155C54.772,31.326 54.632,31.464 54.462,31.464L53.337,31.464Z" style="fill:rgb(225,224,224);fill-rule:nonzero;"/>
                    <path d="M56.625,31.464C56.454,31.464 56.316,31.326 56.316,31.155L56.316,29.246C56.316,29.074 56.454,28.934 56.625,28.934L57.751,28.934C57.92,28.934 58.059,29.074 58.059,29.246L58.059,31.155C58.059,31.326 57.92,31.464 57.751,31.464L56.625,31.464Z" style="fill:rgb(225,224,224);fill-rule:nonzero;"/>
                    <path d="M44.289,31.464C44.118,31.464 43.978,31.326 43.978,31.155L43.978,29.246C43.978,29.074 44.118,28.934 44.289,28.934L45.413,28.934C45.584,28.934 45.723,29.074 45.723,29.246L45.723,31.155C45.723,31.326 45.584,31.464 45.413,31.464L44.289,31.464Z" style="fill:rgb(225,224,224);fill-rule:nonzero;"/>
                    <path d="M47.576,31.464C47.407,31.464 47.266,31.326 47.266,31.155L47.266,29.246C47.266,29.074 47.407,28.934 47.576,28.934L48.701,28.934C48.872,28.934 49.012,29.074 49.012,29.246L49.012,31.155C49.012,31.326 48.872,31.464 48.701,31.464L47.576,31.464Z" style="fill:rgb(225,224,224);fill-rule:nonzero;"/>
                </g>
                <g>
                    <path d="M50.019,60.561C50.019,60.426 50.13,60.315 50.263,60.315L51.774,60.315C51.908,60.315 52.019,60.426 52.019,60.561L52.019,63.762L50.019,63.762L50.019,60.561Z" style="fill:rgb(139,190,195);fill-rule:nonzero;"/>
                    <circle cx="50.332" cy="62.049" r="0.125" style="fill:rgb(205,204,203);"/>
                </g>
            </g>
            <g>
                <path d="M95.929,63.762L75.146,63.762L75.146,24.952C75.146,23.545 76.287,22.405 77.691,22.405L93.386,22.405C94.791,22.405 95.929,23.545 95.929,24.952L95.929,63.762Z" style="fill:rgb(152,200,208);fill-rule:nonzero;"/>
                <path d="M75.146,24.952C75.146,23.545 76.287,22.405 77.691,22.405L93.386,22.405C94.791,22.405 95.929,23.545 95.929,24.952L75.146,24.952Z" style="fill:rgb(139,190,195);fill-rule:nonzero;"/>
                <path d="M78.808,62.852C78.639,62.852 78.501,62.715 78.501,62.543L78.501,60.633C78.501,60.463 78.639,60.323 78.808,60.323L83.221,60.323C83.392,60.323 83.531,60.463 83.531,60.633L83.531,62.543C83.531,62.715 83.392,62.852 83.221,62.852L78.808,62.852Z" style="fill:rgb(225,224,224);fill-rule:nonzero;"/>
                <path d="M87.855,62.852C87.683,62.852 87.544,62.715 87.544,62.543L87.544,60.633C87.544,60.463 87.683,60.323 87.855,60.323L92.267,60.323C92.438,60.323 92.576,60.463 92.576,60.633L92.576,62.543C92.576,62.715 92.438,62.852 92.267,62.852L87.855,62.852Z" style="fill:rgb(225,224,224);fill-rule:nonzero;"/>
                <g>
                    <path d="M87.855,57.763C87.683,57.763 87.544,57.625 87.544,57.453L87.544,55.543C87.544,55.373 87.683,55.234 87.855,55.234L88.979,55.234C89.15,55.234 89.29,55.373 89.29,55.543L89.29,57.453C89.29,57.625 89.15,57.763 88.979,57.763L87.855,57.763Z" style="fill:rgb(225,224,224);fill-rule:nonzero;"/>
                    <path d="M91.141,57.763C90.972,57.763 90.831,57.625 90.831,57.453L90.831,55.543C90.831,55.373 90.972,55.234 91.141,55.234L92.267,55.234C92.438,55.234 92.576,55.373 92.576,55.543L92.576,57.453C92.576,57.625 92.438,57.763 92.267,57.763L91.141,57.763Z" style="fill:rgb(225,224,224);fill-rule:nonzero;"/>
                    <path d="M78.804,57.763C78.634,57.763 78.495,57.625 78.495,57.453L78.495,55.543C78.495,55.373 78.634,55.234 78.804,55.234L79.931,55.234C80.1,55.234 80.24,55.373 80.24,55.543L80.24,57.453C80.24,57.625 80.1,57.763 79.931,57.763L78.804,57.763Z" style="fill:rgb(225,224,224);fill-rule:nonzero;"/>
                    <path d="M82.091,57.763C81.922,57.763 81.784,57.625 81.784,57.453L81.784,55.543C81.784,55.373 81.922,55.234 82.091,55.234L83.216,55.234C83.388,55.234 83.527,55.373 83.527,55.543L83.527,57.453C83.527,57.625 83.388,57.763 83.216,57.763L82.091,57.763Z" style="fill:rgb(225,224,224);fill-rule:nonzero;"/>
                </g>
                <g>
                    <path d="M87.855,51.188C87.683,51.188 87.544,51.049 87.544,50.879L87.544,48.969C87.544,48.799 87.683,48.659 87.855,48.659L88.979,48.659C89.15,48.659 89.29,48.799 89.29,48.969L89.29,50.879C89.29,51.049 89.15,51.188 88.979,51.188L87.855,51.188Z" style="fill:rgb(225,224,224);fill-rule:nonzero;"/>
                    <path d="M91.141,51.188C90.972,51.188 90.831,51.049 90.831,50.879L90.831,48.969C90.831,48.799 90.972,48.659 91.141,48.659L92.267,48.659C92.438,48.659 92.576,48.799 92.576,48.969L92.576,50.879C92.576,51.049 92.438,51.188 92.267,51.188L91.141,51.188Z" style="fill:rgb(225,224,224);fill-rule:nonzero;"/>
                    <path d="M78.804,51.188C78.634,51.188 78.495,51.049 78.495,50.879L78.495,48.969C78.495,48.799 78.634,48.659 78.804,48.659L79.931,48.659C80.1,48.659 80.24,48.799 80.24,48.969L80.24,50.879C80.24,51.049 80.1,51.188 79.931,51.188L78.804,51.188Z" style="fill:rgb(225,224,224);fill-rule:nonzero;"/>
                    <path d="M82.091,51.188C81.922,51.188 81.784,51.049 81.784,50.879L81.784,48.969C81.784,48.799 81.922,48.659 82.091,48.659L83.216,48.659C83.388,48.659 83.527,48.799 83.527,48.969L83.527,50.879C83.527,51.049 83.388,51.188 83.216,51.188L82.091,51.188Z" style="fill:rgb(225,224,224);fill-rule:nonzero;"/>
                </g>
                <g>
                    <path d="M87.855,44.614C87.683,44.614 87.544,44.473 87.544,44.304L87.544,42.395C87.544,42.225 87.683,42.084 87.855,42.084L88.979,42.084C89.15,42.084 89.29,42.225 89.29,42.395L89.29,44.304C89.29,44.473 89.15,44.614 88.979,44.614L87.855,44.614Z" style="fill:rgb(225,224,224);fill-rule:nonzero;"/>
                    <path d="M91.141,44.614C90.972,44.614 90.831,44.473 90.831,44.304L90.831,42.395C90.831,42.225 90.972,42.084 91.141,42.084L92.267,42.084C92.438,42.084 92.576,42.225 92.576,42.395L92.576,44.304C92.576,44.473 92.438,44.614 92.267,44.614L91.141,44.614Z" style="fill:rgb(225,224,224);fill-rule:nonzero;"/>
                    <path d="M78.804,44.614C78.634,44.614 78.495,44.473 78.495,44.304L78.495,42.395C78.495,42.225 78.634,42.084 78.804,42.084L79.931,42.084C80.1,42.084 80.24,42.225 80.24,42.395L80.24,44.304C80.24,44.473 80.1,44.614 79.931,44.614L78.804,44.614Z" style="fill:rgb(225,224,224);fill-rule:nonzero;"/>
                    <path d="M82.091,44.614C81.922,44.614 81.784,44.473 81.784,44.304L81.784,42.395C81.784,42.225 81.922,42.084 82.091,42.084L83.216,42.084C83.388,42.084 83.527,42.225 83.527,42.395L83.527,44.304C83.527,44.473 83.388,44.614 83.216,44.614L82.091,44.614Z" style="fill:rgb(225,224,224);fill-rule:nonzero;"/>
                </g>
                <g>
                    <path d="M87.855,38.04C87.683,38.04 87.544,37.9 87.544,37.731L87.544,35.821C87.544,35.651 87.683,35.512 87.855,35.512L88.979,35.512C89.15,35.512 89.29,35.651 89.29,35.821L89.29,37.731C89.29,37.9 89.15,38.04 88.979,38.04L87.855,38.04Z" style="fill:rgb(225,224,224);fill-rule:nonzero;"/>
                    <path d="M91.141,38.04C90.972,38.04 90.831,37.9 90.831,37.731L90.831,35.821C90.831,35.651 90.972,35.512 91.141,35.512L92.267,35.512C92.438,35.512 92.576,35.651 92.576,35.821L92.576,37.731C92.576,37.9 92.438,38.04 92.267,38.04L91.141,38.04Z" style="fill:rgb(225,224,224);fill-rule:nonzero;"/>
                    <path d="M78.804,38.04C78.634,38.04 78.495,37.9 78.495,37.731L78.495,35.821C78.495,35.651 78.634,35.512 78.804,35.512L79.931,35.512C80.1,35.512 80.24,35.651 80.24,35.821L80.24,37.731C80.24,37.9 80.1,38.04 79.931,38.04L78.804,38.04Z" style="fill:rgb(225,224,224);fill-rule:nonzero;"/>
                    <path d="M82.091,38.04C81.922,38.04 81.784,37.9 81.784,37.731L81.784,35.821C81.784,35.651 81.922,35.512 82.091,35.512L83.216,35.512C83.388,35.512 83.527,35.651 83.527,35.821L83.527,37.731C83.527,37.9 83.388,38.04 83.216,38.04L82.091,38.04Z" style="fill:rgb(225,224,224);fill-rule:nonzero;"/>
                </g>
                <g>
                    <path d="M87.855,31.464C87.683,31.464 87.544,31.326 87.544,31.155L87.544,29.246C87.544,29.074 87.683,28.934 87.855,28.934L88.979,28.934C89.15,28.934 89.29,29.074 89.29,29.246L89.29,31.155C89.29,31.326 89.15,31.464 88.979,31.464L87.855,31.464Z" style="fill:rgb(225,224,224);fill-rule:nonzero;"/>
                    <path d="M91.141,31.464C90.972,31.464 90.831,31.326 90.831,31.155L90.831,29.246C90.831,29.074 90.972,28.934 91.141,28.934L92.267,28.934C92.438,28.934 92.576,29.074 92.576,29.246L92.576,31.155C92.576,31.326 92.438,31.464 92.267,31.464L91.141,31.464Z" style="fill:rgb(225,224,224);fill-rule:nonzero;"/>
                    <path d="M78.804,31.464C78.634,31.464 78.495,31.326 78.495,31.155L78.495,29.246C78.495,29.074 78.634,28.934 78.804,28.934L79.931,28.934C80.1,28.934 80.24,29.074 80.24,29.246L80.24,31.155C80.24,31.326 80.1,31.464 79.931,31.464L78.804,31.464Z" style="fill:rgb(225,224,224);fill-rule:nonzero;"/>
                    <path d="M82.091,31.464C81.922,31.464 81.784,31.326 81.784,31.155L81.784,29.246C81.784,29.074 81.922,28.934 82.091,28.934L83.216,28.934C83.388,28.934 83.527,29.074 83.527,29.246L83.527,31.155C83.527,31.326 83.388,31.464 83.216,31.464L82.091,31.464Z" style="fill:rgb(225,224,224);fill-rule:nonzero;"/>
                </g>
                <g>
                    <path d="M84.537,60.561C84.537,60.426 84.646,60.315 84.782,60.315L86.291,60.315C86.426,60.315 86.535,60.426 86.535,60.561L86.535,63.762L84.537,63.762L84.537,60.561Z" style="fill:rgb(139,190,195);fill-rule:nonzero;"/>
                    <circle cx="84.85" cy="62.049" r="0.125" style="fill:rgb(205,204,203);"/>
                </g>
            </g>
            <g>
                <path d="M82.607,69.913L54.681,69.913L54.681,17.769C54.681,15.879 56.212,14.348 58.102,14.348L79.187,14.348C81.076,14.348 82.607,15.879 82.607,17.769L82.607,69.913Z" style="fill:rgb(166,206,209);fill-rule:nonzero;"/>
                <path d="M54.681,17.769C54.681,15.879 56.212,14.348 58.102,14.348L79.187,14.348C81.076,14.348 82.607,15.879 82.607,17.769L54.681,17.769Z" style="fill:rgb(139,190,195);fill-rule:nonzero;"/>
                <path d="M59.605,68.69C59.376,68.69 59.19,68.504 59.19,68.275L59.19,65.71C59.19,65.481 59.377,65.294 59.605,65.294L65.533,65.294C65.762,65.294 65.949,65.482 65.949,65.71L65.949,68.275C65.949,68.504 65.762,68.69 65.533,68.69L59.605,68.69Z" style="fill:rgb(225,224,224);fill-rule:nonzero;"/>
                <path d="M71.755,68.69C71.526,68.69 71.34,68.504 71.34,68.275L71.34,65.71C71.34,65.481 71.527,65.294 71.755,65.294L77.684,65.294C77.913,65.294 78.1,65.482 78.1,65.71L78.1,68.275C78.1,68.504 77.913,68.69 77.684,68.69L71.755,68.69Z" style="fill:rgb(225,224,224);fill-rule:nonzero;"/>
                <g>
                    <path d="M71.755,61.851C71.526,61.851 71.34,61.664 71.34,61.436L71.34,58.87C71.34,58.641 71.527,58.454 71.755,58.454L73.268,58.454C73.497,58.454 73.683,58.642 73.683,58.87L73.683,61.436C73.683,61.665 73.497,61.851 73.268,61.851L71.755,61.851Z" style="fill:rgb(225,224,224);fill-rule:nonzero;"/>
                    <path d="M76.173,61.851C75.943,61.851 75.757,61.664 75.757,61.436L75.757,58.87C75.757,58.641 75.943,58.454 76.173,58.454L77.684,58.454C77.913,58.454 78.1,58.642 78.1,58.87L78.1,61.436C78.1,61.665 77.913,61.851 77.684,61.851L76.173,61.851Z" style="fill:rgb(225,224,224);fill-rule:nonzero;"/>
                    <path d="M59.599,61.851C59.37,61.851 59.183,61.664 59.183,61.436L59.183,58.87C59.183,58.641 59.37,58.454 59.599,58.454L61.111,58.454C61.34,58.454 61.527,58.642 61.527,58.87L61.527,61.436C61.527,61.665 61.34,61.851 61.111,61.851L59.599,61.851Z" style="fill:rgb(225,224,224);fill-rule:nonzero;"/>
                    <path d="M64.015,61.851C63.786,61.851 63.599,61.664 63.599,61.436L63.599,58.87C63.599,58.641 63.787,58.454 64.015,58.454L65.526,58.454C65.756,58.454 65.943,58.642 65.943,58.87L65.943,61.436C65.943,61.665 65.756,61.851 65.526,61.851L64.015,61.851Z" style="fill:rgb(225,224,224);fill-rule:nonzero;"/>
                </g>
                <g>
                    <path d="M71.755,53.018C71.526,53.018 71.34,52.832 71.34,52.602L71.34,50.038C71.34,49.809 71.527,49.622 71.755,49.622L73.268,49.622C73.497,49.622 73.683,49.809 73.683,50.038L73.683,52.602C73.683,52.832 73.497,53.018 73.268,53.018L71.755,53.018Z" style="fill:rgb(225,224,224);fill-rule:nonzero;"/>
                    <path d="M76.173,53.018C75.943,53.018 75.757,52.832 75.757,52.602L75.757,50.038C75.757,49.809 75.943,49.622 76.173,49.622L77.684,49.622C77.913,49.622 78.1,49.809 78.1,50.038L78.1,52.602C78.1,52.832 77.913,53.018 77.684,53.018L76.173,53.018Z" style="fill:rgb(225,224,224);fill-rule:nonzero;"/>
                    <path d="M59.599,53.018C59.37,53.018 59.183,52.832 59.183,52.602L59.183,50.038C59.183,49.809 59.37,49.622 59.599,49.622L61.111,49.622C61.34,49.622 61.527,49.809 61.527,50.038L61.527,52.602C61.527,52.832 61.34,53.018 61.111,53.018L59.599,53.018Z" style="fill:rgb(225,224,224);fill-rule:nonzero;"/>
                    <path d="M64.015,53.018C63.786,53.018 63.599,52.832 63.599,52.602L63.599,50.038C63.599,49.809 63.787,49.622 64.015,49.622L65.526,49.622C65.756,49.622 65.943,49.809 65.943,50.038L65.943,52.602C65.943,52.832 65.756,53.018 65.526,53.018L64.015,53.018Z" style="fill:rgb(225,224,224);fill-rule:nonzero;"/>
                </g>
                <g>
                    <path d="M71.755,44.185C71.526,44.185 71.34,43.998 71.34,43.768L71.34,41.204C71.34,40.975 71.527,40.788 71.755,40.788L73.268,40.788C73.497,40.788 73.683,40.975 73.683,41.204L73.683,43.768C73.683,43.998 73.497,44.185 73.268,44.185L71.755,44.185Z" style="fill:rgb(225,224,224);fill-rule:nonzero;"/>
                    <path d="M76.173,44.185C75.943,44.185 75.757,43.998 75.757,43.768L75.757,41.204C75.757,40.975 75.943,40.788 76.173,40.788L77.684,40.788C77.913,40.788 78.1,40.975 78.1,41.204L78.1,43.768C78.1,43.998 77.913,44.185 77.684,44.185L76.173,44.185Z" style="fill:rgb(225,224,224);fill-rule:nonzero;"/>
                    <path d="M59.599,44.185C59.37,44.185 59.183,43.998 59.183,43.768L59.183,41.204C59.183,40.975 59.37,40.788 59.599,40.788L61.111,40.788C61.34,40.788 61.527,40.975 61.527,41.204L61.527,43.768C61.527,43.998 61.34,44.185 61.111,44.185L59.599,44.185Z" style="fill:rgb(225,224,224);fill-rule:nonzero;"/>
                    <path d="M64.015,44.185C63.786,44.185 63.599,43.998 63.599,43.768L63.599,41.204C63.599,40.975 63.787,40.788 64.015,40.788L65.526,40.788C65.756,40.788 65.943,40.975 65.943,41.204L65.943,43.768C65.943,43.998 65.756,44.185 65.526,44.185L64.015,44.185Z" style="fill:rgb(225,224,224);fill-rule:nonzero;"/>
                </g>
                <g>
                    <path d="M71.755,35.352C71.526,35.352 71.34,35.164 71.34,34.936L71.34,32.37C71.34,32.141 71.527,31.956 71.755,31.956L73.268,31.956C73.497,31.956 73.683,32.142 73.683,32.37L73.683,34.936C73.683,35.165 73.497,35.352 73.268,35.352L71.755,35.352Z" style="fill:rgb(225,224,224);fill-rule:nonzero;"/>
                    <path d="M76.173,35.352C75.943,35.352 75.757,35.164 75.757,34.936L75.757,32.37C75.757,32.141 75.943,31.956 76.173,31.956L77.684,31.956C77.913,31.956 78.1,32.142 78.1,32.37L78.1,34.936C78.1,35.165 77.913,35.352 77.684,35.352L76.173,35.352Z" style="fill:rgb(225,224,224);fill-rule:nonzero;"/>
                    <path d="M59.599,35.352C59.37,35.352 59.183,35.164 59.183,34.936L59.183,32.37C59.183,32.141 59.37,31.956 59.599,31.956L61.111,31.956C61.34,31.956 61.527,32.142 61.527,32.37L61.527,34.936C61.527,35.165 61.34,35.352 61.111,35.352L59.599,35.352Z" style="fill:rgb(225,224,224);fill-rule:nonzero;"/>
                    <path d="M64.015,35.352C63.786,35.352 63.599,35.164 63.599,34.936L63.599,32.37C63.599,32.141 63.787,31.956 64.015,31.956L65.526,31.956C65.756,31.956 65.943,32.142 65.943,32.37L65.943,34.936C65.943,35.165 65.756,35.352 65.526,35.352L64.015,35.352Z" style="fill:rgb(225,224,224);fill-rule:nonzero;"/>
                </g>
                <g>
                    <path d="M71.755,26.519C71.526,26.519 71.34,26.332 71.34,26.103L71.34,23.538C71.34,23.309 71.527,23.122 71.755,23.122L73.268,23.122C73.497,23.122 73.683,23.309 73.683,23.538L73.683,26.103C73.683,26.332 73.497,26.519 73.268,26.519L71.755,26.519Z" style="fill:rgb(225,224,224);fill-rule:nonzero;"/>
                    <path d="M76.173,26.519C75.943,26.519 75.757,26.332 75.757,26.103L75.757,23.538C75.757,23.309 75.943,23.122 76.173,23.122L77.684,23.122C77.913,23.122 78.1,23.309 78.1,23.538L78.1,26.103C78.1,26.332 77.913,26.519 77.684,26.519L76.173,26.519Z" style="fill:rgb(225,224,224);fill-rule:nonzero;"/>
                    <path d="M59.599,26.519C59.37,26.519 59.183,26.332 59.183,26.103L59.183,23.538C59.183,23.309 59.37,23.122 59.599,23.122L61.111,23.122C61.34,23.122 61.527,23.309 61.527,23.538L61.527,26.103C61.527,26.332 61.34,26.519 61.111,26.519L59.599,26.519Z" style="fill:rgb(225,224,224);fill-rule:nonzero;"/>
                    <path d="M64.015,26.519C63.786,26.519 63.599,26.332 63.599,26.103L63.599,23.538C63.599,23.309 63.787,23.122 64.015,23.122L65.526,23.122C65.756,23.122 65.943,23.309 65.943,23.538L65.943,26.103C65.943,26.332 65.756,26.519 65.526,26.519L64.015,26.519Z" style="fill:rgb(225,224,224);fill-rule:nonzero;"/>
                </g>
                <g>
                    <path d="M67.298,65.61C67.298,65.429 67.446,65.282 67.628,65.282L69.656,65.282C69.836,65.282 69.983,65.429 69.983,65.61L69.983,69.913L67.297,69.913L67.297,65.61L67.298,65.61Z" style="fill:rgb(139,190,195);fill-rule:nonzero;"/>
                    <circle cx="67.718" cy="67.61" r="0.166" style="fill:rgb(205,204,203);"/>
                </g>
            </g>
        </g>
        <g>
            <g>
                <path d="M83.893,61.696L76.255,56.472C76.255,56.472 75.284,55.293 71.512,55.01C65.559,54.565 53.741,51.842 53.741,51.842C46.461,54.004 47.104,60.461 47.104,60.461L66.159,64.107C66.159,64.107 74.931,63.425 77.117,64.792C82.429,68.105 85.063,62.638 85.063,62.638L83.893,61.696Z" style="fill:rgb(251,191,150);fill-rule:nonzero;"/>
                <path d="M79.947,58.98L85.041,62.249C85.041,62.249 83.893,63.327 82.916,63.184C81.836,63.024 79.558,60.533 79.947,58.98Z" style="fill:rgb(253,214,178);fill-rule:nonzero;"/>
                <path d="M83.117,63.866L73.985,61.44L65.38,60.377L71.492,60.053C71.492,60.053 73.998,59.884 75.871,60.881C77.319,61.651 83.117,63.866 83.117,63.866Z" style="fill:rgb(237,172,128);fill-rule:nonzero;"/>
                <path d="M74.597,57.918C74.433,57.882 74.338,57.719 74.374,57.557L74.712,56.071C74.751,55.907 74.915,55.807 75.073,55.848C75.237,55.886 75.337,56.051 75.298,56.211L74.96,57.698C74.923,57.862 74.761,57.963 74.597,57.918Z" style="fill:rgb(253,214,178);fill-rule:nonzero;"/>
                <path d="M73.654,56.944C73.49,56.903 73.392,56.743 73.433,56.579L73.591,55.776C73.627,55.614 73.792,55.516 73.952,55.553C74.117,55.592 74.214,55.757 74.177,55.918L74.022,56.72C73.98,56.884 73.816,56.982 73.654,56.944Z" style="fill:rgb(253,214,178);fill-rule:nonzero;"/>
            </g>
            <g>
                <g>
                    <path d="M84.898,97.502C87.115,96.125 93.086,90.103 91.711,87.883C90.336,85.668 87.423,84.987 85.207,86.362L68.058,96.827C65.841,98.203 64.745,100.328 66.122,102.542C67.498,104.76 69.265,104.794 72.259,103.495L84.898,97.502Z" style="fill:rgb(251,191,150);fill-rule:nonzero;"/>
                    <path d="M77.923,91.864L65.491,100.721C65.425,98.524 66.421,97.851 67.687,97.066L81.32,88.131C81,88.594 78.418,91.523 77.923,91.864Z" style="fill:rgb(237,172,128);fill-rule:nonzero;"/>
                </g>
                <path d="M64.714,67.934L68.974,64.327L68.064,57.153L90.739,49.403L112.326,72.424C112.326,72.424 106.525,81.549 100.713,86.931C94.901,92.313 84.625,97.666 84.625,97.666L64.714,67.934Z" style="fill:rgb(241,169,119);fill-rule:nonzero;"/>
                <g>
                    <path d="M89.796,84.499C92.011,83.125 92.691,80.214 91.317,77.996C89.943,75.778 87.031,75.097 84.814,76.475L60.534,91.537C58.316,92.912 57.635,95.822 59.011,98.04C60.385,100.256 63.297,100.937 65.514,99.563L89.796,84.499Z" style="fill:rgb(241,169,119);fill-rule:nonzero;"/>
                    <path d="M69.182,87.35L58.301,95.641C58.27,93.781 59.019,92.479 60.286,91.694L70.078,85.38C69.758,85.845 69.677,87.014 69.182,87.35Z" style="fill:rgb(237,172,128);fill-rule:nonzero;"/>
                </g>
                <path d="M68.471,75.37C70.374,74.013 76.847,70.368 75.49,68.469L76.748,62.24C75.391,60.339 61.988,69.634 60.917,70.392L36.608,86.993C33.876,88.947 33.433,91.59 34.793,93.493C36.148,95.394 38.793,95.835 40.693,94.477L68.471,75.37Z" style="fill:rgb(241,169,119);fill-rule:nonzero;"/>
                <g>
                    <path d="M84.251,97.157C86.314,96.245 86.942,93.232 85.875,91.501C84.811,89.769 82.438,89.299 80.571,90.448L54.722,106.083C52.858,107.229 52.208,109.563 53.274,111.294C54.34,113.023 56.635,113.315 58.146,112.521L84.364,97.091" style="fill:rgb(241,169,119);fill-rule:nonzero;"/>
                    <path d="M78.585,91.749L66.481,99.831C65.053,100.679 54.906,106.208 55.974,105.554L82.202,89.226C81.927,89.602 79,91.467 78.585,91.749Z" style="fill:rgb(237,172,128);fill-rule:nonzero;"/>
                </g>
                <g>
                    <path d="M73.205,84.112C75.702,82.893 76.338,79.155 74.945,77.073C73.554,74.992 70.608,74.522 68.367,76.022L37.263,96.469C35.019,97.967 34.329,100.869 35.722,102.952C37.113,105.031 39.952,105.287 41.777,104.236L73.343,84.023" style="fill:rgb(241,169,119);fill-rule:nonzero;"/>
                    <path d="M65.978,77.715L51.453,88.227C49.73,89.338 37.496,96.617 38.779,95.76L70.316,74.442C69.994,74.918 66.48,77.35 65.978,77.715Z" style="fill:rgb(237,172,128);fill-rule:nonzero;"/>
                </g>
                <g>
                    <path d="M78.08,90.72C80.438,89.521 80.989,85.949 79.629,83.989C78.272,82.03 75.461,81.626 73.348,83.089L44.035,103.039C41.92,104.498 41.306,107.275 42.664,109.237C44.021,111.198 46.728,111.395 48.452,110.366L78.209,90.636" style="fill:rgb(241,169,119);fill-rule:nonzero;"/>
                    <path d="M71.097,84.739L57.421,94.971C55.8,96.055 44.257,103.172 45.466,102.338L75.18,81.552C74.88,82.012 71.57,84.383 71.097,84.739Z" style="fill:rgb(237,172,128);fill-rule:nonzero;"/>
                </g>
            </g>
            <g>
                <g>
                    <g>
                        <g>
                            <path d="M52.552,97.502C50.335,96.125 44.364,90.103 45.739,87.883C47.114,85.668 50.026,84.987 52.243,86.362L69.391,96.827C71.607,98.203 72.704,100.328 71.327,102.542C69.951,104.76 68.183,104.794 65.19,103.495L52.552,97.502Z" style="fill:rgb(251,191,150);fill-rule:nonzero;"/>
                            <path d="M59.527,91.864L71.958,100.721C72.024,98.524 71.028,97.851 69.763,97.066L56.129,88.131C56.449,88.594 59.031,91.523 59.527,91.864Z" style="fill:rgb(237,172,128);fill-rule:nonzero;"/>
                        </g>
                        <path d="M72.735,67.934L68.476,64.327L69.386,57.153L46.711,49.403L25.125,72.424C25.125,72.424 30.926,81.549 36.738,86.931C42.55,92.313 52.826,97.666 52.826,97.666L72.735,67.934Z" style="fill:rgb(251,191,150);fill-rule:nonzero;"/>
                        <g>
                            <path d="M47.654,84.499C45.439,83.125 44.759,80.214 46.133,77.996C47.507,75.778 50.419,75.097 52.636,76.475L76.915,91.537C79.134,92.912 79.815,95.822 78.439,98.04C77.065,100.256 74.152,100.937 71.936,99.563L47.654,84.499Z" style="fill:rgb(251,191,150);fill-rule:nonzero;"/>
                            <path d="M68.267,87.35L79.149,95.641C79.18,93.781 78.431,92.479 77.164,91.694L67.372,85.38C67.692,85.845 67.773,87.014 68.267,87.35Z" style="fill:rgb(237,172,128);fill-rule:nonzero;"/>
                        </g>
                        <g>
                            <path d="M68.978,75.37C67.076,74.013 60.602,70.368 61.96,68.469L60.702,62.24C62.059,60.339 75.46,69.634 76.533,70.392L100.842,86.994C103.573,88.948 104.017,91.591 102.657,93.494C101.301,95.395 98.656,95.836 96.757,94.478L68.978,75.37Z" style="fill:rgb(251,191,150);fill-rule:nonzero;"/>
                            <path d="M96.466,92.526L98.166,93.735C99.37,94.592 101.097,94.241 102.02,92.948C102.945,91.656 102.716,89.912 101.51,89.055L99.813,87.846C99.813,87.846 98.928,88.215 97.833,89.783C96.472,91.725 96.603,91.899 96.466,92.526Z" style="fill:rgb(253,214,178);fill-rule:nonzero;"/>
                            <g>
                                <path d="M83.483,83.719C83.345,83.62 83.315,83.43 83.412,83.293L86.506,78.961C86.606,78.822 86.793,78.787 86.933,78.889C87.069,78.985 87.102,79.178 87.003,79.316L83.912,83.65C83.812,83.786 83.621,83.817 83.483,83.719Z" style="fill:rgb(253,214,178);fill-rule:nonzero;"/>
                                <path d="M83.056,81.716C82.935,81.631 82.904,81.463 82.993,81.342L84.521,79.197C84.608,79.076 84.778,79.047 84.897,79.134C85.023,79.223 85.046,79.392 84.96,79.512L83.435,81.655C83.346,81.776 83.177,81.806 83.056,81.716Z" style="fill:rgb(253,214,178);fill-rule:nonzero;"/>
                            </g>
                        </g>
                        <g>
                            <g>
                                <path d="M53.199,97.157C51.136,96.245 50.508,93.232 51.574,91.501C52.638,89.769 55.012,89.299 56.879,90.448L82.727,106.083C84.592,107.229 85.241,109.563 84.176,111.294C83.11,113.023 80.815,113.315 79.303,112.521L53.085,97.09" style="fill:rgb(251,191,150);fill-rule:nonzero;"/>
                                <path d="M58.865,91.749L70.969,99.831C72.397,100.679 82.544,106.208 81.476,105.554L55.248,89.225C55.523,89.602 58.449,91.467 58.865,91.749Z" style="fill:rgb(237,172,128);fill-rule:nonzero;"/>
                            </g>
                            <path d="M78.606,110.893L80.153,111.84C81.251,112.512 82.724,112.104 83.452,110.93C84.178,109.754 83.877,108.256 82.779,107.582L81.234,106.637C81.234,106.637 80.49,107.009 79.632,108.43C78.566,110.198 78.689,110.337 78.606,110.893Z" style="fill:rgb(253,214,178);fill-rule:nonzero;"/>
                            <g>
                                <path d="M67.399,104.542C67.273,104.465 67.237,104.301 67.318,104.176L69.804,100.273C69.882,100.15 70.048,100.113 70.171,100.191C70.294,100.271 70.329,100.436 70.251,100.557L67.762,104.46C67.683,104.586 67.521,104.623 67.399,104.542Z" style="fill:rgb(253,214,178);fill-rule:nonzero;"/>
                                <path d="M66.937,102.823C66.826,102.754 66.793,102.612 66.864,102.499L68.093,100.571C68.163,100.461 68.308,100.428 68.417,100.498C68.529,100.569 68.558,100.712 68.489,100.822L67.26,102.752C67.193,102.86 67.045,102.895 66.937,102.823Z" style="fill:rgb(253,214,178);fill-rule:nonzero;"/>
                            </g>
                        </g>
                        <g>
                            <g>
                                <path d="M64.245,84.112C61.748,82.893 61.112,79.155 62.506,77.073C63.897,74.992 66.842,74.522 69.084,76.022L100.188,96.469C102.431,97.967 103.122,100.869 101.729,102.952C100.338,105.031 97.499,105.287 95.674,104.236L64.107,84.024" style="fill:rgb(251,191,150);fill-rule:nonzero;"/>
                                <path d="M71.472,77.715L85.997,88.227C87.72,89.338 99.954,96.617 98.671,95.76L67.134,74.442C67.457,74.918 70.97,77.35 71.472,77.715Z" style="fill:rgb(237,172,128);fill-rule:nonzero;"/>
                            </g>
                            <path d="M94.892,102.202L96.751,103.438C98.07,104.317 99.906,103.883 100.855,102.471C101.802,101.057 101.501,99.199 100.179,98.321L98.325,97.083C98.325,97.083 97.391,97.505 96.267,99.218C94.872,101.344 95.019,101.521 94.892,102.202Z" style="fill:rgb(253,214,178);fill-rule:nonzero;"/>
                            <g>
                                <path d="M81.387,93.864C81.234,93.76 81.199,93.557 81.3,93.407L84.544,88.718C84.647,88.568 84.851,88.53 85,88.634C85.149,88.739 85.187,88.943 85.083,89.089L81.839,93.78C81.735,93.928 81.535,93.967 81.387,93.864Z" style="fill:rgb(253,214,178);fill-rule:nonzero;"/>
                                <path d="M80.896,91.725C80.764,91.633 80.731,91.456 80.824,91.322L82.424,89.004C82.517,88.873 82.699,88.84 82.826,88.929C82.961,89.023 82.989,89.201 82.902,89.334L81.298,91.653C81.208,91.784 81.025,91.816 80.896,91.725Z" style="fill:rgb(253,214,178);fill-rule:nonzero;"/>
                            </g>
                        </g>
                        <g>
                            <g>
                                <path d="M59.37,90.72C57.013,89.521 56.462,85.949 57.821,83.989C59.178,82.03 61.99,81.626 64.103,83.089L93.416,103.039C95.531,104.498 96.145,107.275 94.787,109.237C93.43,111.198 90.723,111.395 88.999,110.366L59.241,90.636" style="fill:rgb(251,191,150);fill-rule:nonzero;"/>
                                <path d="M66.353,84.739L80.028,94.971C81.65,96.055 93.193,103.172 91.984,102.338L62.27,81.552C62.569,82.012 65.88,84.383 66.353,84.739Z" style="fill:rgb(237,172,128);fill-rule:nonzero;"/>
                            </g>
                            <path d="M88.287,108.417L90.039,109.624C91.281,110.481 93.036,110.095 93.961,108.767C94.885,107.433 94.627,105.658 93.383,104.802L91.633,103.592C91.633,103.592 90.738,103.982 89.643,105.596C88.281,107.599 88.417,107.77 88.287,108.417Z" style="fill:rgb(253,214,178);fill-rule:nonzero;"/>
                            <g>
                                <path d="M75.55,100.268C75.407,100.169 75.374,99.974 75.474,99.832L78.636,95.414C78.736,95.272 78.93,95.242 79.07,95.344C79.211,95.444 79.245,95.639 79.142,95.778L75.982,100.196C75.88,100.337 75.687,100.371 75.55,100.268Z" style="fill:rgb(253,214,178);fill-rule:nonzero;"/>
                                <path d="M75.115,98.223C74.991,98.136 74.961,97.965 75.052,97.84L76.613,95.657C76.702,95.533 76.876,95.504 76.997,95.591C77.123,95.682 77.147,95.853 77.062,95.978L75.5,98.161C75.411,98.286 75.238,98.315 75.115,98.223Z" style="fill:rgb(253,214,178);fill-rule:nonzero;"/>
                            </g>
                        </g>
                    </g>
                    <path d="M71.538,74.579C70.486,74.257 69.855,73.26 70.105,72.169C70.255,71.507 69.245,71.182 69.091,71.851C68.714,73.499 69.585,75.094 71.221,75.591C71.875,75.79 72.193,74.778 71.538,74.579Z" style="fill:rgb(245,183,140);fill-rule:nonzero;"/>
                    <path d="M66.679,83.473C64.931,82.754 64.143,81.005 64.733,79.215C64.948,78.565 63.908,78.359 63.696,79.001C62.967,81.213 64.058,83.541 66.209,84.421C66.835,84.679 67.315,83.731 66.679,83.473Z" style="fill:rgb(245,183,140);fill-rule:nonzero;"/>
                    <path d="M60.832,89.502C59.588,89.012 58.936,87.734 59.342,86.443C59.545,85.797 58.562,85.402 58.356,86.056C57.776,87.892 58.635,89.779 60.444,90.488C61.08,90.74 61.47,89.751 60.832,89.502Z" style="fill:rgb(245,183,140);fill-rule:nonzero;"/>
                    <path d="M54.636,96.219C53.728,95.83 53.202,94.883 53.542,93.913C53.765,93.277 52.817,92.795 52.592,93.439C52.071,94.931 52.671,96.531 54.161,97.169C54.788,97.44 55.266,96.492 54.636,96.219Z" style="fill:rgb(245,183,140);fill-rule:nonzero;"/>
                </g>
                <path d="M30.84,79.499L9.972,63.258C8.033,61.746 8.327,58.129 10.63,55.171L25.099,36.577C27.4,33.619 30.837,32.445 32.776,33.955L53.646,50.197C55.586,51.706 32.781,81.008 30.84,79.499Z" style="fill:rgb(235,243,246);fill-rule:nonzero;"/>
            </g>
            <g>
                <path d="M53.557,61.696L61.195,56.472C61.195,56.472 62.166,55.293 65.937,55.01C71.891,54.565 83.708,51.842 83.708,51.842C90.988,54.004 90.346,60.461 90.346,60.461L71.291,64.107C71.291,64.107 62.518,63.425 60.333,64.792C55.021,68.105 52.387,62.638 52.387,62.638L53.557,61.696Z" style="fill:rgb(241,169,119);fill-rule:nonzero;"/>
                <path d="M57.503,58.98L52.409,62.249C52.409,62.249 53.557,63.327 54.533,63.184C55.613,63.024 57.892,60.533 57.503,58.98Z" style="fill:rgb(253,214,178);fill-rule:nonzero;"/>
                <path d="M54.333,63.866L63.465,61.44L72.069,60.377L65.957,60.053C65.957,60.053 63.452,59.884 61.579,60.881C60.13,61.651 54.333,63.866 54.333,63.866Z" style="fill:rgb(237,172,128);fill-rule:nonzero;"/>
                <path d="M62.853,57.918C63.016,57.882 63.112,57.719 63.076,57.557L62.738,56.071C62.699,55.907 62.534,55.807 62.376,55.848C62.212,55.886 62.113,56.051 62.151,56.211L62.49,57.698C62.527,57.862 62.689,57.963 62.853,57.918Z" style="fill:rgb(253,214,178);fill-rule:nonzero;"/>
                <path d="M63.796,56.944C63.96,56.903 64.058,56.743 64.017,56.579L63.859,55.776C63.823,55.614 63.658,55.516 63.497,55.553C63.333,55.592 63.236,55.757 63.273,55.918L63.428,56.72C63.47,56.884 63.633,56.982 63.796,56.944Z" style="fill:rgb(253,214,178);fill-rule:nonzero;"/>
            </g>
            <path d="M108.546,79.499L129.414,63.259C131.353,61.747 131.059,58.13 128.757,55.172L114.288,36.578C111.986,33.62 108.55,32.446 106.61,33.956L85.742,50.198C83.801,51.706 106.607,81.008 108.546,79.499Z" style="fill:rgb(235,243,246);fill-rule:nonzero;"/>
            <g>
                <path d="M51.611,47.008L23.716,23.554C13.797,33.437 7.148,46.59 5.498,61.257L26.668,79.058C28.775,80.698 53.72,48.645 51.611,47.008Z" style="fill:rgb(83,153,170);fill-rule:nonzero;"/>
                <path d="M111.45,78.391L131.373,61.547C129.787,46.84 123.172,33.642 113.275,23.711L86.504,46.341C84.397,47.978 109.342,80.031 111.45,78.391Z" style="fill:rgb(55,132,140);fill-rule:nonzero;"/>
            </g>
        </g>
    </g>
</svg>
