<?xml version="1.0" encoding="UTF-8" standalone="no"?>
<!DOCTYPE svg PUBLIC "-//W3C//DTD SVG 1.1//EN" "http://www.w3.org/Graphics/SVG/1.1/DTD/svg11.dtd">
<svg width="100%" height="100%" viewBox="0 0 137 136" version="1.1" xmlns="http://www.w3.org/2000/svg" xmlns:xlink="http://www.w3.org/1999/xlink" xml:space="preserve" style="fill-rule:evenodd;clip-rule:evenodd;stroke-linejoin:round;stroke-miterlimit:1.41421;">
    <circle cx="68.417" cy="68.417" r="63.333" style="fill:rgb(247,152,29);"/>
    <g transform="matrix(0.287348,0,0,0.287348,-3.92717,-4.33799)">
        <path d="M325.6,86.15L325.6,139.75L379.1,139.75L379.1,418.85L125.9,418.85L125.9,86.15L325.6,86.15Z" style="fill:white;fill-rule:nonzero;"/>
    </g>
    <g transform="matrix(0.287348,0,0,0.287348,-3.92717,-4.33799)">
        <path d="M325.6,86.15L379.1,139.75L325.6,139.75L325.6,86.15Z" style="fill:rgb(230,233,238);fill-rule:nonzero;"/>
    </g>
    <g transform="matrix(0.287348,0,0,0.287348,-3.92717,-4.33799)">
        <path d="M247.7,377.85L247.7,361.85C227.6,359.85 209.6,351.85 193.6,337.95L209.6,318.85C221.9,329.55 234.6,335.95 247.6,337.95L247.6,295.35C231,291.35 218.9,286.15 211.2,279.75C203.5,273.35 199.7,263.75 199.7,251.05C199.7,238.35 204.1,228.05 213,219.95C221.9,211.85 233.4,207.55 247.6,206.75L247.6,195.75L261.7,195.75L261.7,206.95C277.8,208.15 293,213.65 307.4,223.45L293.2,243.55C283.5,236.65 273.1,232.45 261.8,230.85L261.8,272.15L262.5,272.15C279.3,276.15 291.7,281.45 299.6,288.15C307.5,294.85 311.5,304.65 311.5,317.45C311.5,330.25 307,340.75 297.9,348.75C288.8,356.85 276.8,361.25 261.9,361.95L261.9,377.75L247.7,377.75L247.7,377.85ZM232.2,236.05C228.5,239.35 226.6,243.45 226.6,248.35C226.6,253.25 228.1,257.15 231,259.95C233.9,262.85 239.5,265.55 247.7,268.15L247.7,230.15C241.1,230.75 235.9,232.75 232.2,236.05ZM278.4,332.35C282.5,328.95 284.5,324.75 284.5,319.65C284.5,314.55 282.9,310.45 279.7,307.45C276.5,304.45 270.5,301.65 261.7,298.95L261.7,338.55C268.8,337.75 274.3,335.75 278.4,332.35Z" style="fill:rgb(247,152,29);fill-rule:nonzero;"/>
    </g>
    <g transform="matrix(0.603887,0,0,0.603887,14.7723,21.6001)">
        <text x="42.09px" y="39.968px" style="font-family:'Arial-BoldMT', 'Arial', sans-serif;font-weight:700;font-size:15.713px;fill:rgb(247,152,29);">DEBIT NOTE</text>
    </g>
</svg>
