<?xml version="1.0" encoding="UTF-8" standalone="no"?>
<!DOCTYPE svg PUBLIC "-//W3C//DTD SVG 1.1//EN" "http://www.w3.org/Graphics/SVG/1.1/DTD/svg11.dtd">
<svg width="100%" height="100%" viewBox="0 0 137 136" version="1.1" xmlns="http://www.w3.org/2000/svg" xmlns:xlink="http://www.w3.org/1999/xlink" xml:space="preserve" style="fill-rule:evenodd;clip-rule:evenodd;stroke-linejoin:round;stroke-miterlimit:1.41421;">
    <g>
        <circle cx="68.416" cy="68.417" r="63.333" style="fill:rgb(136,160,210);"/>
        <path d="M43.68,30.156C41.322,30.156 39.409,32.069 39.409,34.428L39.409,102.779C39.409,105.138 41.322,107.051 43.68,107.051L92.808,107.051C95.167,107.051 97.079,105.138 97.079,102.779L97.079,49.939L76.488,30.156L43.68,30.156Z" style="fill:rgb(245,245,245);fill-rule:nonzero;"/>
        <path d="M97.08,49.939L80.76,49.939C78.401,49.939 76.489,48.026 76.489,45.667L76.489,30.156L97.08,49.939Z" style="fill:rgb(225,225,225);fill-rule:nonzero;"/>
        <path d="M91.07,55.772C91.07,56.508 90.473,57.105 89.736,57.105L47.07,57.105C46.334,57.105 45.737,56.508 45.737,55.772C45.737,55.036 46.334,54.439 47.07,54.439L89.736,54.439C90.473,54.439 91.07,55.036 91.07,55.772Z" style="fill:rgb(201,201,200);fill-rule:nonzero;"/>
        <path d="M91.07,62.772C91.07,63.508 90.473,64.105 89.736,64.105L47.07,64.105C46.334,64.105 45.737,63.508 45.737,62.772C45.737,62.036 46.334,61.439 47.07,61.439L89.736,61.439C90.473,61.439 91.07,62.036 91.07,62.772Z" style="fill:rgb(201,201,200);fill-rule:nonzero;"/>
        <path d="M91.07,69.439C91.07,70.175 90.473,70.772 89.736,70.772L47.07,70.772C46.334,70.772 45.737,70.175 45.737,69.439C45.737,68.703 46.334,68.106 47.07,68.106L89.736,68.106C90.473,68.105 91.07,68.703 91.07,69.439Z" style="fill:rgb(201,201,200);fill-rule:nonzero;"/>
        <path d="M91.07,76.439C91.07,77.175 90.473,77.772 89.736,77.772L47.07,77.772C46.334,77.772 45.737,77.175 45.737,76.439C45.737,75.703 46.334,75.106 47.07,75.106L89.736,75.106C90.473,75.105 91.07,75.703 91.07,76.439Z" style="fill:rgb(201,201,200);fill-rule:nonzero;"/>
        <path d="M69.404,82.105L47.07,82.105C46.334,82.105 45.737,82.702 45.737,83.438C45.737,84.174 46.334,84.771 47.07,84.771L69.404,84.771C70.141,84.771 70.738,84.174 70.738,83.438C70.738,82.702 70.141,82.105 69.404,82.105Z" style="fill:rgb(201,201,200);fill-rule:nonzero;"/>
        <g>
            <circle cx="92.805" cy="100.77" r="15.25" style="fill:rgb(158,176,39);"/>
            <circle cx="93.18" cy="100.578" r="9.365" style="fill:rgb(172,195,55);"/>
            <g transform="matrix(1,0,0,1,-0.29583,-0.0236998)">
                <path d="M85.919,93.319C81.911,97.328 81.911,103.829 85.919,107.836C89.932,111.847 96.428,111.847 100.436,107.837C104.445,103.829 104.445,97.328 100.436,93.319C96.428,89.31 89.932,89.31 85.919,93.319ZM98.607,106.008C95.611,109.004 90.75,109.006 87.75,106.008C84.751,103.009 84.751,98.147 87.75,95.149C90.75,92.15 95.611,92.15 98.607,95.148C101.607,98.147 101.606,103.01 98.607,106.008Z" style="fill:rgb(235,237,239);fill-rule:nonzero;"/>
            </g>
            <path d="M88.096,99.574C87.907,99.993 88.089,100.492 88.508,100.684C88.926,100.88 89.426,100.693 89.619,100.277C89.619,100.277 89.626,100.257 89.666,100.183C89.957,99.652 91.357,97.394 94.317,97.12C94.675,97.085 94.958,96.83 95.045,96.5C95.068,96.408 95.08,96.308 95.068,96.206C95.024,95.746 94.615,95.408 94.156,95.454C89.794,95.901 88.14,99.488 88.096,99.574Z" style="fill:rgb(244,245,245);fill-opacity:0.694118;fill-rule:nonzero;"/>
        </g>
    </g>
</svg>
