<?xml version="1.0" encoding="UTF-8" standalone="no"?>
<!DOCTYPE svg PUBLIC "-//W3C//DTD SVG 1.1//EN" "http://www.w3.org/Graphics/SVG/1.1/DTD/svg11.dtd">
<svg width="100%" height="100%" viewBox="0 0 137 136" version="1.1" xmlns="http://www.w3.org/2000/svg" xmlns:xlink="http://www.w3.org/1999/xlink" xml:space="preserve" style="fill-rule:evenodd;clip-rule:evenodd;stroke-linejoin:round;stroke-miterlimit:1.41421;">
    <g>
        <circle cx="68.416" cy="68.417" r="63.333" style="fill:rgb(110,64,149);"/>
        <g transform="matrix(0.256207,0,0,0.255203,4.16462,3.11465)">
            <path d="M317.8,412.4L206.8,412.4C206.4,412.4 206.2,412.1 206.2,411.8L206.2,93.3C206.2,92.9 206.5,92.7 206.8,92.7L317.7,92.7C318.1,92.7 318.3,93 318.3,93.3L318.3,411.8C318.4,412.1 318.1,412.4 317.8,412.4Z" style="fill:white;fill-rule:nonzero;"/>
        </g>
        <g transform="matrix(0.256207,0,0,0.255203,4.16462,3.11465)">
            <rect x="228" y="115.8" width="68.6" height="169.4" style="fill:rgb(255,112,88);"/>
        </g>
        <g transform="matrix(0.256207,0,0,0.255203,4.16462,3.11465)">
            <rect x="228" y="295.9" width="68.6" height="12" style="fill:rgb(255,112,88);"/>
        </g>
        <g transform="matrix(0.256207,0,0,0.255203,4.16462,3.11465)">
            <circle cx="262.3" cy="369.4" r="19.8" style="fill:rgb(206,213,224);"/>
        </g>
        <g transform="matrix(0.256207,0,0,0.255203,4.16462,3.11465)">
            <path d="M188.3,412.4L99.1,412.4C98.7,412.4 98.5,412.1 98.5,411.8L98.5,182.9C98.5,182.5 98.8,182.3 99.1,182.3L188.3,182.3C188.7,182.3 188.9,182.6 188.9,182.9L188.9,411.7C188.9,412.1 188.6,412.4 188.3,412.4Z" style="fill:white;fill-rule:nonzero;"/>
        </g>
        <g transform="matrix(0.256207,0,0,0.255203,4.16462,3.11465)">
            <rect x="116" y="200.9" width="55.3" height="108.9" style="fill:rgb(76,219,196);"/>
        </g>
        <g transform="matrix(0.256207,0,0,0.255203,4.16462,3.11465)">
            <rect x="116" y="318.5" width="55.3" height="9.7" style="fill:rgb(76,219,196);"/>
        </g>
        <g transform="matrix(0.256207,0,0,0.255203,4.16462,3.11465)">
            <circle cx="143.7" cy="377.7" r="16" style="fill:rgb(206,213,224);"/>
        </g>
        <g transform="matrix(0.256207,0,0,0.255203,4.16462,3.11465)">
            <path d="M405.9,412.4L336.3,412.4C335.9,412.4 335.7,412.1 335.7,411.8L335.7,232.8C335.7,232.4 336,232.2 336.3,232.2L405.9,232.2C406.3,232.2 406.5,232.5 406.5,232.8L406.5,411.8C406.6,412.1 406.3,412.4 405.9,412.4Z" style="fill:white;fill-rule:nonzero;"/>
        </g>
        <g transform="matrix(0.256207,0,0,0.255203,4.16462,3.11465)">
            <rect x="349.5" y="246.7" width="43.3" height="85.4" style="fill:rgb(132,219,255);"/>
        </g>
        <g transform="matrix(0.256207,0,0,0.255203,4.16462,3.11465)">
            <rect x="349.5" y="338.8" width="43.3" height="7.6" style="fill:rgb(132,219,255);"/>
        </g>
        <g transform="matrix(0.256207,0,0,0.255203,4.16462,3.11465)">
            <circle cx="159.2" cy="345.3" r="8.8" style="fill:rgb(206,213,224);"/>
        </g>
        <g>
            <circle cx="92.805" cy="100.77" r="15.25" style="fill:rgb(158,176,39);"/>
            <g>
                <g>
                    <path d="M87.781,93.952L88.609,93.002L88.341,91.768L89.583,92.205C91.233,91.076 93.304,90.648 95.194,91.35C98.465,92.563 99.946,96.694 98.708,100.031L100.774,100.797C102.445,96.296 100.387,90.877 95.978,89.24C92.177,87.83 87.874,89.692 85.687,93.113C85.687,93.113 85.475,93.925 86.329,94.303C87.184,94.68 87.781,93.952 87.781,93.952Z" style="fill:rgb(244,224,40);fill-rule:nonzero;"/>
                    <path d="M101.623,108.855C101.623,109.86 100.79,110.676 99.761,110.676L86.421,110.676C85.396,110.676 84.561,109.86 84.561,108.855L84.561,98.077C84.561,97.071 101.624,97.071 101.624,98.077L101.624,108.855L101.623,108.855Z" style="fill:rgb(244,224,40);fill-rule:nonzero;"/>
                    <path d="M95.064,102.443C95.064,101.393 94.211,100.542 93.163,100.542C92.113,100.542 91.261,101.393 91.261,102.443C91.261,103.245 91.757,103.928 92.457,104.208L92.457,105.962C92.457,106.334 92.759,106.636 93.131,106.636C93.503,106.636 93.805,106.334 93.805,105.962L93.805,104.232C94.537,103.969 95.064,103.268 95.064,102.443Z" style="fill:rgb(218,196,37);fill-rule:nonzero;"/>
                    <path d="M91.189,102.443C91.189,101.393 92.042,100.542 93.091,100.542C93.091,100.542 91.766,101.425 91.766,102.476C91.766,103.546 92.766,104.181 92.766,104.181L92.766,105.982C92.766,106.354 93.122,106.636 93.122,106.636C92.751,106.636 92.449,106.334 92.449,105.962L92.449,104.232C91.716,103.969 91.189,103.268 91.189,102.443Z" style="fill:rgb(208,184,43);fill-rule:nonzero;"/>
                </g>
                <path d="M98.519,110.677L96.143,110.677L96.143,97.366L98.519,97.485L98.519,110.677Z" style="fill:rgb(248,227,73);fill-rule:nonzero;"/>
                <path d="M96.143,89.295L96.143,91.818C97.123,92.44 97.944,93.509 98.519,94.561L98.519,90.785C97.814,90.143 97.012,89.669 96.143,89.295Z" style="fill:rgb(248,227,73);fill-rule:nonzero;"/>
            </g>
        </g>
    </g>
</svg>
