<?xml version="1.0" encoding="UTF-8" standalone="no"?>
<!DOCTYPE svg PUBLIC "-//W3C//DTD SVG 1.1//EN" "http://www.w3.org/Graphics/SVG/1.1/DTD/svg11.dtd">
<svg width="100%" height="100%" viewBox="0 0 137 136" version="1.1" xmlns="http://www.w3.org/2000/svg" xmlns:xlink="http://www.w3.org/1999/xlink" xml:space="preserve" style="fill-rule:evenodd;clip-rule:evenodd;stroke-linejoin:round;stroke-miterlimit:1.41421;">
    <g>
        <circle cx="68.457" cy="68.457" r="63.333" style="fill:rgb(52,78,93);"/>
        <g>
            <path d="M108.915,105.291L27.707,105.291L27.707,37.382C27.707,34.361 30.156,31.913 33.177,31.913L103.446,31.913C106.467,31.913 108.916,34.36 108.916,37.382L108.916,105.291L108.915,105.291Z" style="fill:rgb(134,135,135);fill-rule:nonzero;"/>
            <g>
                <g>
                    <path d="M93.1,92.397C92.733,92.397 92.435,92.099 92.435,91.732L92.435,87.628C92.435,87.261 92.733,86.962 93.1,86.962L95.518,86.962C95.885,86.962 96.183,87.261 96.183,87.628L96.183,91.732C96.183,92.099 95.885,92.397 95.518,92.397L93.1,92.397Z" style="fill:rgb(225,224,224);fill-rule:nonzero;"/>
                    <path d="M100.166,92.397C99.799,92.397 99.5,92.099 99.5,91.732L99.5,87.628C99.5,87.261 99.799,86.962 100.166,86.962L102.583,86.962C102.95,86.962 103.248,87.261 103.248,87.628L103.248,91.732C103.248,92.099 102.95,92.397 102.583,92.397L100.166,92.397Z" style="fill:rgb(225,224,224);fill-rule:nonzero;"/>
                    <path d="M93.1,78.267C92.733,78.267 92.435,77.97 92.435,77.603L92.435,73.5C92.435,73.133 92.733,72.834 93.1,72.834L95.518,72.834C95.885,72.834 96.183,73.133 96.183,73.5L96.183,77.604C96.183,77.971 95.885,78.268 95.518,78.268L93.1,78.268L93.1,78.267Z" style="fill:rgb(225,224,224);fill-rule:nonzero;"/>
                    <path d="M100.166,78.267C99.799,78.267 99.5,77.97 99.5,77.603L99.5,73.5C99.5,73.133 99.799,72.834 100.166,72.834L102.583,72.834C102.95,72.834 103.248,73.133 103.248,73.5L103.248,77.604C103.248,77.971 102.95,78.268 102.583,78.268L100.166,78.268L100.166,78.267Z" style="fill:rgb(225,224,224);fill-rule:nonzero;"/>
                    <path d="M93.1,64.138C92.733,64.138 92.435,63.84 92.435,63.473L92.435,59.37C92.435,59.002 92.733,58.704 93.1,58.704L95.518,58.704C95.885,58.704 96.183,59.002 96.183,59.37L96.183,63.473C96.183,63.84 95.885,64.138 95.518,64.138L93.1,64.138Z" style="fill:rgb(225,224,224);fill-rule:nonzero;"/>
                    <path d="M100.166,64.138C99.799,64.138 99.5,63.84 99.5,63.473L99.5,59.37C99.5,59.002 99.799,58.704 100.166,58.704L102.583,58.704C102.95,58.704 103.248,59.002 103.248,59.37L103.248,63.473C103.248,63.84 102.95,64.138 102.583,64.138L100.166,64.138Z" style="fill:rgb(225,224,224);fill-rule:nonzero;"/>
                    <path d="M93.1,50.009C92.733,50.009 92.435,49.71 92.435,49.343L92.435,45.24C92.435,44.873 92.733,44.576 93.1,44.576L95.518,44.576C95.885,44.576 96.183,44.873 96.183,45.24L96.183,49.344C96.183,49.711 95.885,50.01 95.518,50.01L93.1,50.01L93.1,50.009Z" style="fill:rgb(225,224,224);fill-rule:nonzero;"/>
                    <path d="M100.166,50.009C99.799,50.009 99.5,49.71 99.5,49.343L99.5,45.24C99.5,44.873 99.799,44.576 100.166,44.576L102.583,44.576C102.95,44.576 103.248,44.873 103.248,45.24L103.248,49.344C103.248,49.711 102.95,50.01 102.583,50.01L100.166,50.01L100.166,50.009Z" style="fill:rgb(225,224,224);fill-rule:nonzero;"/>
                </g>
                <g>
                    <path d="M73.308,50.009C72.941,50.009 72.643,49.71 72.643,49.343L72.643,45.24C72.643,44.873 72.941,44.576 73.308,44.576L75.726,44.576C76.093,44.576 76.391,44.873 76.391,45.24L76.391,49.344C76.391,49.711 76.093,50.01 75.726,50.01L73.308,50.01L73.308,50.009Z" style="fill:rgb(225,224,224);fill-rule:nonzero;"/>
                    <path d="M80.374,50.009C80.007,50.009 79.708,49.71 79.708,49.343L79.708,45.24C79.708,44.873 80.007,44.576 80.374,44.576L82.791,44.576C83.158,44.576 83.456,44.873 83.456,45.24L83.456,49.344C83.456,49.711 83.158,50.01 82.791,50.01L80.374,50.01L80.374,50.009Z" style="fill:rgb(225,224,224);fill-rule:nonzero;"/>
                    <path d="M73.308,92.397C72.941,92.397 72.643,92.099 72.643,91.732L72.643,87.628C72.643,87.261 72.941,86.962 73.308,86.962L75.726,86.962C76.093,86.962 76.391,87.261 76.391,87.628L76.391,91.732C76.391,92.099 76.093,92.397 75.726,92.397L73.308,92.397Z" style="fill:rgb(225,224,224);fill-rule:nonzero;"/>
                    <path d="M80.374,92.397C80.007,92.397 79.708,92.099 79.708,91.732L79.708,87.628C79.708,87.261 80.007,86.962 80.374,86.962L82.791,86.962C83.158,86.962 83.456,87.261 83.456,87.628L83.456,91.732C83.456,92.099 83.158,92.397 82.791,92.397L80.374,92.397Z" style="fill:rgb(225,224,224);fill-rule:nonzero;"/>
                    <path d="M73.308,78.267C72.941,78.267 72.643,77.97 72.643,77.603L72.643,73.5C72.643,73.133 72.941,72.834 73.308,72.834L75.726,72.834C76.093,72.834 76.391,73.133 76.391,73.5L76.391,77.604C76.391,77.971 76.093,78.268 75.726,78.268L73.308,78.268L73.308,78.267Z" style="fill:rgb(225,224,224);fill-rule:nonzero;"/>
                    <path d="M80.374,78.267C80.007,78.267 79.708,77.97 79.708,77.603L79.708,73.5C79.708,73.133 80.007,72.834 80.374,72.834L82.791,72.834C83.158,72.834 83.456,73.133 83.456,73.5L83.456,77.604C83.456,77.971 83.158,78.268 82.791,78.268L80.374,78.268L80.374,78.267Z" style="fill:rgb(225,224,224);fill-rule:nonzero;"/>
                    <path d="M73.308,64.138C72.941,64.138 72.643,63.84 72.643,63.473L72.643,59.37C72.643,59.002 72.941,58.704 73.308,58.704L75.726,58.704C76.093,58.704 76.391,59.002 76.391,59.37L76.391,63.473C76.391,63.84 76.093,64.138 75.726,64.138L73.308,64.138Z" style="fill:rgb(225,224,224);fill-rule:nonzero;"/>
                    <path d="M80.374,64.138C80.007,64.138 79.708,63.84 79.708,63.473L79.708,59.37C79.708,59.002 80.007,58.704 80.374,58.704L82.791,58.704C83.158,58.704 83.456,59.002 83.456,59.37L83.456,63.473C83.456,63.84 83.158,64.138 82.791,64.138L80.374,64.138Z" style="fill:rgb(225,224,224);fill-rule:nonzero;"/>
                </g>
                <g>
                    <g>
                        <path d="M53.862,92.397C53.495,92.397 53.197,92.099 53.197,91.732L53.197,87.628C53.197,87.261 53.495,86.962 53.862,86.962L56.279,86.962C56.646,86.962 56.945,87.261 56.945,87.628L56.945,91.732C56.945,92.099 56.646,92.397 56.279,92.397L53.862,92.397Z" style="fill:rgb(225,224,224);fill-rule:nonzero;"/>
                        <path d="M60.927,92.397C60.56,92.397 60.261,92.099 60.261,91.732L60.261,87.628C60.261,87.261 60.56,86.962 60.927,86.962L63.343,86.962C63.71,86.962 64.009,87.261 64.009,87.628L64.009,91.732C64.009,92.099 63.71,92.397 63.343,92.397L60.927,92.397Z" style="fill:rgb(225,224,224);fill-rule:nonzero;"/>
                    </g>
                    <g>
                        <path d="M53.862,78.267C53.495,78.267 53.197,77.97 53.197,77.603L53.197,73.5C53.197,73.133 53.495,72.834 53.862,72.834L56.279,72.834C56.646,72.834 56.945,73.133 56.945,73.5L56.945,77.604C56.945,77.971 56.646,78.268 56.279,78.268L53.862,78.268L53.862,78.267Z" style="fill:rgb(225,224,224);fill-rule:nonzero;"/>
                        <path d="M60.927,78.267C60.56,78.267 60.261,77.97 60.261,77.603L60.261,73.5C60.261,73.133 60.56,72.834 60.927,72.834L63.343,72.834C63.71,72.834 64.009,73.133 64.009,73.5L64.009,77.604C64.009,77.971 63.71,78.268 63.343,78.268L60.927,78.268L60.927,78.267Z" style="fill:rgb(225,224,224);fill-rule:nonzero;"/>
                    </g>
                    <g>
                        <path d="M53.862,64.138C53.495,64.138 53.197,63.84 53.197,63.473L53.197,59.37C53.197,59.002 53.495,58.704 53.862,58.704L56.279,58.704C56.646,58.704 56.945,59.002 56.945,59.37L56.945,63.473C56.945,63.84 56.646,64.138 56.279,64.138L53.862,64.138Z" style="fill:rgb(225,224,224);fill-rule:nonzero;"/>
                        <path d="M60.927,64.138C60.56,64.138 60.261,63.84 60.261,63.473L60.261,59.37C60.261,59.002 60.56,58.704 60.927,58.704L63.343,58.704C63.71,58.704 64.009,59.002 64.009,59.37L64.009,63.473C64.009,63.84 63.71,64.138 63.343,64.138L60.927,64.138Z" style="fill:rgb(225,224,224);fill-rule:nonzero;"/>
                    </g>
                    <g>
                        <path d="M53.862,50.009C53.495,50.009 53.197,49.71 53.197,49.343L53.197,45.24C53.197,44.873 53.495,44.576 53.862,44.576L56.279,44.576C56.646,44.576 56.945,44.873 56.945,45.24L56.945,49.344C56.945,49.711 56.646,50.01 56.279,50.01L53.862,50.01L53.862,50.009Z" style="fill:rgb(225,224,224);fill-rule:nonzero;"/>
                        <path d="M60.927,50.009C60.56,50.009 60.261,49.71 60.261,49.343L60.261,45.24C60.261,44.873 60.56,44.576 60.927,44.576L63.343,44.576C63.71,44.576 64.009,44.873 64.009,45.24L64.009,49.344C64.009,49.711 63.71,50.01 63.343,50.01L60.927,50.01L60.927,50.009Z" style="fill:rgb(225,224,224);fill-rule:nonzero;"/>
                    </g>
                </g>
                <g>
                    <g>
                        <path d="M34.433,92.397C34.066,92.397 33.768,92.099 33.768,91.732L33.768,87.628C33.768,87.261 34.066,86.962 34.433,86.962L36.85,86.962C37.217,86.962 37.516,87.261 37.516,87.628L37.516,91.732C37.516,92.099 37.217,92.397 36.85,92.397L34.433,92.397Z" style="fill:rgb(225,224,224);fill-rule:nonzero;"/>
                        <path d="M41.499,92.397C41.132,92.397 40.833,92.099 40.833,91.732L40.833,87.628C40.833,87.261 41.132,86.962 41.499,86.962L43.915,86.962C44.282,86.962 44.581,87.261 44.581,87.628L44.581,91.732C44.581,92.099 44.282,92.397 43.915,92.397L41.499,92.397Z" style="fill:rgb(225,224,224);fill-rule:nonzero;"/>
                    </g>
                    <g>
                        <path d="M34.433,78.267C34.066,78.267 33.768,77.97 33.768,77.603L33.768,73.5C33.768,73.133 34.066,72.834 34.433,72.834L36.85,72.834C37.217,72.834 37.516,73.133 37.516,73.5L37.516,77.604C37.516,77.971 37.217,78.268 36.85,78.268L34.433,78.268L34.433,78.267Z" style="fill:rgb(225,224,224);fill-rule:nonzero;"/>
                        <path d="M41.499,78.267C41.132,78.267 40.833,77.97 40.833,77.603L40.833,73.5C40.833,73.133 41.132,72.834 41.499,72.834L43.915,72.834C44.282,72.834 44.581,73.133 44.581,73.5L44.581,77.604C44.581,77.971 44.282,78.268 43.915,78.268L41.499,78.268L41.499,78.267Z" style="fill:rgb(225,224,224);fill-rule:nonzero;"/>
                    </g>
                    <g>
                        <path d="M34.433,64.138C34.066,64.138 33.768,63.84 33.768,63.473L33.768,59.37C33.768,59.002 34.066,58.704 34.433,58.704L36.85,58.704C37.217,58.704 37.516,59.002 37.516,59.37L37.516,63.473C37.516,63.84 37.217,64.138 36.85,64.138L34.433,64.138Z" style="fill:rgb(225,224,224);fill-rule:nonzero;"/>
                        <path d="M41.499,64.138C41.132,64.138 40.833,63.84 40.833,63.473L40.833,59.37C40.833,59.002 41.132,58.704 41.499,58.704L43.915,58.704C44.282,58.704 44.581,59.002 44.581,59.37L44.581,63.473C44.581,63.84 44.282,64.138 43.915,64.138L41.499,64.138Z" style="fill:rgb(225,224,224);fill-rule:nonzero;"/>
                    </g>
                    <g>
                        <path d="M34.433,50.009C34.066,50.009 33.768,49.71 33.768,49.343L33.768,45.24C33.768,44.873 34.066,44.576 34.433,44.576L36.85,44.576C37.217,44.576 37.516,44.873 37.516,45.24L37.516,49.344C37.516,49.711 37.217,50.01 36.85,50.01L34.433,50.01L34.433,50.009Z" style="fill:rgb(225,224,224);fill-rule:nonzero;"/>
                        <path d="M41.499,50.009C41.132,50.009 40.833,49.71 40.833,49.343L40.833,45.24C40.833,44.873 41.132,44.576 41.499,44.576L43.915,44.576C44.282,44.576 44.581,44.873 44.581,45.24L44.581,49.344C44.581,49.711 44.282,50.01 43.915,50.01L41.499,50.01L41.499,50.009Z" style="fill:rgb(225,224,224);fill-rule:nonzero;"/>
                    </g>
                </g>
            </g>
            <path d="M27.707,37.382C27.707,34.361 30.156,31.913 33.177,31.913L103.446,31.913C106.467,31.913 108.916,34.36 108.916,37.382L27.707,37.382Z" style="fill:rgb(120,120,120);fill-rule:nonzero;"/>
            <path d="M53.872,103.335C53.505,103.335 53.207,103.038 53.207,102.671L53.207,98.567C53.207,98.2 53.505,97.901 53.872,97.901L63.353,97.901C63.72,97.901 64.019,98.2 64.019,98.567L64.019,102.671C64.019,103.038 63.72,103.335 63.353,103.335L53.872,103.335Z" style="fill:rgb(225,224,224);fill-rule:nonzero;"/>
            <path d="M73.308,103.335C72.941,103.335 72.643,103.038 72.643,102.671L72.643,98.567C72.643,98.2 72.941,97.901 73.308,97.901L82.79,97.901C83.157,97.901 83.455,98.2 83.455,98.567L83.455,102.671C83.455,103.038 83.157,103.335 82.79,103.335L73.308,103.335Z" style="fill:rgb(225,224,224);fill-rule:nonzero;"/>
            <g>
                <path d="M66.178,98.41C66.178,98.121 66.413,97.885 66.704,97.885L69.946,97.885C70.237,97.885 70.472,98.121 70.472,98.41L70.472,105.291L66.177,105.291L66.177,98.41L66.178,98.41Z" style="fill:rgb(77,76,76);fill-rule:nonzero;"/>
                <circle cx="66.85" cy="101.607" r="0.266" style="fill:rgb(205,204,203);"/>
            </g>
        </g>
        <g>
            <circle cx="92.805" cy="100.77" r="15.25" style="fill:rgb(204,32,39);"/>
            <g>
                <path d="M100.055,93.492C100.994,94.431 100.994,95.953 100.054,96.893L88.988,107.959C88.05,108.897 86.527,108.898 85.588,107.959C84.649,107.02 84.65,105.498 85.588,104.559L96.654,93.493C97.594,92.553 99.116,92.553 100.055,93.492Z" style="fill:white;fill-rule:nonzero;"/>
                <path d="M100.055,107.959C99.117,108.898 97.595,108.898 96.655,107.958L85.588,96.892C84.65,95.954 84.649,94.431 85.588,93.492C86.527,92.553 88.05,92.554 88.988,93.492L100.054,104.558C100.994,105.498 100.994,107.02 100.055,107.959Z" style="fill:white;fill-rule:nonzero;"/>
            </g>
        </g>
    </g>
</svg>
