<?xml version="1.0" encoding="UTF-8" standalone="no"?>
<!DOCTYPE svg PUBLIC "-//W3C//DTD SVG 1.1//EN" "http://www.w3.org/Graphics/SVG/1.1/DTD/svg11.dtd">
<svg width="100%" height="100%" viewBox="0 0 137 136" version="1.1" xmlns="http://www.w3.org/2000/svg" xmlns:xlink="http://www.w3.org/1999/xlink" xml:space="preserve" style="fill-rule:evenodd;clip-rule:evenodd;stroke-linejoin:round;stroke-miterlimit:1.41421;">
    <g>
        <circle cx="68.416" cy="68.417" r="63.333" style="fill:rgb(136,160,210);"/>
        <g transform="matrix(3.27869,0,0,3.27869,-235.454,-261.81)">
            <circle cx="92.805" cy="100.77" r="15.25" style="fill:rgb(158,176,39);"/>
            <circle cx="93.18" cy="100.578" r="9.365" style="fill:rgb(172,195,55);"/>
            <g transform="matrix(1,0,0,1,-0.29583,-0.0236998)">
                <path d="M85.919,93.319C81.911,97.328 81.911,103.829 85.919,107.836C89.932,111.847 96.428,111.847 100.436,107.837C104.445,103.829 104.445,97.328 100.436,93.319C96.428,89.31 89.932,89.31 85.919,93.319ZM98.607,106.008C95.611,109.004 90.75,109.006 87.75,106.008C84.751,103.009 84.751,98.147 87.75,95.149C90.75,92.15 95.611,92.15 98.607,95.148C101.607,98.147 101.606,103.01 98.607,106.008Z" style="fill:rgb(235,237,239);fill-rule:nonzero;"/>
            </g>
            <path d="M88.096,99.574C87.907,99.993 88.089,100.492 88.508,100.684C88.926,100.88 89.426,100.693 89.619,100.277C89.619,100.277 89.626,100.257 89.666,100.183C89.957,99.652 91.357,97.394 94.317,97.12C94.675,97.085 94.958,96.83 95.045,96.5C95.068,96.408 95.08,96.308 95.068,96.206C95.024,95.746 94.615,95.408 94.156,95.454C89.794,95.901 88.14,99.488 88.096,99.574Z" style="fill:rgb(244,245,245);fill-opacity:0.694118;fill-rule:nonzero;"/>
        </g>
        <g transform="matrix(0.4375,0,0,0.4375,66.1353,64.6907)">
            <g transform="matrix(0.832682,0,0,0.790979,6.03588,3.82052)">
                <g transform="matrix(0.257123,0,0,0.257123,2.90147,3.40688)">
                    <path d="M412.6,399L92.4,399C90.8,399 89.5,397.7 89.5,396.1L89.5,108.9C89.5,107.3 90.8,106 92.4,106L412.7,106C414.3,106 415.6,107.3 415.6,108.9L415.6,396.2C415.5,397.7 414.2,399 412.6,399Z" style="fill:rgb(50,74,94);fill-rule:nonzero;"/>
                </g>
                <g transform="matrix(0.257123,0,0,0.257123,2.90147,3.40688)">
                    <rect x="111.4" y="184" width="282.1" height="193.1" style="fill:white;"/>
                </g>
                <g transform="matrix(0.257123,0,0,0.257123,2.90147,3.40688)">
                    <path d="M380,156.7C373.5,156.7 368.2,151.4 368.2,144.9C368.2,138.4 373.5,133.1 380,133.1C386.5,133.1 391.8,138.4 391.8,144.9C391.8,151.5 386.5,156.7 380,156.7Z" style="fill:rgb(132,219,255);fill-rule:nonzero;"/>
                </g>
                <g transform="matrix(0.257123,0,0,0.257123,2.90147,3.40688)">
                    <path d="M341.5,156.7C335,156.7 329.7,151.4 329.7,144.9C329.7,138.4 335,133.1 341.5,133.1C348,133.1 353.3,138.4 353.3,144.9C353.2,151.5 348,156.7 341.5,156.7Z" style="fill:rgb(132,219,255);fill-rule:nonzero;"/>
                </g>
                <g transform="matrix(0.257123,0,0,0.257123,2.90147,3.40688)">
                    <path d="M302.9,156.7C296.4,156.7 291.1,151.4 291.1,144.9C291.1,138.4 296.4,133.1 302.9,133.1C309.4,133.1 314.7,138.4 314.7,144.9C314.7,151.5 309.4,156.7 302.9,156.7Z" style="fill:rgb(132,219,255);fill-rule:nonzero;"/>
                </g>
                <g transform="matrix(0.257123,0,0,0.257123,2.90147,3.40688)">
                    <path d="M222.2,156.7L123.2,156.7C116.7,156.7 111.4,151.4 111.4,144.9C111.4,138.4 116.7,133.1 123.2,133.1L222.2,133.1C228.7,133.1 234,138.4 234,144.9C233.9,151.5 228.7,156.7 222.2,156.7Z" style="fill:white;fill-rule:nonzero;"/>
                </g>
                <g transform="matrix(0.257123,0,0,0.257123,2.90147,3.40688)">
                    <rect x="154.2" y="240.9" width="196.6" height="9.5" style="fill:rgb(230,233,238);"/>
                </g>
                <g transform="matrix(0.257123,0,0,0.257123,2.90147,3.40688)">
                    <rect x="154.2" y="275.8" width="196.6" height="9.5" style="fill:rgb(230,233,238);"/>
                </g>
                <g transform="matrix(0.257123,0,0,0.257123,2.90147,3.40688)">
                    <rect x="154.2" y="310.6" width="99.7" height="9.5" style="fill:rgb(230,233,238);"/>
                </g>
            </g>
            <g transform="matrix(0.832682,0,0,0.790979,16.2173,24.2305)">
                <g transform="matrix(0.257123,0,0,0.257123,2.90147,3.40688)">
                    <path d="M412.6,399L92.4,399C90.8,399 89.5,397.7 89.5,396.1L89.5,108.9C89.5,107.3 90.8,106 92.4,106L412.7,106C414.3,106 415.6,107.3 415.6,108.9L415.6,396.2C415.5,397.7 414.2,399 412.6,399Z" style="fill:rgb(50,74,94);fill-rule:nonzero;"/>
                </g>
                <g transform="matrix(0.257123,0,0,0.257123,2.90147,3.40688)">
                    <rect x="111.4" y="184" width="282.1" height="193.1" style="fill:white;"/>
                </g>
                <g transform="matrix(0.257123,0,0,0.257123,2.90147,3.40688)">
                    <path d="M380,156.7C373.5,156.7 368.2,151.4 368.2,144.9C368.2,138.4 373.5,133.1 380,133.1C386.5,133.1 391.8,138.4 391.8,144.9C391.8,151.5 386.5,156.7 380,156.7Z" style="fill:rgb(132,219,255);fill-rule:nonzero;"/>
                </g>
                <g transform="matrix(0.257123,0,0,0.257123,2.90147,3.40688)">
                    <path d="M341.5,156.7C335,156.7 329.7,151.4 329.7,144.9C329.7,138.4 335,133.1 341.5,133.1C348,133.1 353.3,138.4 353.3,144.9C353.2,151.5 348,156.7 341.5,156.7Z" style="fill:rgb(132,219,255);fill-rule:nonzero;"/>
                </g>
                <g transform="matrix(0.257123,0,0,0.257123,2.90147,3.40688)">
                    <path d="M302.9,156.7C296.4,156.7 291.1,151.4 291.1,144.9C291.1,138.4 296.4,133.1 302.9,133.1C309.4,133.1 314.7,138.4 314.7,144.9C314.7,151.5 309.4,156.7 302.9,156.7Z" style="fill:rgb(132,219,255);fill-rule:nonzero;"/>
                </g>
                <g transform="matrix(0.257123,0,0,0.257123,2.90147,3.40688)">
                    <path d="M222.2,156.7L123.2,156.7C116.7,156.7 111.4,151.4 111.4,144.9C111.4,138.4 116.7,133.1 123.2,133.1L222.2,133.1C228.7,133.1 234,138.4 234,144.9C233.9,151.5 228.7,156.7 222.2,156.7Z" style="fill:white;fill-rule:nonzero;"/>
                </g>
                <g transform="matrix(0.257123,0,0,0.257123,2.90147,3.40688)">
                    <rect x="154.2" y="240.9" width="196.6" height="9.5" style="fill:rgb(230,233,238);"/>
                </g>
                <g transform="matrix(0.257123,0,0,0.257123,2.90147,3.40688)">
                    <rect x="154.2" y="275.8" width="196.6" height="9.5" style="fill:rgb(230,233,238);"/>
                </g>
                <g transform="matrix(0.257123,0,0,0.257123,2.90147,3.40688)">
                    <rect x="154.2" y="310.6" width="99.7" height="9.5" style="fill:rgb(230,233,238);"/>
                </g>
            </g>
        </g>
    </g>
</svg>
