<?xml version="1.0" encoding="UTF-8" standalone="no"?>
<!DOCTYPE svg PUBLIC "-//W3C//DTD SVG 1.1//EN" "http://www.w3.org/Graphics/SVG/1.1/DTD/svg11.dtd">
<svg width="100%" height="100%" viewBox="0 0 137 136" version="1.1" xmlns="http://www.w3.org/2000/svg" xmlns:xlink="http://www.w3.org/1999/xlink" xml:space="preserve" style="fill-rule:evenodd;clip-rule:evenodd;stroke-linejoin:round;stroke-miterlimit:1.41421;">
    <g>
        <circle cx="68.301" cy="67.849" r="63.333" style="fill:rgb(44,157,216);"/>
        <g>
            <g transform="matrix(0.257123,0,0,0.257123,2.90147,3.40688)">
                <path d="M412.6,399L92.4,399C90.8,399 89.5,397.7 89.5,396.1L89.5,108.9C89.5,107.3 90.8,106 92.4,106L412.7,106C414.3,106 415.6,107.3 415.6,108.9L415.6,396.2C415.5,397.7 414.2,399 412.6,399Z" style="fill:rgb(50,74,94);fill-rule:nonzero;"/>
            </g>
            <g transform="matrix(0.257123,0,0,0.257123,2.90147,3.40688)">
                <rect x="111.4" y="184" width="282.1" height="193.1" style="fill:white;"/>
            </g>
            <g transform="matrix(0.257123,0,0,0.257123,2.90147,3.40688)">
                <path d="M380,156.7C373.5,156.7 368.2,151.4 368.2,144.9C368.2,138.4 373.5,133.1 380,133.1C386.5,133.1 391.8,138.4 391.8,144.9C391.8,151.5 386.5,156.7 380,156.7Z" style="fill:rgb(132,219,255);fill-rule:nonzero;"/>
            </g>
            <g transform="matrix(0.257123,0,0,0.257123,2.90147,3.40688)">
                <path d="M341.5,156.7C335,156.7 329.7,151.4 329.7,144.9C329.7,138.4 335,133.1 341.5,133.1C348,133.1 353.3,138.4 353.3,144.9C353.2,151.5 348,156.7 341.5,156.7Z" style="fill:rgb(132,219,255);fill-rule:nonzero;"/>
            </g>
            <g transform="matrix(0.257123,0,0,0.257123,2.90147,3.40688)">
                <path d="M302.9,156.7C296.4,156.7 291.1,151.4 291.1,144.9C291.1,138.4 296.4,133.1 302.9,133.1C309.4,133.1 314.7,138.4 314.7,144.9C314.7,151.5 309.4,156.7 302.9,156.7Z" style="fill:rgb(132,219,255);fill-rule:nonzero;"/>
            </g>
            <g transform="matrix(0.257123,0,0,0.257123,2.90147,3.40688)">
                <path d="M222.2,156.7L123.2,156.7C116.7,156.7 111.4,151.4 111.4,144.9C111.4,138.4 116.7,133.1 123.2,133.1L222.2,133.1C228.7,133.1 234,138.4 234,144.9C233.9,151.5 228.7,156.7 222.2,156.7Z" style="fill:white;fill-rule:nonzero;"/>
            </g>
            <g transform="matrix(0.257123,0,0,0.257123,2.90147,3.40688)">
                <rect x="154.2" y="240.9" width="196.6" height="9.5" style="fill:rgb(230,233,238);"/>
            </g>
            <g transform="matrix(0.257123,0,0,0.257123,2.90147,3.40688)">
                <rect x="154.2" y="275.8" width="196.6" height="9.5" style="fill:rgb(230,233,238);"/>
            </g>
            <g transform="matrix(0.257123,0,0,0.257123,2.90147,3.40688)">
                <rect x="154.2" y="310.6" width="99.7" height="9.5" style="fill:rgb(230,233,238);"/>
            </g>
        </g>
        <g>
            <circle cx="92.805" cy="100.77" r="15.25" style="fill:rgb(14,162,74);"/>
            <g>
                <path d="M103.051,100.726C103.051,102.054 101.975,103.13 100.646,103.13L84.996,103.13C83.669,103.13 82.592,102.054 82.592,100.726C82.592,99.398 83.669,98.322 84.996,98.322L100.646,98.322C101.975,98.321 103.051,99.397 103.051,100.726Z" style="fill:white;fill-rule:nonzero;"/>
                <path d="M92.821,110.955C91.493,110.955 90.417,109.879 90.417,108.55L90.417,92.9C90.417,91.573 91.493,90.496 92.821,90.496C94.149,90.496 95.225,91.573 95.225,92.9L95.225,108.55C95.226,109.879 94.149,110.955 92.821,110.955Z" style="fill:white;fill-rule:nonzero;"/>
            </g>
        </g>
    </g>
</svg>
