<?xml version="1.0" encoding="UTF-8" standalone="no"?>
<!DOCTYPE svg PUBLIC "-//W3C//DTD SVG 1.1//EN" "http://www.w3.org/Graphics/SVG/1.1/DTD/svg11.dtd">
<svg width="100%" height="100%" viewBox="0 0 137 136" version="1.1" xmlns="http://www.w3.org/2000/svg" xmlns:xlink="http://www.w3.org/1999/xlink" xml:space="preserve" style="fill-rule:evenodd;clip-rule:evenodd;stroke-linejoin:round;stroke-miterlimit:1.41421;">
    <g>
        <circle cx="68.301" cy="67.849" r="63.333" style="fill:rgb(44,157,216);"/>
        <g>
            <g transform="matrix(0.832682,0,0,0.790979,6.03588,3.82052)">
                <g transform="matrix(0.257123,0,0,0.257123,2.90147,3.40688)">
                    <path d="M412.6,399L92.4,399C90.8,399 89.5,397.7 89.5,396.1L89.5,108.9C89.5,107.3 90.8,106 92.4,106L412.7,106C414.3,106 415.6,107.3 415.6,108.9L415.6,396.2C415.5,397.7 414.2,399 412.6,399Z" style="fill:rgb(50,74,94);fill-rule:nonzero;"/>
                </g>
                <g transform="matrix(0.257123,0,0,0.257123,2.90147,3.40688)">
                    <rect x="111.4" y="184" width="282.1" height="193.1" style="fill:white;"/>
                </g>
                <g transform="matrix(0.257123,0,0,0.257123,2.90147,3.40688)">
                    <path d="M380,156.7C373.5,156.7 368.2,151.4 368.2,144.9C368.2,138.4 373.5,133.1 380,133.1C386.5,133.1 391.8,138.4 391.8,144.9C391.8,151.5 386.5,156.7 380,156.7Z" style="fill:rgb(132,219,255);fill-rule:nonzero;"/>
                </g>
                <g transform="matrix(0.257123,0,0,0.257123,2.90147,3.40688)">
                    <path d="M341.5,156.7C335,156.7 329.7,151.4 329.7,144.9C329.7,138.4 335,133.1 341.5,133.1C348,133.1 353.3,138.4 353.3,144.9C353.2,151.5 348,156.7 341.5,156.7Z" style="fill:rgb(132,219,255);fill-rule:nonzero;"/>
                </g>
                <g transform="matrix(0.257123,0,0,0.257123,2.90147,3.40688)">
                    <path d="M302.9,156.7C296.4,156.7 291.1,151.4 291.1,144.9C291.1,138.4 296.4,133.1 302.9,133.1C309.4,133.1 314.7,138.4 314.7,144.9C314.7,151.5 309.4,156.7 302.9,156.7Z" style="fill:rgb(132,219,255);fill-rule:nonzero;"/>
                </g>
                <g transform="matrix(0.257123,0,0,0.257123,2.90147,3.40688)">
                    <path d="M222.2,156.7L123.2,156.7C116.7,156.7 111.4,151.4 111.4,144.9C111.4,138.4 116.7,133.1 123.2,133.1L222.2,133.1C228.7,133.1 234,138.4 234,144.9C233.9,151.5 228.7,156.7 222.2,156.7Z" style="fill:white;fill-rule:nonzero;"/>
                </g>
                <g transform="matrix(0.257123,0,0,0.257123,2.90147,3.40688)">
                    <rect x="154.2" y="240.9" width="196.6" height="9.5" style="fill:rgb(230,233,238);"/>
                </g>
                <g transform="matrix(0.257123,0,0,0.257123,2.90147,3.40688)">
                    <rect x="154.2" y="275.8" width="196.6" height="9.5" style="fill:rgb(230,233,238);"/>
                </g>
                <g transform="matrix(0.257123,0,0,0.257123,2.90147,3.40688)">
                    <rect x="154.2" y="310.6" width="99.7" height="9.5" style="fill:rgb(230,233,238);"/>
                </g>
            </g>
            <g transform="matrix(0.832682,0,0,0.790979,16.2173,24.2305)">
                <g transform="matrix(0.257123,0,0,0.257123,2.90147,3.40688)">
                    <path d="M412.6,399L92.4,399C90.8,399 89.5,397.7 89.5,396.1L89.5,108.9C89.5,107.3 90.8,106 92.4,106L412.7,106C414.3,106 415.6,107.3 415.6,108.9L415.6,396.2C415.5,397.7 414.2,399 412.6,399Z" style="fill:rgb(50,74,94);fill-rule:nonzero;"/>
                </g>
                <g transform="matrix(0.257123,0,0,0.257123,2.90147,3.40688)">
                    <rect x="111.4" y="184" width="282.1" height="193.1" style="fill:white;"/>
                </g>
                <g transform="matrix(0.257123,0,0,0.257123,2.90147,3.40688)">
                    <path d="M380,156.7C373.5,156.7 368.2,151.4 368.2,144.9C368.2,138.4 373.5,133.1 380,133.1C386.5,133.1 391.8,138.4 391.8,144.9C391.8,151.5 386.5,156.7 380,156.7Z" style="fill:rgb(132,219,255);fill-rule:nonzero;"/>
                </g>
                <g transform="matrix(0.257123,0,0,0.257123,2.90147,3.40688)">
                    <path d="M341.5,156.7C335,156.7 329.7,151.4 329.7,144.9C329.7,138.4 335,133.1 341.5,133.1C348,133.1 353.3,138.4 353.3,144.9C353.2,151.5 348,156.7 341.5,156.7Z" style="fill:rgb(132,219,255);fill-rule:nonzero;"/>
                </g>
                <g transform="matrix(0.257123,0,0,0.257123,2.90147,3.40688)">
                    <path d="M302.9,156.7C296.4,156.7 291.1,151.4 291.1,144.9C291.1,138.4 296.4,133.1 302.9,133.1C309.4,133.1 314.7,138.4 314.7,144.9C314.7,151.5 309.4,156.7 302.9,156.7Z" style="fill:rgb(132,219,255);fill-rule:nonzero;"/>
                </g>
                <g transform="matrix(0.257123,0,0,0.257123,2.90147,3.40688)">
                    <path d="M222.2,156.7L123.2,156.7C116.7,156.7 111.4,151.4 111.4,144.9C111.4,138.4 116.7,133.1 123.2,133.1L222.2,133.1C228.7,133.1 234,138.4 234,144.9C233.9,151.5 228.7,156.7 222.2,156.7Z" style="fill:white;fill-rule:nonzero;"/>
                </g>
                <g transform="matrix(0.257123,0,0,0.257123,2.90147,3.40688)">
                    <rect x="154.2" y="240.9" width="196.6" height="9.5" style="fill:rgb(230,233,238);"/>
                </g>
                <g transform="matrix(0.257123,0,0,0.257123,2.90147,3.40688)">
                    <rect x="154.2" y="275.8" width="196.6" height="9.5" style="fill:rgb(230,233,238);"/>
                </g>
                <g transform="matrix(0.257123,0,0,0.257123,2.90147,3.40688)">
                    <rect x="154.2" y="310.6" width="99.7" height="9.5" style="fill:rgb(230,233,238);"/>
                </g>
            </g>
        </g>
        <g>
            <circle cx="92.805" cy="100.77" r="15.25" style="fill:rgb(14,162,74);"/>
            <g>
                <path d="M102.666,99.172C99.889,96.395 97.113,93.619 94.336,90.841C93.499,90.004 92.106,90.027 91.275,90.858C88.498,93.634 85.718,96.412 82.944,99.189C80.971,101.162 84.044,104.21 86.019,102.234C88.795,99.457 91.574,96.679 94.352,93.902C93.333,93.907 92.311,93.913 91.289,93.919C94.066,96.695 96.844,99.473 99.621,102.251C101.593,104.221 104.642,101.15 102.666,99.172Z" style="fill:white;fill-rule:nonzero;"/>
                <g>
                    <path d="M92.812,92.826L92.812,110.02" style="fill:white;fill-rule:nonzero;"/>
                    <path d="M90.648,92.811C90.648,99.383 90.648,103.432 90.648,110.004C90.648,112.799 94.977,112.824 94.977,110.036C94.977,103.462 94.977,99.415 94.977,92.842C94.977,90.046 90.648,90.022 90.648,92.811Z" style="fill:white;fill-rule:nonzero;"/>
                </g>
            </g>
        </g>
    </g>
</svg>
