<?xml version="1.0" encoding="UTF-8" standalone="no"?>
<!DOCTYPE svg PUBLIC "-//W3C//DTD SVG 1.1//EN" "http://www.w3.org/Graphics/SVG/1.1/DTD/svg11.dtd">
<svg width="100%" height="100%" viewBox="0 0 137 136" version="1.1" xmlns="http://www.w3.org/2000/svg" xmlns:xlink="http://www.w3.org/1999/xlink" xml:space="preserve" style="fill-rule:evenodd;clip-rule:evenodd;stroke-linejoin:round;stroke-miterlimit:1.41421;">
    <g>
        <circle cx="68.416" cy="68.417" r="63.333" style="fill:rgb(110,64,149);"/>
        <g>
            <g transform="matrix(0.832682,0,0,0.790979,6.03588,3.82052)">
                <g transform="matrix(0.257123,0,0,0.257123,2.90147,3.40688)">
                    <path d="M412.6,399L92.4,399C90.8,399 89.5,397.7 89.5,396.1L89.5,108.9C89.5,107.3 90.8,106 92.4,106L412.7,106C414.3,106 415.6,107.3 415.6,108.9L415.6,396.2C415.5,397.7 414.2,399 412.6,399Z" style="fill:rgb(50,74,94);fill-rule:nonzero;"/>
                </g>
                <g transform="matrix(0.257123,0,0,0.257123,2.90147,3.40688)">
                    <rect x="111.4" y="184" width="282.1" height="193.1" style="fill:white;"/>
                </g>
                <g transform="matrix(0.257123,0,0,0.257123,2.90147,3.40688)">
                    <path d="M380,156.7C373.5,156.7 368.2,151.4 368.2,144.9C368.2,138.4 373.5,133.1 380,133.1C386.5,133.1 391.8,138.4 391.8,144.9C391.8,151.5 386.5,156.7 380,156.7Z" style="fill:rgb(132,219,255);fill-rule:nonzero;"/>
                </g>
                <g transform="matrix(0.257123,0,0,0.257123,2.90147,3.40688)">
                    <path d="M341.5,156.7C335,156.7 329.7,151.4 329.7,144.9C329.7,138.4 335,133.1 341.5,133.1C348,133.1 353.3,138.4 353.3,144.9C353.2,151.5 348,156.7 341.5,156.7Z" style="fill:rgb(132,219,255);fill-rule:nonzero;"/>
                </g>
                <g transform="matrix(0.257123,0,0,0.257123,2.90147,3.40688)">
                    <path d="M302.9,156.7C296.4,156.7 291.1,151.4 291.1,144.9C291.1,138.4 296.4,133.1 302.9,133.1C309.4,133.1 314.7,138.4 314.7,144.9C314.7,151.5 309.4,156.7 302.9,156.7Z" style="fill:rgb(132,219,255);fill-rule:nonzero;"/>
                </g>
                <g transform="matrix(0.257123,0,0,0.257123,2.90147,3.40688)">
                    <path d="M222.2,156.7L123.2,156.7C116.7,156.7 111.4,151.4 111.4,144.9C111.4,138.4 116.7,133.1 123.2,133.1L222.2,133.1C228.7,133.1 234,138.4 234,144.9C233.9,151.5 228.7,156.7 222.2,156.7Z" style="fill:white;fill-rule:nonzero;"/>
                </g>
                <g transform="matrix(0.257123,0,0,0.257123,2.90147,3.40688)">
                    <rect x="154.2" y="240.9" width="196.6" height="9.5" style="fill:rgb(230,233,238);"/>
                </g>
                <g transform="matrix(0.257123,0,0,0.257123,2.90147,3.40688)">
                    <rect x="154.2" y="275.8" width="196.6" height="9.5" style="fill:rgb(230,233,238);"/>
                </g>
                <g transform="matrix(0.257123,0,0,0.257123,2.90147,3.40688)">
                    <rect x="154.2" y="310.6" width="99.7" height="9.5" style="fill:rgb(230,233,238);"/>
                </g>
            </g>
            <g transform="matrix(0.832682,0,0,0.790979,16.2173,24.2305)">
                <g transform="matrix(0.257123,0,0,0.257123,2.90147,3.40688)">
                    <path d="M412.6,399L92.4,399C90.8,399 89.5,397.7 89.5,396.1L89.5,108.9C89.5,107.3 90.8,106 92.4,106L412.7,106C414.3,106 415.6,107.3 415.6,108.9L415.6,396.2C415.5,397.7 414.2,399 412.6,399Z" style="fill:rgb(50,74,94);fill-rule:nonzero;"/>
                </g>
                <g transform="matrix(0.257123,0,0,0.257123,2.90147,3.40688)">
                    <rect x="111.4" y="184" width="282.1" height="193.1" style="fill:white;"/>
                </g>
                <g transform="matrix(0.257123,0,0,0.257123,2.90147,3.40688)">
                    <path d="M380,156.7C373.5,156.7 368.2,151.4 368.2,144.9C368.2,138.4 373.5,133.1 380,133.1C386.5,133.1 391.8,138.4 391.8,144.9C391.8,151.5 386.5,156.7 380,156.7Z" style="fill:rgb(132,219,255);fill-rule:nonzero;"/>
                </g>
                <g transform="matrix(0.257123,0,0,0.257123,2.90147,3.40688)">
                    <path d="M341.5,156.7C335,156.7 329.7,151.4 329.7,144.9C329.7,138.4 335,133.1 341.5,133.1C348,133.1 353.3,138.4 353.3,144.9C353.2,151.5 348,156.7 341.5,156.7Z" style="fill:rgb(132,219,255);fill-rule:nonzero;"/>
                </g>
                <g transform="matrix(0.257123,0,0,0.257123,2.90147,3.40688)">
                    <path d="M302.9,156.7C296.4,156.7 291.1,151.4 291.1,144.9C291.1,138.4 296.4,133.1 302.9,133.1C309.4,133.1 314.7,138.4 314.7,144.9C314.7,151.5 309.4,156.7 302.9,156.7Z" style="fill:rgb(132,219,255);fill-rule:nonzero;"/>
                </g>
                <g transform="matrix(0.257123,0,0,0.257123,2.90147,3.40688)">
                    <path d="M222.2,156.7L123.2,156.7C116.7,156.7 111.4,151.4 111.4,144.9C111.4,138.4 116.7,133.1 123.2,133.1L222.2,133.1C228.7,133.1 234,138.4 234,144.9C233.9,151.5 228.7,156.7 222.2,156.7Z" style="fill:white;fill-rule:nonzero;"/>
                </g>
                <g transform="matrix(0.257123,0,0,0.257123,2.90147,3.40688)">
                    <rect x="154.2" y="240.9" width="196.6" height="9.5" style="fill:rgb(230,233,238);"/>
                </g>
                <g transform="matrix(0.257123,0,0,0.257123,2.90147,3.40688)">
                    <rect x="154.2" y="275.8" width="196.6" height="9.5" style="fill:rgb(230,233,238);"/>
                </g>
                <g transform="matrix(0.257123,0,0,0.257123,2.90147,3.40688)">
                    <rect x="154.2" y="310.6" width="99.7" height="9.5" style="fill:rgb(230,233,238);"/>
                </g>
            </g>
        </g>
        <g>
            <circle cx="92.805" cy="100.77" r="15.25" style="fill:rgb(158,176,39);"/>
            <g>
                <g>
                    <path d="M87.781,93.952L88.609,93.002L88.341,91.768L89.583,92.205C91.233,91.076 93.304,90.648 95.194,91.35C98.465,92.563 99.946,96.694 98.708,100.031L100.774,100.797C102.445,96.296 100.387,90.877 95.978,89.24C92.177,87.83 87.874,89.692 85.687,93.113C85.687,93.113 85.475,93.925 86.329,94.303C87.184,94.68 87.781,93.952 87.781,93.952Z" style="fill:rgb(244,224,40);fill-rule:nonzero;"/>
                    <path d="M101.623,108.855C101.623,109.86 100.79,110.676 99.761,110.676L86.421,110.676C85.396,110.676 84.561,109.86 84.561,108.855L84.561,98.077C84.561,97.071 101.624,97.071 101.624,98.077L101.624,108.855L101.623,108.855Z" style="fill:rgb(244,224,40);fill-rule:nonzero;"/>
                    <path d="M95.064,102.443C95.064,101.393 94.211,100.542 93.163,100.542C92.113,100.542 91.261,101.393 91.261,102.443C91.261,103.245 91.757,103.928 92.457,104.208L92.457,105.962C92.457,106.334 92.759,106.636 93.131,106.636C93.503,106.636 93.805,106.334 93.805,105.962L93.805,104.232C94.537,103.969 95.064,103.268 95.064,102.443Z" style="fill:rgb(218,196,37);fill-rule:nonzero;"/>
                    <path d="M91.189,102.443C91.189,101.393 92.042,100.542 93.091,100.542C93.091,100.542 91.766,101.425 91.766,102.476C91.766,103.546 92.766,104.181 92.766,104.181L92.766,105.982C92.766,106.354 93.122,106.636 93.122,106.636C92.751,106.636 92.449,106.334 92.449,105.962L92.449,104.232C91.716,103.969 91.189,103.268 91.189,102.443Z" style="fill:rgb(208,184,43);fill-rule:nonzero;"/>
                </g>
                <path d="M98.519,110.677L96.143,110.677L96.143,97.366L98.519,97.485L98.519,110.677Z" style="fill:rgb(248,227,73);fill-rule:nonzero;"/>
                <path d="M96.143,89.295L96.143,91.818C97.123,92.44 97.944,93.509 98.519,94.561L98.519,90.785C97.814,90.143 97.012,89.669 96.143,89.295Z" style="fill:rgb(248,227,73);fill-rule:nonzero;"/>
            </g>
        </g>
    </g>
</svg>
