<?xml version="1.0" encoding="UTF-8" standalone="no"?>
<!DOCTYPE svg PUBLIC "-//W3C//DTD SVG 1.1//EN" "http://www.w3.org/Graphics/SVG/1.1/DTD/svg11.dtd">
<svg width="100%" height="100%" viewBox="0 0 137 136" version="1.1" xmlns="http://www.w3.org/2000/svg" xmlns:xlink="http://www.w3.org/1999/xlink" xml:space="preserve" style="fill-rule:evenodd;clip-rule:evenodd;stroke-linejoin:round;stroke-miterlimit:1.41421;">
    <circle cx="68.416" cy="68.417" r="63.333" style="fill:rgb(136,160,210);"/>
    <g transform="matrix(0.286467,0,0,0.278457,-4.13081,-1.70234)">
        <path d="M179.4,418.9L179.4,365.3L125.9,365.3L125.9,86.1L379.1,86.1L379.1,418.9L179.4,418.9Z" style="fill:white;fill-rule:nonzero;"/>
    </g>
    <g transform="matrix(0.286467,0,0,0.278457,-4.13081,-1.70234)">
        <path d="M179.4,418.9L125.9,365.3L179.4,365.3L179.4,418.9Z" style="fill:rgb(230,233,238);fill-rule:nonzero;"/>
    </g>
    <g transform="matrix(0.286467,0,0,0.278457,-4.13081,-1.70234)">
        <rect x="150" y="217.4" width="204.9" height="12.5" style="fill:rgb(230,233,238);"/>
    </g>
    <g transform="matrix(0.286467,0,0,0.278457,-4.13081,-1.70234)">
        <rect x="232.4" y="185" width="122.5" height="12.5" style="fill:rgb(230,233,238);"/>
    </g>
    <g transform="matrix(0.286467,0,0,0.278457,-4.13081,-1.70234)">
        <rect x="232.4" y="152.6" width="122.5" height="12.5" style="fill:rgb(230,233,238);"/>
    </g>
    <g transform="matrix(0.286467,0,0,0.278457,-4.13081,-1.70234)">
        <rect x="232.4" y="120.3" width="122.5" height="12.5" style="fill:rgb(230,233,238);"/>
    </g>
    <g transform="matrix(0.286467,0,0,0.278457,-4.13081,-1.70234)">
        <rect x="150" y="249.7" width="204.9" height="12.5" style="fill:rgb(230,233,238);"/>
    </g>
    <g transform="matrix(0.286467,0,0,0.278457,-4.13081,-1.70234)">
        <rect x="150" y="282.1" width="204.9" height="12.5" style="fill:rgb(230,233,238);"/>
    </g>
    <g transform="matrix(0.286467,0,0,0.278457,-4.13081,-1.70234)">
        <rect x="150" y="314.4" width="96.6" height="12.5" style="fill:rgb(230,233,238);"/>
    </g>
    <g transform="matrix(1,0,0,1,-7.41312,-2.86421)">
        <circle cx="92.805" cy="100.769" r="15.25" style="fill:rgb(247,206,40);"/>
        <g>
            <path d="M101.057,92.47L86.936,100.298L86.213,100.974L93.178,107.605L93.676,107.041L101.057,92.47Z" style="fill:rgb(247,217,139);fill-rule:nonzero;"/>
            <path d="M101.1,92.388L94.938,95.814L97.887,98.763L101.1,92.388Z" style="fill:rgb(98,100,99);fill-rule:nonzero;"/>
            <g>
                <path d="M93.804,106.011L91.703,106.132L84.356,113.472C84.957,113.87 85.591,114.216 86.248,114.529L93.178,107.605L93.804,106.011Z" style="fill:rgb(232,72,73);fill-rule:nonzero;"/>
                <path d="M81.875,111.41L89.433,103.859L89.526,101.732L87.481,101.908L80.122,109.262C80.638,110.031 81.229,110.748 81.875,111.41Z" style="fill:rgb(232,72,73);fill-rule:nonzero;"/>
                <path d="M87.481,101.908L87.769,99.974L86.373,100.798L79.297,107.868C79.549,108.347 79.821,108.813 80.122,109.261L87.481,101.908Z" style="fill:rgb(240,102,104);fill-rule:nonzero;"/>
                <path d="M84.357,113.472L91.704,106.132L91.678,103.884L89.434,103.859L81.876,111.41C82.627,112.179 83.458,112.873 84.357,113.472Z" style="fill:rgb(240,102,104);fill-rule:nonzero;"/>
            </g>
        </g>
    </g>
    <g transform="matrix(0.14147,0,0,0.123986,11.5618,6.32217)">
        <path d="M247.7,377.85L247.7,361.85C227.6,359.85 209.6,351.85 193.6,337.95L209.6,318.85C221.9,329.55 234.6,335.95 247.6,337.95L247.6,295.35C231,291.35 218.9,286.15 211.2,279.75C203.5,273.35 199.7,263.75 199.7,251.05C199.7,238.35 204.1,228.05 213,219.95C221.9,211.85 233.4,207.55 247.6,206.75L247.6,195.75L261.7,195.75L261.7,206.95C277.8,208.15 293,213.65 307.4,223.45L293.2,243.55C283.5,236.65 273.1,232.45 261.8,230.85L261.8,272.15L262.5,272.15C279.3,276.15 291.7,281.45 299.6,288.15C307.5,294.85 311.5,304.65 311.5,317.45C311.5,330.25 307,340.75 297.9,348.75C288.8,356.85 276.8,361.25 261.9,361.95L261.9,377.75L247.7,377.75L247.7,377.85ZM232.2,236.05C228.5,239.35 226.6,243.45 226.6,248.35C226.6,253.25 228.1,257.15 231,259.95C233.9,262.85 239.5,265.55 247.7,268.15L247.7,230.15C241.1,230.75 235.9,232.75 232.2,236.05ZM278.4,332.35C282.5,328.95 284.5,324.75 284.5,319.65C284.5,314.55 282.9,310.45 279.7,307.45C276.5,304.45 270.5,301.65 261.7,298.95L261.7,338.55C268.8,337.75 274.3,335.75 278.4,332.35Z" style="fill:rgb(247,206,40);fill-rule:nonzero;"/>
    </g>
</svg>
