<?xml version="1.0" encoding="UTF-8" standalone="no"?>
<!DOCTYPE svg PUBLIC "-//W3C//DTD SVG 1.1//EN" "http://www.w3.org/Graphics/SVG/1.1/DTD/svg11.dtd">
<svg width="100%" height="100%" viewBox="0 0 137 136" version="1.1" xmlns="http://www.w3.org/2000/svg" xmlns:xlink="http://www.w3.org/1999/xlink" xml:space="preserve" style="fill-rule:evenodd;clip-rule:evenodd;stroke-linejoin:round;stroke-miterlimit:1.41421;">
    <g>
        <circle cx="68.417" cy="68.417" r="63.333" style="fill:rgb(218,31,38);"/>
        <path d="M43.68,30.156C41.322,30.156 39.409,32.069 39.409,34.428L39.409,102.779C39.409,105.138 41.322,107.051 43.68,107.051L92.808,107.051C95.167,107.051 97.079,105.138 97.079,102.779L97.079,49.939L76.488,30.156L43.68,30.156Z" style="fill:rgb(245,245,245);fill-rule:nonzero;"/>
        <path d="M97.08,49.939L80.76,49.939C78.401,49.939 76.489,48.026 76.489,45.667L76.489,30.156L97.08,49.939Z" style="fill:rgb(225,225,225);fill-rule:nonzero;"/>
        <path d="M91.07,55.772C91.07,56.508 90.473,57.105 89.736,57.105L47.07,57.105C46.334,57.105 45.737,56.508 45.737,55.772C45.737,55.036 46.334,54.439 47.07,54.439L89.736,54.439C90.473,54.439 91.07,55.036 91.07,55.772Z" style="fill:rgb(201,201,200);fill-rule:nonzero;"/>
        <path d="M91.07,62.772C91.07,63.508 90.473,64.105 89.736,64.105L47.07,64.105C46.334,64.105 45.737,63.508 45.737,62.772C45.737,62.036 46.334,61.439 47.07,61.439L89.736,61.439C90.473,61.439 91.07,62.036 91.07,62.772Z" style="fill:rgb(201,201,200);fill-rule:nonzero;"/>
        <path d="M91.07,69.439C91.07,70.175 90.473,70.772 89.736,70.772L47.07,70.772C46.334,70.772 45.737,70.175 45.737,69.439C45.737,68.703 46.334,68.106 47.07,68.106L89.736,68.106C90.473,68.105 91.07,68.703 91.07,69.439Z" style="fill:rgb(201,201,200);fill-rule:nonzero;"/>
        <path d="M91.07,76.439C91.07,77.175 90.473,77.772 89.736,77.772L47.07,77.772C46.334,77.772 45.737,77.175 45.737,76.439C45.737,75.703 46.334,75.106 47.07,75.106L89.736,75.106C90.473,75.105 91.07,75.703 91.07,76.439Z" style="fill:rgb(201,201,200);fill-rule:nonzero;"/>
        <path d="M69.404,82.105L47.07,82.105C46.334,82.105 45.737,82.702 45.737,83.438C45.737,84.174 46.334,84.771 47.07,84.771L69.404,84.771C70.141,84.771 70.738,84.174 70.738,83.438C70.738,82.702 70.141,82.105 69.404,82.105Z" style="fill:rgb(201,201,200);fill-rule:nonzero;"/>
        <g transform="matrix(0.172511,0,0,0.172511,31.0676,67.7467)">
            <circle cx="358" cy="192.4" r="88.4" style="fill:rgb(255,112,88);"/>
            <circle cx="358" cy="192.4" r="74.4" style="fill:white;"/>
            <rect x="355.2" y="128" width="5.2" height="10.8" style="fill:rgb(230,233,238);"/>
            <rect x="355.2" y="246" width="5.2" height="10.8" style="fill:rgb(230,233,238);"/>
            <rect x="411.6" y="190" width="10.8" height="5.2" style="fill:rgb(230,233,238);"/>
            <rect x="293.2" y="190" width="10.8" height="5.2" style="fill:rgb(230,233,238);"/>
            <g transform="matrix(0.7071,0.7071,-0.7071,0.7071,223.705,-238.546)">
                <rect x="397.203" y="145.363" width="5.2" height="10.8" style="fill:rgb(230,233,238);"/>
            </g>
            <g transform="matrix(0.7071,0.7071,-0.7071,0.7071,258.24,-154.899)">
                <rect x="313.499" y="228.874" width="5.2" height="10.8" style="fill:rgb(230,233,238);"/>
            </g>
            <g transform="matrix(-0.7071,0.7071,-0.7071,-0.7071,847.347,117.412)">
                <rect x="396.757" y="228.797" width="5.2" height="10.8" style="fill:rgb(230,233,238);"/>
            </g>
            <g transform="matrix(-0.7071,0.7071,-0.7071,-0.7071,645.935,33.7976)">
                <rect x="313.368" y="145.276" width="5.2" height="10.8" style="fill:rgb(230,233,238);"/>
            </g>
            <path d="M358,194.9C356.6,194.9 355.5,193.8 355.5,192.4L355.5,153.6C355.5,152.2 356.6,151.1 358,151.1C359.4,151.1 360.5,152.2 360.5,153.6L360.5,192.4C360.5,193.8 359.4,194.9 358,194.9Z" style="fill:rgb(50,74,94);fill-rule:nonzero;"/>
            <path d="M377.2,214.1C376.6,214.1 375.9,213.9 375.4,213.4L356.2,194.2C355.2,193.2 355.2,191.6 356.2,190.7C357.2,189.7 358.8,189.7 359.7,190.7L378.9,209.9C379.9,210.9 379.9,212.5 378.9,213.4C378.5,213.9 377.8,214.1 377.2,214.1Z" style="fill:rgb(50,74,94);fill-rule:nonzero;"/>
            <circle cx="358" cy="192.4" r="8.4" style="fill:rgb(255,112,88);"/>
        </g>
    </g>
</svg>
