<?xml version="1.0" encoding="UTF-8" standalone="no"?>
<!DOCTYPE svg PUBLIC "-//W3C//DTD SVG 1.1//EN" "http://www.w3.org/Graphics/SVG/1.1/DTD/svg11.dtd">
<svg width="100%" height="100%" viewBox="0 0 137 136" version="1.1" xmlns="http://www.w3.org/2000/svg" xmlns:xlink="http://www.w3.org/1999/xlink" xml:space="preserve" style="fill-rule:evenodd;clip-rule:evenodd;stroke-linejoin:round;stroke-miterlimit:1.41421;">
    <g>
        <circle cx="68.417" cy="68.417" r="63.333" style="fill:rgb(247,152,29);"/>
        <g>
            <path d="M43.68,30.156C41.322,30.156 39.409,32.069 39.409,34.428L39.409,102.779C39.409,105.138 41.322,107.051 43.68,107.051L92.808,107.051C95.167,107.051 97.079,105.138 97.079,102.779L97.079,49.939L76.488,30.156L43.68,30.156Z" style="fill:rgb(245,245,245);fill-rule:nonzero;"/>
            <path d="M97.08,49.939L80.76,49.939C78.401,49.939 76.489,48.026 76.489,45.667L76.489,30.156L97.08,49.939Z" style="fill:rgb(225,225,225);fill-rule:nonzero;"/>
            <path d="M91.07,55.772C91.07,56.508 90.473,57.105 89.736,57.105L47.07,57.105C46.334,57.105 45.737,56.508 45.737,55.772C45.737,55.036 46.334,54.439 47.07,54.439L89.736,54.439C90.473,54.439 91.07,55.036 91.07,55.772Z" style="fill:rgb(201,201,200);fill-rule:nonzero;"/>
            <path d="M91.07,62.772C91.07,63.508 90.473,64.105 89.736,64.105L47.07,64.105C46.334,64.105 45.737,63.508 45.737,62.772C45.737,62.036 46.334,61.439 47.07,61.439L89.736,61.439C90.473,61.439 91.07,62.036 91.07,62.772Z" style="fill:rgb(201,201,200);fill-rule:nonzero;"/>
            <path d="M91.07,69.439C91.07,70.175 90.473,70.772 89.736,70.772L47.07,70.772C46.334,70.772 45.737,70.175 45.737,69.439C45.737,68.703 46.334,68.106 47.07,68.106L89.736,68.106C90.473,68.105 91.07,68.703 91.07,69.439Z" style="fill:rgb(201,201,200);fill-rule:nonzero;"/>
            <path d="M91.07,76.439C91.07,77.175 90.473,77.772 89.736,77.772L47.07,77.772C46.334,77.772 45.737,77.175 45.737,76.439C45.737,75.703 46.334,75.106 47.07,75.106L89.736,75.106C90.473,75.105 91.07,75.703 91.07,76.439Z" style="fill:rgb(201,201,200);fill-rule:nonzero;"/>
            <path d="M69.404,82.105L47.07,82.105C46.334,82.105 45.737,82.702 45.737,83.438C45.737,84.174 46.334,84.771 47.07,84.771L69.404,84.771C70.141,84.771 70.738,84.174 70.738,83.438C70.738,82.702 70.141,82.105 69.404,82.105Z" style="fill:rgb(201,201,200);fill-rule:nonzero;"/>
        </g>
        <g>
            <circle cx="92.805" cy="100.769" r="15.25" style="fill:rgb(247,206,40);"/>
            <g>
                <path d="M101.057,92.47L86.936,100.298L86.213,100.974L93.178,107.605L93.676,107.041L101.057,92.47Z" style="fill:rgb(247,217,139);fill-rule:nonzero;"/>
                <path d="M101.1,92.388L94.938,95.814L97.887,98.763L101.1,92.388Z" style="fill:rgb(98,100,99);fill-rule:nonzero;"/>
                <g>
                    <path d="M93.804,106.011L91.703,106.132L84.356,113.472C84.957,113.87 85.591,114.216 86.248,114.529L93.178,107.605L93.804,106.011Z" style="fill:rgb(232,72,73);fill-rule:nonzero;"/>
                    <path d="M81.875,111.41L89.433,103.859L89.526,101.732L87.481,101.908L80.122,109.262C80.638,110.031 81.229,110.748 81.875,111.41Z" style="fill:rgb(232,72,73);fill-rule:nonzero;"/>
                    <path d="M87.481,101.908L87.769,99.974L86.373,100.798L79.297,107.868C79.549,108.347 79.821,108.813 80.122,109.261L87.481,101.908Z" style="fill:rgb(240,102,104);fill-rule:nonzero;"/>
                    <path d="M84.357,113.472L91.704,106.132L91.678,103.884L89.434,103.859L81.876,111.41C82.627,112.179 83.458,112.873 84.357,113.472Z" style="fill:rgb(240,102,104);fill-rule:nonzero;"/>
                </g>
            </g>
        </g>
    </g>
</svg>
