<?xml version="1.0" encoding="UTF-8" standalone="no"?>
<!DOCTYPE svg PUBLIC "-//W3C//DTD SVG 1.1//EN" "http://www.w3.org/Graphics/SVG/1.1/DTD/svg11.dtd">
<svg width="100%" height="100%" viewBox="0 0 137 136" version="1.1" xmlns="http://www.w3.org/2000/svg" xmlns:xlink="http://www.w3.org/1999/xlink" xml:space="preserve" style="fill-rule:evenodd;clip-rule:evenodd;stroke-linejoin:round;stroke-miterlimit:1.41421;">
    <g>
        <circle cx="68.417" cy="68.417" r="63.333" style="fill:rgb(218,31,38);"/>
        <g transform="matrix(0.256207,0,0,0.255203,4.16462,3.11465)">
            <path d="M317.8,412.4L206.8,412.4C206.4,412.4 206.2,412.1 206.2,411.8L206.2,93.3C206.2,92.9 206.5,92.7 206.8,92.7L317.7,92.7C318.1,92.7 318.3,93 318.3,93.3L318.3,411.8C318.4,412.1 318.1,412.4 317.8,412.4Z" style="fill:white;fill-rule:nonzero;"/>
        </g>
        <g transform="matrix(0.256207,0,0,0.255203,4.16462,3.11465)">
            <rect x="228" y="115.8" width="68.6" height="169.4" style="fill:rgb(255,112,88);"/>
        </g>
        <g transform="matrix(0.256207,0,0,0.255203,4.16462,3.11465)">
            <rect x="228" y="295.9" width="68.6" height="12" style="fill:rgb(255,112,88);"/>
        </g>
        <g transform="matrix(0.256207,0,0,0.255203,4.16462,3.11465)">
            <circle cx="262.3" cy="369.4" r="19.8" style="fill:rgb(206,213,224);"/>
        </g>
        <g transform="matrix(0.256207,0,0,0.255203,4.16462,3.11465)">
            <path d="M188.3,412.4L99.1,412.4C98.7,412.4 98.5,412.1 98.5,411.8L98.5,182.9C98.5,182.5 98.8,182.3 99.1,182.3L188.3,182.3C188.7,182.3 188.9,182.6 188.9,182.9L188.9,411.7C188.9,412.1 188.6,412.4 188.3,412.4Z" style="fill:white;fill-rule:nonzero;"/>
        </g>
        <g transform="matrix(0.256207,0,0,0.255203,4.16462,3.11465)">
            <rect x="116" y="200.9" width="55.3" height="108.9" style="fill:rgb(76,219,196);"/>
        </g>
        <g transform="matrix(0.256207,0,0,0.255203,4.16462,3.11465)">
            <rect x="116" y="318.5" width="55.3" height="9.7" style="fill:rgb(76,219,196);"/>
        </g>
        <g transform="matrix(0.256207,0,0,0.255203,4.16462,3.11465)">
            <circle cx="143.7" cy="377.7" r="16" style="fill:rgb(206,213,224);"/>
        </g>
        <g transform="matrix(0.256207,0,0,0.255203,4.16462,3.11465)">
            <path d="M405.9,412.4L336.3,412.4C335.9,412.4 335.7,412.1 335.7,411.8L335.7,232.8C335.7,232.4 336,232.2 336.3,232.2L405.9,232.2C406.3,232.2 406.5,232.5 406.5,232.8L406.5,411.8C406.6,412.1 406.3,412.4 405.9,412.4Z" style="fill:white;fill-rule:nonzero;"/>
        </g>
        <g transform="matrix(0.256207,0,0,0.255203,4.16462,3.11465)">
            <rect x="349.5" y="246.7" width="43.3" height="85.4" style="fill:rgb(132,219,255);"/>
        </g>
        <g transform="matrix(0.256207,0,0,0.255203,4.16462,3.11465)">
            <rect x="349.5" y="338.8" width="43.3" height="7.6" style="fill:rgb(132,219,255);"/>
        </g>
        <g transform="matrix(0.256207,0,0,0.255203,4.16462,3.11465)">
            <circle cx="159.2" cy="345.3" r="8.8" style="fill:rgb(206,213,224);"/>
        </g>
        <g transform="matrix(0.172511,0,0,0.172511,31.0676,67.7467)">
            <circle cx="358" cy="192.4" r="88.4" style="fill:rgb(255,112,88);"/>
            <circle cx="358" cy="192.4" r="74.4" style="fill:white;"/>
            <rect x="355.2" y="128" width="5.2" height="10.8" style="fill:rgb(230,233,238);"/>
            <rect x="355.2" y="246" width="5.2" height="10.8" style="fill:rgb(230,233,238);"/>
            <rect x="411.6" y="190" width="10.8" height="5.2" style="fill:rgb(230,233,238);"/>
            <rect x="293.2" y="190" width="10.8" height="5.2" style="fill:rgb(230,233,238);"/>
            <g transform="matrix(0.7071,0.7071,-0.7071,0.7071,223.705,-238.546)">
                <rect x="397.203" y="145.363" width="5.2" height="10.8" style="fill:rgb(230,233,238);"/>
            </g>
            <g transform="matrix(0.7071,0.7071,-0.7071,0.7071,258.24,-154.899)">
                <rect x="313.499" y="228.874" width="5.2" height="10.8" style="fill:rgb(230,233,238);"/>
            </g>
            <g transform="matrix(-0.7071,0.7071,-0.7071,-0.7071,847.347,117.412)">
                <rect x="396.757" y="228.797" width="5.2" height="10.8" style="fill:rgb(230,233,238);"/>
            </g>
            <g transform="matrix(-0.7071,0.7071,-0.7071,-0.7071,645.935,33.7976)">
                <rect x="313.368" y="145.276" width="5.2" height="10.8" style="fill:rgb(230,233,238);"/>
            </g>
            <path d="M358,194.9C356.6,194.9 355.5,193.8 355.5,192.4L355.5,153.6C355.5,152.2 356.6,151.1 358,151.1C359.4,151.1 360.5,152.2 360.5,153.6L360.5,192.4C360.5,193.8 359.4,194.9 358,194.9Z" style="fill:rgb(50,74,94);fill-rule:nonzero;"/>
            <path d="M377.2,214.1C376.6,214.1 375.9,213.9 375.4,213.4L356.2,194.2C355.2,193.2 355.2,191.6 356.2,190.7C357.2,189.7 358.8,189.7 359.7,190.7L378.9,209.9C379.9,210.9 379.9,212.5 378.9,213.4C378.5,213.9 377.8,214.1 377.2,214.1Z" style="fill:rgb(50,74,94);fill-rule:nonzero;"/>
            <circle cx="358" cy="192.4" r="8.4" style="fill:rgb(255,112,88);"/>
        </g>
    </g>
</svg>
