<?xml version="1.0" encoding="UTF-8" standalone="no"?>
<!DOCTYPE svg PUBLIC "-//W3C//DTD SVG 1.1//EN" "http://www.w3.org/Graphics/SVG/1.1/DTD/svg11.dtd">
<svg width="100%" height="100%" viewBox="0 0 137 136" version="1.1" xmlns="http://www.w3.org/2000/svg" xmlns:xlink="http://www.w3.org/1999/xlink" xml:space="preserve" style="fill-rule:evenodd;clip-rule:evenodd;stroke-linejoin:round;stroke-miterlimit:1.41421;">
    <circle cx="68.417" cy="68.417" r="63.333" style="fill:rgb(143,131,118);"/>
    <g transform="matrix(0.28854,0,0,0.28854,-3.83438,-4.68945)">
        <path d="M325.6,86.2L325.6,139.7L379.1,139.7L379.1,418.9L125.9,418.9L125.9,86.2L325.6,86.2Z" style="fill:white;fill-rule:nonzero;"/>
    </g>
    <g transform="matrix(0.28854,0,0,0.28854,-3.83438,-4.68945)">
        <path d="M325.6,86.2L379.1,139.7L325.6,139.7L325.6,86.2Z" style="fill:rgb(230,233,238);fill-rule:nonzero;"/>
    </g>
    <g transform="matrix(0.28854,0,0,0.28854,-3.83438,-4.68945)">
        <rect x="155.8" y="285.4" width="193.5" height="10.8" style="fill:rgb(219,76,76);"/>
    </g>
    <g transform="matrix(0.28854,0,0,0.28854,-3.83438,-4.68945)">
        <rect x="155.8" y="314.9" width="193.5" height="10.8" style="fill:rgb(219,76,76);"/>
    </g>
    <g transform="matrix(0.28854,0,0,0.28854,-3.83438,-4.68945)">
        <rect x="155.8" y="344.3" width="193.5" height="10.8" style="fill:rgb(219,76,76);"/>
    </g>
    <g transform="matrix(0.28854,0,0,0.28854,-3.83438,-4.68945)">
        <rect x="155.8" y="373.8" width="121.5" height="10.8" style="fill:rgb(219,76,76);"/>
    </g>
    <g transform="matrix(0.28854,0,0,0.28854,-4.52914,-14.7778)">
        <path d="M249.6,244.5L249.6,234.9C237.6,233.7 226.8,228.9 217.2,220.5L226.8,209C234.2,215.4 241.8,219.2 249.6,220.5L249.6,194.9C239.7,192.5 232.4,189.4 227.8,185.5C223.2,181.6 220.9,175.9 220.9,168.3C220.9,160.7 223.6,154.5 228.9,149.7C234.2,144.9 241.1,142.2 249.7,141.8L249.7,135.2L258.1,135.2L258.1,141.9C267.8,142.6 276.9,145.9 285.5,151.8L276.9,163.9C271.1,159.8 264.8,157.2 258.1,156.3L258.1,181.1L258.5,181.1C268.6,183.5 276,186.7 280.8,190.7C285.5,194.7 287.9,200.6 287.9,208.3C287.9,216 285.2,222.2 279.7,227.1C274.3,231.9 267,234.6 258.1,235L258.1,244.5L249.6,244.5L249.6,244.5ZM240.3,159.5C238.1,161.5 236.9,163.9 236.9,166.9C236.9,169.8 237.8,172.2 239.5,173.9C241.3,175.6 244.6,177.3 249.5,178.8L249.5,156C245.7,156.3 242.6,157.5 240.3,159.5ZM268.1,217.3C270.6,215.3 271.8,212.7 271.8,209.7C271.8,206.6 270.8,204.2 268.9,202.4C267,200.6 263.4,198.9 258.1,197.3L258.1,221C262.3,220.5 265.6,219.3 268.1,217.3Z" style="fill:rgb(219,76,76);fill-rule:nonzero;"/>
    </g>
    <g transform="matrix(0.763842,0,0,0.763842,13.6103,41.6195)">
        <text x="43.324px" y="37.374px" style="font-family:'Arial-BoldMT', 'Arial', sans-serif;font-weight:700;font-size:14.697px;fill:rgb(219,76,76);">INVOICE</text>
    </g>
</svg>
