<?xml version="1.0" encoding="UTF-8" standalone="no"?><!DOCTYPE svg PUBLIC "-//W3C//DTD SVG 1.1//EN" "http://www.w3.org/Graphics/SVG/1.1/DTD/svg11.dtd"><svg width="100%" height="100%" viewBox="0 0 386 205" version="1.1" xmlns="http://www.w3.org/2000/svg" xmlns:xlink="http://www.w3.org/1999/xlink" xml:space="preserve" style="fill-rule:evenodd;clip-rule:evenodd;stroke-linejoin:round;stroke-miterlimit:1.41421;"><path id="_401" d="M104.117,140.34l34.453,0l0,7.383l-34.453,0l0,54.277l-7.383,0l0,-54.277l-96.523,0l0,-4.102l95.019,-140.684l8.887,0l0,137.403Zm-92.422,0l85.039,0l0,-128.516l-11.484,18.867l-73.555,109.649Zm262.739,-19.551c0,26.706 -5.196,47.373 -15.586,62.002c-10.391,14.629 -24.974,21.943 -43.75,21.943c-18.685,0 -33.314,-7.382 -43.887,-22.148c-10.573,-14.766 -15.859,-35.547 -15.859,-62.344l0,-36.094c0,-26.432 5.218,-47.054 15.654,-61.865c10.436,-14.811 25.042,-22.217 43.818,-22.217c18.868,0 33.519,7.406 43.955,22.217c10.437,14.811 15.655,35.615 15.655,62.412l0,36.094Zm-7.383,-36.641c0,-24.153 -4.535,-42.975 -13.604,-56.464c-9.069,-13.49 -21.943,-20.235 -38.623,-20.235c-16.771,0 -29.645,6.768 -38.623,20.303c-8.978,13.535 -13.467,32.562 -13.467,57.08l0,35.684c0,24.062 4.603,42.884 13.809,56.464c9.206,13.581 22.057,20.372 38.555,20.372c16.588,0 29.394,-6.791 38.418,-20.372c4.183,-6.296 7.397,-13.768 9.641,-22.415c1.94,-7.476 3.277,-14.619 3.767,-23.852c0.166,-3.123 0.127,-7.557 0.127,-10.881l0,-35.684Zm20.659,91.543l10.16,-3.278c0,0 2.251,7.02 3.997,10.422c1.344,2.617 5.131,8.187 7.868,9.266c3.032,1.195 11.556,3.193 15.475,3.372c5.299,0.242 13.038,-0.062 18.622,-0.515c4.57,-0.371 6.403,-1.614 9.773,-3.017c2.676,-1.114 5.219,-2.927 7.344,-4.943c1.48,-1.404 2.843,-3.007 4.296,-5.293c1.189,-1.871 3.738,-5.424 4.836,-7.565c0.64,-1.248 2.346,-6.474 2.824,-7.793c0.485,-1.339 1.677,-4.824 1.733,-4.977c0.322,-0.882 0.946,-5.164 1.253,-6.881c0.313,-1.747 0.506,-6.331 0.595,-9.279c0.103,-3.38 -0.102,-5.814 0.124,-10.002c0.187,-3.456 0.004,-9.367 0.006,-15.335c0.001,-2.211 0.198,-8.166 -0.655,-10.623c-0.927,-2.671 -2.707,-7.023 -4.91,-9.406c-2.355,-2.549 -5.884,-3.643 -9.222,-5.886c-3.122,-2.098 -6.811,-2.805 -10.808,-4.576c-3.911,-1.733 -10.511,-4.207 -15.176,-6.052c-5.522,-2.183 -13.932,-5.865 -16.958,-9.05c-2.326,-2.448 -2.874,-7.064 -1.197,-10.058c2.392,-4.272 15.551,-15.574 15.551,-15.574l19.772,-17.877c0,0 15.864,-14.405 18.706,-17.699c0.576,-0.668 -0.776,-2.002 -1.656,-2.065c-6.999,-0.503 -40.341,-0.952 -40.341,-0.952l-39.958,-0.059l0.099,-8.256l79.972,0.022c0,0 5.226,0.682 7.135,2.018c1.909,1.336 4.229,3.591 4.318,5.996c0.089,2.406 -1.985,5.935 -3.784,8.437c-2.603,3.623 -11.839,13.302 -11.839,13.302l-15.694,14.913c0,0 -18.699,16.825 -22.38,20.756c-0.648,0.692 -0.485,2.283 0.29,2.829c1.656,1.166 5.507,2.569 9.648,4.17c4.357,1.686 12.181,5.18 16.498,6.944c4.203,1.717 10.637,4.333 14.401,6.638c3.876,2.375 8.277,5.358 10.858,8.609c3.007,3.789 4.291,8.675 5.182,13.122c1.04,5.189 0.439,16.38 0.472,22.717c0.036,6.745 -0.165,13.409 -0.257,17.757c-0.061,2.885 -0.276,6.041 -0.803,8.878c-0.581,3.129 -1.689,6.953 -2.684,9.894c-1.155,3.416 -2.613,7.192 -4.151,10.349c-1.458,2.992 -3.422,6.18 -5.077,8.597c-1.44,2.104 -3.282,4.14 -4.854,5.91c-1.455,1.638 -5.65,4.676 -7.58,5.712c-2.944,1.58 -5.489,3.094 -10.08,3.766c-5.42,0.793 -12.958,0.964 -19.437,0.994c-7.513,0.034 -17.344,-0.972 -23.621,-2.797c-5.039,-1.465 -9.613,-6.906 -12.33,-11.15c-2.944,-4.598 -6.356,-14.432 -6.356,-14.432Z" style="fill:#fff;fill-opacity:0.5;"/></svg>