<?xml version="1.0" encoding="UTF-8" standalone="no"?>
<!DOCTYPE svg PUBLIC "-//W3C//DTD SVG 1.1//EN" "http://www.w3.org/Graphics/SVG/1.1/DTD/svg11.dtd">
<svg width="100%" height="100%" viewBox="0 0 137 136" version="1.1" xmlns="http://www.w3.org/2000/svg" xmlns:xlink="http://www.w3.org/1999/xlink" xml:space="preserve" style="fill-rule:evenodd;clip-rule:evenodd;stroke-linejoin:round;stroke-miterlimit:1.41421;">
    <g>
        <circle cx="68.301" cy="67.849" r="63.333" style="fill:rgb(247,206,40);"/>
        <g>
            <path d="M43.564,29.587C41.206,29.587 39.293,31.499 39.293,33.858L39.293,102.209C39.293,104.568 41.206,106.481 43.564,106.481L92.692,106.481C95.051,106.481 96.963,104.568 96.963,102.209L96.963,49.37L76.372,29.587L43.564,29.587Z" style="fill:rgb(247,206,40);fill-rule:nonzero;"/>
            <path d="M96.964,49.37L80.644,49.37C78.285,49.37 76.373,47.457 76.373,45.098L76.373,29.587L96.964,49.37Z" style="fill:rgb(247,206,40);fill-rule:nonzero;"/>
            <path d="M75.521,77.152C75.521,79.875 73.314,82.082 70.592,82.082L34.606,82.082C31.883,82.082 29.677,79.875 29.677,77.152L29.677,62.092C29.677,59.369 31.883,57.162 34.606,57.162L70.591,57.162C73.313,57.162 75.52,59.369 75.52,62.092L75.52,77.152L75.521,77.152Z" style="fill:rgb(247,206,40);fill-rule:nonzero;"/>
            <g>
                <path d="M41.793,72.81L46.94,66.651L42.517,66.651C42.207,66.651 41.974,66.583 41.816,66.446C41.66,66.309 41.581,66.129 41.581,65.906C41.581,65.674 41.66,65.486 41.816,65.342C41.974,65.198 42.208,65.127 42.517,65.127L48.218,65.127C48.956,65.127 49.325,65.471 49.325,66.159C49.325,66.487 49.263,66.749 49.14,66.945C49.017,67.141 48.769,67.458 48.395,67.895L43.582,73.624L48.887,73.624C49.201,73.624 49.436,73.689 49.591,73.819C49.746,73.949 49.823,74.13 49.823,74.362C49.823,74.604 49.746,74.795 49.591,74.936C49.436,75.077 49.201,75.148 48.887,75.148L42.379,75.148C41.937,75.148 41.605,75.049 41.381,74.851C41.157,74.653 41.046,74.387 41.046,74.055C41.046,73.941 41.065,73.836 41.101,73.741C41.137,73.646 41.186,73.555 41.248,73.471C41.309,73.387 41.394,73.28 41.504,73.15C41.614,73.02 41.711,72.906 41.793,72.81Z" style="fill:rgb(247,206,40);fill-rule:nonzero;"/>
                <path d="M51.186,74.082L51.186,66.186C51.186,65.776 51.28,65.468 51.466,65.263C51.652,65.058 51.895,64.955 52.191,64.955C52.497,64.955 52.744,65.057 52.932,65.259C53.121,65.462 53.216,65.771 53.216,66.185L53.216,74.081C53.216,74.496 53.121,74.806 52.932,75.011C52.744,75.216 52.496,75.319 52.191,75.319C51.899,75.319 51.659,75.215 51.469,75.008C51.28,74.8 51.186,74.492 51.186,74.082Z" style="fill:rgb(247,206,40);fill-rule:nonzero;"/>
                <path d="M59.375,71.245L57.516,71.245L57.516,74.082C57.516,74.488 57.42,74.795 57.229,75.005C57.038,75.215 56.796,75.319 56.504,75.319C56.198,75.319 55.952,75.215 55.766,75.008C55.58,74.801 55.486,74.496 55.486,74.095L55.486,66.37C55.486,65.923 55.589,65.604 55.794,65.413C55.999,65.222 56.325,65.126 56.772,65.126L59.376,65.126C60.147,65.126 60.738,65.185 61.153,65.304C61.563,65.418 61.918,65.607 62.216,65.871C62.515,66.135 62.741,66.459 62.897,66.842C63.053,67.225 63.129,67.655 63.129,68.134C63.129,69.155 62.815,69.928 62.186,70.455C61.557,70.982 60.619,71.245 59.375,71.245ZM58.883,66.651L57.516,66.651L57.516,69.714L58.883,69.714C59.362,69.714 59.762,69.664 60.082,69.564C60.404,69.464 60.648,69.3 60.817,69.072C60.986,68.844 61.07,68.546 61.07,68.176C61.07,67.734 60.94,67.374 60.68,67.096C60.389,66.799 59.79,66.651 58.883,66.651Z" style="fill:rgb(247,206,40);fill-rule:nonzero;"/>
            </g>
        </g>
    </g>
</svg>
